<svg xmlns="http://www.w3.org/2000/svg" viewBox="0 0 1860 708">
    <g stroke-width="2" fill="none">
        <path stroke="#e79598" vector-effect="non-scaling-stroke" d="M754.01 119.09c-46.28-2.37-93.34 1.97-139.1 13.11q-72.68 17.69-133.41 57.42c-25.45 16.64-48.93 36.55-69.82 58.68a.44.44 0 0 0 .32.74l83.78-.05a1.94 1.93-67.6 0 0 1.38-.58q21.45-21.97 46.16-40.51c8.8-6.61 19.32-13.59 29.15-19.87q24.75-15.83 57.12-30.16 21.27-9.42 42.44-16.48 41.74-13.91 82.03-21.57 2.98-.57-.05-.73"/>
        <path stroke="#e79598" vector-effect="non-scaling-stroke" d="M529.49 149.08q29.98-12.35 47.53-17.69 19.72-6 40.8-10.45 6.36-1.34-.14-1.26-8.25.09-15.94.47-61.74 3.03-120.14 23.07-82.5 28.3-146.8 84.98c-7.13 6.29-13.83 13-20.69 19.73q-1.14 1.12.45 1.12 38.92-.09 74.94.15 1.72.01 3.03-1.42 58.17-63.62 137-98.48.08-.03-.01-.03-.05 0-.08-.05-.06-.09.05-.14"/>
        <path stroke="#9992ad" vector-effect="non-scaling-stroke" d="M240.08 321.84q17.72-31.07 40.99-58.91a.4.4 0 0 0-.31-.66l-77.52.01a.97.97 0 0 0-.73.33q-26.96 31.75-50.77 65.48a.27.27 0 0 0 .22.42h83.8a.91.89-75 0 0 .78-.46q1.77-3.11 3.54-6.21M292.43 447.96c14.99-67.49 43.79-131.3 87.17-184.99q.54-.68-.33-.68h-77.8a1.41 1.39-69.1 0 0-1.05.48c-46.52 52.76-77.19 116.26-91.51 185.37a.3.3 0 0 0 .29.36h82.56a.69.69 0 0 0 .67-.54M439.92 325.66q18.71-33.63 43.92-62.7a.41.4-69.4 0 0-.3-.67H399.7a.88.87 19.7 0 0-.67.31q-25.91 30.29-45.31 65.47-.26.47.27.47l83.53.01q.51 0 .81-.4.84-1.15 1.59-2.49M1100.71 360.65c-11.58-14.35-30.84-20.83-49.03-21.22-21.13-.45-52.49 3.19-53.48 30.99-.39 11.07 5.97 18.73 15.99 22.52q9.52 3.61 22.04 5.03 12.91 1.46 25.88 2.85 7.7.82 15.4 2.99c8.73 2.46 15.86 8.7 13.15 18.75-2.38 8.81-11.66 13.1-20.09 15.04q-16.43 3.8-34.05.77c-13.5-2.31-24.14-8.63-32.18-19.84q-.4-.55-.92-.11l-9.21 7.84a.31.31 0 0 0-.04.42c10.47 12.73 23.69 20.69 40.5 23.24q15.12 2.29 30.96.28c19-2.4 41.66-12.68 38.5-36.01-1.54-11.35-9.58-18.12-19.98-21.36q-9.5-2.96-19.71-4.07-12.8-1.39-25.01-2.6-6.27-.62-13.23-2.33c-8.2-2.02-15.99-6.84-14.62-16.65 2.72-19.6 39.41-18.04 52.06-15.4 11.46 2.4 20.31 7.92 27.54 16.55a.7.68 50.4 0 0 .96.1l8.47-6.87a.65.64-39.1 0 0 .1-.91"/>
        <path stroke="#e79598" vector-effect="non-scaling-stroke" d="M347.56 589.81c20.42-4 34.24-21.04 35.03-41.73q1.93-51.16 12.24-100.31 11.51-54.88 36.07-105.08a.58.57-76.8 0 0-.51-.83l-83.44-.01q-.64 0-.93.57-27.42 55.06-39.81 116.44-12.95 64.15-11.7 131.56.01.37.38.37 18.43-.13 38.8.03 8.37.07 13.87-1.01"/>
        <path stroke="#9992ad" vector-effect="non-scaling-stroke" d="M584.17 392.72q-1.13-.5 0-1c8.2-3.59 14.27-9.24 15.11-18.61 1.52-16.89-7.5-26.6-22.88-29.66q-7.01-1.39-12.6-1.4-33.81-.09-67.2-.03-.26 0-.26.25L496.33 448a.47.46 0 0 0 .47.46q29.92.12 60.8-.02 10.06-.05 20.48-2.05c12.42-2.38 22.62-9.16 24.64-22.23 2.48-16.03-4.93-25.5-18.55-31.44M704.75 401.01c16.79-1.23 32.68-9.68 33.01-28.67.23-12.88-6.04-22.48-18.17-26.77q-9.89-3.5-21.45-3.53-32.58-.1-63.4-.02-.53 0-.53.53l-.01 105.43q0 .52.53.52h11.81q.55 0 .55-.54l-.02-46.2q0-.43.42-.43l40.96-.03a1.16 1.13-17.6 0 1 .93.47l33.69 46.3q.32.43.85.43h15.05a.23.23 0 0 0 .19-.37l-34.63-46.65a.3.29-20.3 0 1 .22-.47M784.96 342.53a.53.53 0 0 0-.53-.53h-11.9a.53.53 0 0 0-.53.53v105.44a.53.53 0 0 0 .53.53h11.9a.53.53 0 0 0 .53-.53V342.53M876.71 353.84a.39.39 0 0 1 .39-.39h50.71a.39.39 0 0 0 .39-.39l.01-10.68a.39.39 0 0 0-.39-.39h-115.2a.39.39 0 0 0-.39.39l-.01 10.69a.39.39 0 0 0 .39.39l50.74-.04a.39.39 0 0 1 .39.39l.01 94.3a.39.39 0 0 0 .39.39h12.16a.39.39 0 0 0 .39-.39l.02-94.27M966.96 342.5a.51.51 0 0 0-.51-.51h-11.94a.51.51 0 0 0-.51.51V448a.51.51 0 0 0 .51.51h11.94a.51.51 0 0 0 .51-.51V342.5M1230.69 398.53a.39.39 0 0 1 .39.39l-.01 49.19a.39.39 0 0 0 .39.39l12.18.01a.39.39 0 0 0 .39-.39l-.01-105.74a.39.39 0 0 0-.39-.39h-12.15a.39.39 0 0 0-.39.39v44.29a.39.39 0 0 1-.39.39l-83.13-.01a.39.39 0 0 1-.39-.39v-44.27a.39.39 0 0 0-.39-.39h-12.15a.39.39 0 0 0-.39.39l-.01 105.72a.39.39 0 0 0 .39.39h12.17a.39.39 0 0 0 .39-.39l-.01-49.18a.39.39 0 0 1 .39-.39l83.12-.01M1257.72 585.15c18.81-10.33 27.78-30.13 26.44-51.37-1.6-25.26-16.34-43.92-41.27-49.61-27.84-6.36-66.75-2.15-80.19 27.83-8.03 17.9-7.61 40.41 3.58 57.17 11.81 17.68 32.31 24.02 53.29 24.23 13.3.13 26.66-1.94 38.15-8.25M1704.39 516.36c-6.01-16.55-19.48-27.85-36.91-31.99-28.08-6.67-68.09-2.53-81.3 28.14-13.46 31.26-1.01 68.01 33.74 77.7q18.58 5.19 40.09 2.01c23.43-3.45 41.11-17.53 46.63-41.18 2.55-10.94 1.62-24.02-2.25-34.68M559.99 502.65a.45.45 0 0 1 .45-.45l46.83.02a.45.45 0 0 0 .45-.45l-.01-17.05a.45.45 0 0 0-.45-.45H491.92a.45.45 0 0 0-.45.45l-.03 17.04a.45.45 0 0 0 .45.45l46.78-.01a.45.45 0 0 1 .45.45l.01 87.72a.45.45 0 0 0 .45.45h19.97a.45.45 0 0 0 .45-.45l-.01-87.72M622.17 590.82a.33.33 0 0 0 .3-.19l11.12-24.09a.33.33 0 0 1 .3-.19l61.05-.01a.33.33 0 0 1 .3.19l10.98 24.12a.33.33 0 0 0 .3.19l21.31-.01a.33.33 0 0 0 .3-.47l-51.52-105.9a.33.33 0 0 0-.3-.19h-23.34a.33.33 0 0 0-.3.18l-52.24 105.9a.33.33 0 0 0 .3.48l21.44-.01M769.56 502.64a.43.43 0 0 1 .43-.43h74.05a.43.43 0 0 0 .43-.43V484.7a.43.43 0 0 0-.43-.43h-94.87a.43.43 0 0 0-.43.43v105.67a.43.43 0 0 0 .43.43h96.64a.43.43 0 0 0 .43-.43v-17.01a.43.43 0 0 0-.43-.43l-75.81-.01a.43.43 0 0 1-.43-.43v-27.25a.43.43 0 0 1 .43-.43l63.59-.01a.43.43 0 0 0 .43-.43l.01-17a.43.43 0 0 0-.43-.43H770a.43.43 0 0 1-.43-.43l-.01-23.87M893.07 533.54a.31.31 0 0 1-.51-.24l.02-48.73a.31.31 0 0 0-.31-.31l-20.21.01a.31.31 0 0 0-.31.31v105.91a.31.31 0 0 0 .31.31l20.21.02a.31.31 0 0 0 .31-.31v-32.65a.31.31 0 0 1 .11-.24l22.4-18.61a.31.31 0 0 1 .44.04l43.58 51.68a.31.31 0 0 0 .23.11l26.51-.03a.31.31 0 0 0 .23-.51l-55.41-63.55a.31.31 0 0 1 .03-.44l50.07-41.5a.31.31 0 0 0-.2-.55l-28.72.01a.31.31 0 0 0-.2.07l-58.58 49.2M1073.25 515.76a.31.31 0 0 1 .6.01l20.04 74.85a.31.31 0 0 0 .3.23l19.52-.04a.31.31 0 0 0 .3-.22l30.93-105.92a.31.31 0 0 0-.29-.4h-19.77a.31.31 0 0 0-.3.23l-20.19 72.36a.31.31 0 0 1-.6 0l-20.48-72.36a.31.31 0 0 0-.29-.23h-19.5a.31.31 0 0 0-.3.23l-20.18 72.54a.31.31 0 0 1-.6 0l-20.33-72.54a.31.31 0 0 0-.29-.23l-20.24-.01a.31.31 0 0 0-.29.4l31.24 105.95a.31.31 0 0 0 .3.22l19.96.02a.31.31 0 0 0 .3-.23l20.16-74.86M1327.75 511.89a.31.31 0 0 1 .54-.21l73.62 79.03a.31.31 0 0 0 .22.1l18.69.02a.31.31 0 0 0 .31-.31l-.02-105.94a.31.31 0 0 0-.31-.31h-19.33a.31.31 0 0 0-.31.31l.01 75.85a.31.31 0 0 1-.54.21l-70.74-76.27a.31.31 0 0 0-.23-.1h-21.58a.31.31 0 0 0-.31.31v105.95a.31.31 0 0 0 .31.31l19.38-.01a.31.31 0 0 0 .31-.31l-.02-78.63M1559.13 547.68c2.91-19.63-1.39-40.31-18.04-52.26-11.63-8.35-26.87-11.05-41.59-11.11q-24.87-.11-51.43-.02a.28.28 0 0 0-.28.28v105.88a.36.36 0 0 0 .35.36q26.8.03 52.68-.02c28.34-.06 53.81-12.75 58.31-43.11"/>
        <path stroke="#9992ad" vector-effect="non-scaling-stroke" d="M573.73 354.58q-5.86-1.36-10.66-1.46-26.05-.51-53.47-.23a.33.33 0 0 0-.33.33l-.01 33.75a.47.46 0 0 0 .47.46q25.52-.03 44.93-.02c11.24 0 31.34-1.18 31.89-16.83.31-8.93-4.5-14.06-12.82-16M579.68 401.56c-7.84-3.4-14.86-3.26-25.72-3.29q-22.7-.06-44.26 0-.44 0-.44.44v37.75q0 .52.52.52 31.8.19 54.85-.08c8.79-.1 22-2.76 24.61-13.18 2.26-8.98-.57-18.26-9.56-22.16M725.1 375.43c3.03-17.92-12.82-21.78-26.73-21.88q-25.43-.2-50.78-.07-.53 0-.53.53l.02 35.27a.56.56 0 0 0 .56.56q26.7.19 52.39-.15 7.02-.09 14.56-2.54c5.54-1.8 9.52-5.87 10.51-11.72M1209.25 500.58c-15.18 2.53-27.2 11.91-30.24 27.46q-2.03 10.42.34 20.35c5.4 22.71 27.58 28.76 48.7 26.71 17.53-1.71 31.42-10.86 34.6-28.91q1.89-10.72-.63-20.26c-6.16-23.39-31.18-28.96-52.77-25.35M1601.91 534.47c-1.78 27.75 17.18 41.19 43.03 41.03 21.98-.13 40.26-10.02 42.05-33.98 1.73-23.08-10.93-38.73-33.97-41.41-24.8-2.88-49.28 5.92-51.11 34.36M642.56 548a.34.34 0 0 0 .31.48h43.54a.34.34 0 0 0 .31-.48l-21.77-46.3a.34.34 0 0 0-.62 0L642.56 548M1537.77 525.33c-4.15-17.13-20.45-21.89-36.39-22.68q-15.28-.75-32.42-.37a.26.25-1.2 0 0-.25.25v69.94a.48.48 0 0 0 .47.47q10.8.03 21.57-.02c19.97-.11 44.31-3.16 47.75-27.77q1.5-10.66-.73-19.82"/>
    </g>
    <path fill="#fff" d="M0 0h1860v708H0V0Zm754.01 119.09c-46.28-2.37-93.34 1.97-139.1 13.11q-72.68 17.69-133.41 57.42c-25.45 16.64-48.93 36.55-69.82 58.68a.44.44 0 0 0 .32.74l83.78-.05a1.94 1.93-67.6 0 0 1.38-.58q21.45-21.97 46.16-40.51c8.8-6.61 19.32-13.59 29.15-19.87q24.75-15.83 57.12-30.16 21.27-9.42 42.44-16.48 41.74-13.91 82.03-21.57 2.98-.57-.05-.73Zm-224.52 29.99q29.98-12.35 47.53-17.69 19.72-6 40.8-10.45 6.36-1.34-.14-1.26-8.25.09-15.94.47-61.74 3.03-120.14 23.07-82.5 28.3-146.8 84.98c-7.13 6.29-13.83 13-20.69 19.73q-1.14 1.12.45 1.12 38.92-.09 74.94.15 1.72.01 3.03-1.42 58.17-63.62 137-98.48.08-.03-.01-.03-.05 0-.08-.05-.06-.09.05-.14ZM240.08 321.84q17.72-31.07 40.99-58.91a.4.4 0 0 0-.31-.66l-77.52.01a.97.97 0 0 0-.73.33q-26.96 31.75-50.77 65.48a.27.27 0 0 0 .22.42h83.8a.91.89-75 0 0 .78-.46q1.77-3.11 3.54-6.21Zm52.35 126.12c14.99-67.49 43.79-131.3 87.17-184.99q.54-.68-.33-.68h-77.8a1.41 1.39-69.1 0 0-1.05.48c-46.52 52.76-77.19 116.26-91.51 185.37a.3.3 0 0 0 .29.36h82.56a.69.69 0 0 0 .67-.54Zm147.49-122.3q18.71-33.63 43.92-62.7a.41.4-69.4 0 0-.3-.67H399.7a.88.87 19.7 0 0-.67.31q-25.91 30.29-45.31 65.47-.26.47.27.47l83.53.01q.51 0 .81-.4.84-1.15 1.59-2.49Zm660.79 34.99c-11.58-14.35-30.84-20.83-49.03-21.22-21.13-.45-52.49 3.19-53.48 30.99-.39 11.07 5.97 18.73 15.99 22.52q9.52 3.61 22.04 5.03 12.91 1.46 25.88 2.85 7.7.82 15.4 2.99c8.73 2.46 15.86 8.7 13.15 18.75-2.38 8.81-11.66 13.1-20.09 15.04q-16.43 3.8-34.05.77c-13.5-2.31-24.14-8.63-32.18-19.84q-.4-.55-.92-.11l-9.21 7.84a.31.31 0 0 0-.04.42c10.47 12.73 23.69 20.69 40.5 23.24q15.12 2.29 30.96.28c19-2.4 41.66-12.68 38.5-36.01-1.54-11.35-9.58-18.12-19.98-21.36q-9.5-2.96-19.71-4.07-12.8-1.39-25.01-2.6-6.27-.62-13.23-2.33c-8.2-2.02-15.99-6.84-14.62-16.65 2.72-19.6 39.41-18.04 52.06-15.4 11.46 2.4 20.31 7.92 27.54 16.55a.7.68 50.4 0 0 .96.1l8.47-6.87a.65.64-39.1 0 0 .1-.91ZM347.56 589.81c20.42-4 34.24-21.04 35.03-41.73q1.93-51.16 12.24-100.31 11.51-54.88 36.07-105.08a.58.57-76.8 0 0-.51-.83l-83.44-.01q-.64 0-.93.57-27.42 55.06-39.81 116.44-12.95 64.15-11.7 131.56.01.37.38.37 18.43-.13 38.8.03 8.37.07 13.87-1.01Zm236.61-197.09q-1.13-.5 0-1c8.2-3.59 14.27-9.24 15.11-18.61 1.52-16.89-7.5-26.6-22.88-29.66q-7.01-1.39-12.6-1.4-33.81-.09-67.2-.03-.26 0-.26.25L496.33 448a.47.46 0 0 0 .47.46q29.92.12 60.8-.02 10.06-.05 20.48-2.05c12.42-2.38 22.62-9.16 24.64-22.23 2.48-16.03-4.93-25.5-18.55-31.44Zm120.58 8.29c16.79-1.23 32.68-9.68 33.01-28.67.23-12.88-6.04-22.48-18.17-26.77q-9.89-3.5-21.45-3.53-32.58-.1-63.4-.02-.53 0-.53.53l-.01 105.43q0 .52.53.52h11.81q.55 0 .55-.54l-.02-46.2q0-.43.42-.43l40.96-.03a1.16 1.13-17.6 0 1 .93.47l33.69 46.3q.32.43.85.43h15.05a.23.23 0 0 0 .19-.37l-34.63-46.65a.3.29-20.3 0 1 .22-.47Zm80.21-58.48a.53.53 0 0 0-.53-.53h-11.9a.53.53 0 0 0-.53.53v105.44a.53.53 0 0 0 .53.53h11.9a.53.53 0 0 0 .53-.53V342.53Zm91.75 11.31a.39.39 0 0 1 .39-.39h50.71a.39.39 0 0 0 .39-.39l.01-10.68a.39.39 0 0 0-.39-.39h-115.2a.39.39 0 0 0-.39.39l-.01 10.69a.39.39 0 0 0 .39.39l50.74-.04a.39.39 0 0 1 .39.39l.01 94.3a.39.39 0 0 0 .39.39h12.16a.39.39 0 0 0 .39-.39l.02-94.27Zm90.25-11.34a.51.51 0 0 0-.51-.51h-11.94a.51.51 0 0 0-.51.51V448a.51.51 0 0 0 .51.51h11.94a.51.51 0 0 0 .51-.51V342.5Zm263.73 56.03a.39.39 0 0 1 .39.39l-.01 49.19a.39.39 0 0 0 .39.39l12.18.01a.39.39 0 0 0 .39-.39l-.01-105.74a.39.39 0 0 0-.39-.39h-12.15a.39.39 0 0 0-.39.39v44.29a.39.39 0 0 1-.39.39l-83.13-.01a.39.39 0 0 1-.39-.39v-44.27a.39.39 0 0 0-.39-.39h-12.15a.39.39 0 0 0-.39.39l-.01 105.72a.39.39 0 0 0 .39.39h12.17a.39.39 0 0 0 .39-.39l-.01-49.18a.39.39 0 0 1 .39-.39l83.12-.01Zm27.03 186.62c18.81-10.33 27.78-30.13 26.44-51.37-1.6-25.26-16.34-43.92-41.27-49.61-27.84-6.36-66.75-2.15-80.19 27.83-8.03 17.9-7.61 40.41 3.58 57.17 11.81 17.68 32.31 24.02 53.29 24.23 13.3.13 26.66-1.94 38.15-8.25Zm446.67-68.79c-6.01-16.55-19.48-27.85-36.91-31.99-28.08-6.67-68.09-2.53-81.3 28.14-13.46 31.26-1.01 68.01 33.74 77.7q18.58 5.19 40.09 2.01c23.43-3.45 41.11-17.53 46.63-41.18 2.55-10.94 1.62-24.02-2.25-34.68Zm-1144.4-13.71a.45.45 0 0 1 .45-.45l46.83.02a.45.45 0 0 0 .45-.45l-.01-17.05a.45.45 0 0 0-.45-.45H491.92a.45.45 0 0 0-.45.45l-.03 17.04a.45.45 0 0 0 .45.45l46.78-.01a.45.45 0 0 1 .45.45l.01 87.72a.45.45 0 0 0 .45.45h19.97a.45.45 0 0 0 .45-.45l-.01-87.72Zm62.18 88.17a.33.33 0 0 0 .3-.19l11.12-24.09a.33.33 0 0 1 .3-.19l61.05-.01a.33.33 0 0 1 .3.19l10.98 24.12a.33.33 0 0 0 .3.19l21.31-.01a.33.33 0 0 0 .3-.47l-51.52-105.9a.33.33 0 0 0-.3-.19h-23.34a.33.33 0 0 0-.3.18l-52.24 105.9a.33.33 0 0 0 .3.48l21.44-.01Zm147.39-88.18a.43.43 0 0 1 .43-.43h74.05a.43.43 0 0 0 .43-.43V484.7a.43.43 0 0 0-.43-.43h-94.87a.43.43 0 0 0-.43.43v105.67a.43.43 0 0 0 .43.43h96.64a.43.43 0 0 0 .43-.43v-17.01a.43.43 0 0 0-.43-.43l-75.81-.01a.43.43 0 0 1-.43-.43v-27.25a.43.43 0 0 1 .43-.43l63.59-.01a.43.43 0 0 0 .43-.43l.01-17a.43.43 0 0 0-.43-.43H770a.43.43 0 0 1-.43-.43l-.01-23.87Zm123.51 30.9a.31.31 0 0 1-.51-.24l.02-48.73a.31.31 0 0 0-.31-.31l-20.21.01a.31.31 0 0 0-.31.31v105.91a.31.31 0 0 0 .31.31l20.21.02a.31.31 0 0 0 .31-.31v-32.65a.31.31 0 0 1 .11-.24l22.4-18.61a.31.31 0 0 1 .44.04l43.58 51.68a.31.31 0 0 0 .23.11l26.51-.03a.31.31 0 0 0 .23-.51l-55.41-63.55a.31.31 0 0 1 .03-.44l50.07-41.5a.31.31 0 0 0-.2-.55l-28.72.01a.31.31 0 0 0-.2.07l-58.58 49.2Zm180.18-17.78a.31.31 0 0 1 .6.01l20.04 74.85a.31.31 0 0 0 .3.23l19.52-.04a.31.31 0 0 0 .3-.22l30.93-105.92a.31.31 0 0 0-.29-.4h-19.77a.31.31 0 0 0-.3.23l-20.19 72.36a.31.31 0 0 1-.6 0l-20.48-72.36a.31.31 0 0 0-.29-.23h-19.5a.31.31 0 0 0-.3.23l-20.18 72.54a.31.31 0 0 1-.6 0l-20.33-72.54a.31.31 0 0 0-.29-.23l-20.24-.01a.31.31 0 0 0-.29.4l31.24 105.95a.31.31 0 0 0 .3.22l19.96.02a.31.31 0 0 0 .3-.23l20.16-74.86Zm254.5-3.87a.31.31 0 0 1 .54-.21l73.62 79.03a.31.31 0 0 0 .22.1l18.69.02a.31.31 0 0 0 .31-.31l-.02-105.94a.31.31 0 0 0-.31-.31h-19.33a.31.31 0 0 0-.31.31l.01 75.85a.31.31 0 0 1-.54.21l-70.74-76.27a.31.31 0 0 0-.23-.1h-21.58a.31.31 0 0 0-.31.31v105.95a.31.31 0 0 0 .31.31l19.38-.01a.31.31 0 0 0 .31-.31l-.02-78.63Zm231.38 35.79c2.91-19.63-1.39-40.31-18.04-52.26-11.63-8.35-26.87-11.05-41.59-11.11q-24.87-.11-51.43-.02a.28.28 0 0 0-.28.28v105.88a.36.36 0 0 0 .35.36q26.8.03 52.68-.02c28.34-.06 53.81-12.75 58.31-43.11Z"/>
    <path fill="#ce2a31" d="M614.91 132.2c45.76-11.14 92.82-15.48 139.1-13.11q3.03.16.05.73-40.29 7.66-82.03 21.57-21.17 7.06-42.44 16.48-32.37 14.33-57.12 30.16c-9.83 6.28-20.35 13.26-29.15 19.87q-24.71 18.54-46.16 40.51a1.94 1.93-67.6 0 1-1.38.58l-83.78.05a.44.44 0 0 1-.32-.74c20.89-22.13 44.37-42.04 69.82-58.68q60.73-39.73 133.41-57.42Z"/>
    <path fill="#ce2a31" d="M529.44 149.22q.03.05.08.05.09 0 .01.03-78.83 34.86-137 98.48-1.31 1.43-3.03 1.42-36.02-.24-74.94-.15-1.59 0-.45-1.12c6.86-6.73 13.56-13.44 20.69-19.73q64.3-56.68 146.8-84.98 58.4-20.04 120.14-23.07 7.69-.38 15.94-.47 6.5-.08.14 1.26-21.08 4.45-40.8 10.45-17.55 5.34-47.53 17.69-.11.05-.05.14Z"/>
    <path fill="#32255b" d="M240.08 321.84q-1.77 3.1-3.54 6.21a.91.89-75 0 1-.78.46h-83.8a.27.27 0 0 1-.22-.42q23.81-33.73 50.77-65.48a.97.97 0 0 1 .73-.33l77.52-.01a.4.4 0 0 1 .31.66q-23.27 27.84-40.99 58.91ZM379.6 262.97c-43.38 53.69-72.18 117.5-87.17 184.99a.69.69 0 0 1-.67.54H209.2a.3.3 0 0 1-.29-.36c14.32-69.11 44.99-132.61 91.51-185.37a1.41 1.39-69.1 0 1 1.05-.48h77.8q.87 0 .33.68ZM439.92 325.66q-.75 1.34-1.59 2.49-.3.4-.81.4l-83.53-.01q-.53 0-.27-.47 19.4-35.18 45.31-65.47a.88.87 19.7 0 1 .67-.31h83.84a.41.4-69.4 0 1 .3.67q-25.21 29.07-43.92 62.7ZM1051.68 339.43c18.19.39 37.45 6.87 49.03 21.22a.65.64-39.1 0 1-.1.91l-8.47 6.87a.7.68 50.4 0 1-.96-.1c-7.23-8.63-16.08-14.15-27.54-16.55-12.65-2.64-49.34-4.2-52.06 15.4-1.37 9.81 6.42 14.63 14.62 16.65q6.96 1.71 13.23 2.33 12.21 1.21 25.01 2.6 10.21 1.11 19.71 4.07c10.4 3.24 18.44 10.01 19.98 21.36 3.16 23.33-19.5 33.61-38.5 36.01q-15.84 2.01-30.96-.28c-16.81-2.55-30.03-10.51-40.5-23.24a.31.31 0 0 1 .04-.42l9.21-7.84q.52-.44.92.11c8.04 11.21 18.68 17.53 32.18 19.84q17.62 3.03 34.05-.77c8.43-1.94 17.71-6.23 20.09-15.04 2.71-10.05-4.42-16.29-13.15-18.75q-7.7-2.17-15.4-2.99-12.97-1.39-25.88-2.85-12.52-1.42-22.04-5.03c-10.02-3.79-16.38-11.45-15.99-22.52.99-27.8 32.35-31.44 53.48-30.99Z"/>
    <path fill="#ce2a31" d="M382.59 548.08c-.79 20.69-14.61 37.73-35.03 41.73q-5.5 1.08-13.87 1.01-20.37-.16-38.8-.03-.37 0-.38-.37-1.25-67.41 11.7-131.56 12.39-61.38 39.81-116.44.29-.57.93-.57l83.44.01a.58.57-76.8 0 1 .51.83q-24.56 50.2-36.07 105.08-10.31 49.15-12.24 100.31Z"/>
    <path fill="#32255b" d="M584.17 392.72c13.62 5.94 21.03 15.41 18.55 31.44-2.02 13.07-12.22 19.85-24.64 22.23q-10.42 2-20.48 2.05-30.88.14-60.8.02a.47.46 0 0 1-.47-.46l.01-105.73q0-.25.26-.25 33.39-.06 67.2.03 5.59.01 12.6 1.4c15.38 3.06 24.4 12.77 22.88 29.66-.84 9.37-6.91 15.02-15.11 18.61q-1.13.5 0 1Zm-10.44-38.14q-5.86-1.36-10.66-1.46-26.05-.51-53.47-.23a.33.33 0 0 0-.33.33l-.01 33.75a.47.46 0 0 0 .47.46q25.52-.03 44.93-.02c11.24 0 31.34-1.18 31.89-16.83.31-8.93-4.5-14.06-12.82-16Zm5.95 46.98c-7.84-3.4-14.86-3.26-25.72-3.29q-22.7-.06-44.26 0-.44 0-.44.44v37.75q0 .52.52.52 31.8.19 54.85-.08c8.79-.1 22-2.76 24.61-13.18 2.26-8.98-.57-18.26-9.56-22.16ZM704.75 401.01a.3.29-20.3 0 0-.22.47l34.63 46.65a.23.23 0 0 1-.19.37h-15.05q-.53 0-.85-.43l-33.69-46.3a1.16 1.13-17.6 0 0-.93-.47l-40.96.03q-.42 0-.42.43l.02 46.2q0 .54-.55.54h-11.81q-.53 0-.53-.52l.01-105.43q0-.53.53-.53 30.82-.08 63.4.02 11.56.03 21.45 3.53c12.13 4.29 18.4 13.89 18.17 26.77-.33 18.99-16.22 27.44-33.01 28.67Zm20.35-25.58c3.03-17.92-12.82-21.78-26.73-21.88q-25.43-.2-50.78-.07-.53 0-.53.53l.02 35.27a.56.56 0 0 0 .56.56q26.7.19 52.39-.15 7.02-.09 14.56-2.54c5.54-1.8 9.52-5.87 10.51-11.72Z"/>
    <rect fill="#32255b" x="772" y="342" width="12.96" height="106.5" rx=".53"/>
    <path fill="#32255b" d="m876.71 353.84-.02 94.27a.39.39 0 0 1-.39.39h-12.16a.39.39 0 0 1-.39-.39l-.01-94.3a.39.39 0 0 0-.39-.39l-50.74.04a.39.39 0 0 1-.39-.39l.01-10.69a.39.39 0 0 1 .39-.39h115.2a.39.39 0 0 1 .39.39l-.01 10.68a.39.39 0 0 1-.39.39H877.1a.39.39 0 0 0-.39.39Z"/>
    <rect fill="#32255b" x="954" y="341.99" width="12.96" height="106.52" rx=".51"/>
    <path fill="#32255b" d="m1230.69 398.53-83.12.01a.39.39 0 0 0-.39.39l.01 49.18a.39.39 0 0 1-.39.39h-12.17a.39.39 0 0 1-.39-.39l.01-105.72a.39.39 0 0 1 .39-.39h12.15a.39.39 0 0 1 .39.39v44.27a.39.39 0 0 0 .39.39l83.13.01a.39.39 0 0 0 .39-.39v-44.29a.39.39 0 0 1 .39-.39h12.15a.39.39 0 0 1 .39.39l.01 105.74a.39.39 0 0 1-.39.39l-12.18-.01a.39.39 0 0 1-.39-.39l.01-49.19a.39.39 0 0 0-.39-.39Z"/>
    <path fill="#fff" d="M573.73 354.58c8.32 1.94 13.13 7.07 12.82 16-.55 15.65-20.65 16.83-31.89 16.83q-19.41-.01-44.93.02a.47.46 0 0 1-.47-.46l.01-33.75a.33.33 0 0 1 .33-.33q27.42-.28 53.47.23 4.8.1 10.66 1.46ZM698.37 353.55c13.91.1 29.76 3.96 26.73 21.88-.99 5.85-4.97 9.92-10.51 11.72q-7.54 2.45-14.56 2.54-25.69.34-52.39.15a.56.56 0 0 1-.56-.56l-.02-35.27q0-.53.53-.53 25.35-.13 50.78.07ZM579.68 401.56c8.99 3.9 11.82 13.18 9.56 22.16-2.61 10.42-15.82 13.08-24.61 13.18q-23.05.27-54.85.08-.52 0-.52-.52v-37.75q0-.44.44-.44 21.56-.06 44.26 0c10.86.03 17.88-.11 25.72 3.29Z"/>
    <path fill="#32255b" d="M1284.16 533.78c1.34 21.24-7.63 41.04-26.44 51.37-11.49 6.31-24.85 8.38-38.15 8.25-20.98-.21-41.48-6.55-53.29-24.23-11.19-16.76-11.61-39.27-3.58-57.17 13.44-29.98 52.35-34.19 80.19-27.83 24.93 5.69 39.67 24.35 41.27 49.61Zm-74.91-33.2c-15.18 2.53-27.2 11.91-30.24 27.46q-2.03 10.42.34 20.35c5.4 22.71 27.58 28.76 48.7 26.71 17.53-1.71 31.42-10.86 34.6-28.91q1.89-10.72-.63-20.26c-6.16-23.39-31.18-28.96-52.77-25.35ZM1667.48 484.37c17.43 4.14 30.9 15.44 36.91 31.99 3.87 10.66 4.8 23.74 2.25 34.68-5.52 23.65-23.2 37.73-46.63 41.18q-21.51 3.18-40.09-2.01c-34.75-9.69-47.2-46.44-33.74-77.7 13.21-30.67 53.22-34.81 81.3-28.14Zm-65.57 50.1c-1.78 27.75 17.18 41.19 43.03 41.03 21.98-.13 40.26-10.02 42.05-33.98 1.73-23.08-10.93-38.73-33.97-41.41-24.8-2.88-49.28 5.92-51.11 34.36ZM559.99 502.65l.01 87.72a.45.45 0 0 1-.45.45h-19.97a.45.45 0 0 1-.45-.45l-.01-87.72a.45.45 0 0 0-.45-.45l-46.78.01a.45.45 0 0 1-.45-.45l.03-17.04a.45.45 0 0 1 .45-.45h115.34a.45.45 0 0 1 .45.45l.01 17.05a.45.45 0 0 1-.45.45l-46.83-.02a.45.45 0 0 0-.45.45ZM622.17 590.82l-21.44.01a.33.33 0 0 1-.3-.48l52.24-105.9a.33.33 0 0 1 .3-.18h23.34a.33.33 0 0 1 .3.19l51.52 105.9a.33.33 0 0 1-.3.47l-21.31.01a.33.33 0 0 1-.3-.19l-10.98-24.12a.33.33 0 0 0-.3-.19l-61.05.01a.33.33 0 0 0-.3.19l-11.12 24.09a.33.33 0 0 1-.3.19ZM642.56 548a.34.34 0 0 0 .31.48h43.54a.34.34 0 0 0 .31-.48l-21.77-46.3a.34.34 0 0 0-.62 0L642.56 548ZM769.56 502.64l.01 23.87a.43.43 0 0 0 .43.43h63.6a.43.43 0 0 1 .43.43l-.01 17a.43.43 0 0 1-.43.43l-63.59.01a.43.43 0 0 0-.43.43v27.25a.43.43 0 0 0 .43.43l75.81.01a.43.43 0 0 1 .43.43v17.01a.43.43 0 0 1-.43.43h-96.64a.43.43 0 0 1-.43-.43V484.7a.43.43 0 0 1 .43-.43h94.87a.43.43 0 0 1 .43.43v17.08a.43.43 0 0 1-.43.43h-74.05a.43.43 0 0 0-.43.43ZM893.07 533.54l58.58-49.2a.31.31 0 0 1 .2-.07l28.72-.01a.31.31 0 0 1 .2.55l-50.07 41.5a.31.31 0 0 0-.03.44l55.41 63.55a.31.31 0 0 1-.23.51l-26.51.03a.31.31 0 0 1-.23-.11l-43.58-51.68a.31.31 0 0 0-.44-.04l-22.4 18.61a.31.31 0 0 0-.11.24v32.65a.31.31 0 0 1-.31.31l-20.21-.02a.31.31 0 0 1-.31-.31V484.58a.31.31 0 0 1 .31-.31l20.21-.01a.31.31 0 0 1 .31.31l-.02 48.73a.31.31 0 0 0 .51.24ZM1073.25 515.76l-20.16 74.86a.31.31 0 0 1-.3.23l-19.96-.02a.31.31 0 0 1-.3-.22l-31.24-105.95a.31.31 0 0 1 .29-.4l20.24.01a.31.31 0 0 1 .29.23l20.33 72.54a.31.31 0 0 0 .6 0l20.18-72.54a.31.31 0 0 1 .3-.23h19.5a.31.31 0 0 1 .29.23l20.48 72.36a.31.31 0 0 0 .6 0l20.19-72.36a.31.31 0 0 1 .3-.23h19.77a.31.31 0 0 1 .29.4l-30.93 105.92a.31.31 0 0 1-.3.22l-19.52.04a.31.31 0 0 1-.3-.23l-20.04-74.85a.31.31 0 0 0-.6-.01ZM1327.75 511.89l.02 78.63a.31.31 0 0 1-.31.31l-19.38.01a.31.31 0 0 1-.31-.31V484.58a.31.31 0 0 1 .31-.31h21.58a.31.31 0 0 1 .23.1l70.74 76.27a.31.31 0 0 0 .54-.21l-.01-75.85a.31.31 0 0 1 .31-.31h19.33a.31.31 0 0 1 .31.31l.02 105.94a.31.31 0 0 1-.31.31l-18.69-.02a.31.31 0 0 1-.22-.1l-73.62-79.03a.31.31 0 0 0-.54.21ZM1559.13 547.68c-4.5 30.36-29.97 43.05-58.31 43.11q-25.88.05-52.68.02a.36.36 0 0 1-.35-.36V484.57a.28.28 0 0 1 .28-.28q26.56-.09 51.43.02c14.72.06 29.96 2.76 41.59 11.11 16.65 11.95 20.95 32.63 18.04 52.26Zm-21.36-22.35c-4.15-17.13-20.45-21.89-36.39-22.68q-15.28-.75-32.42-.37a.26.25-1.2 0 0-.25.25v69.94a.48.48 0 0 0 .47.47q10.8.03 21.57-.02c19.97-.11 44.31-3.16 47.75-27.77q1.5-10.66-.73-19.82Z"/>
    <path fill="#fff" d="M1209.25 500.58c21.59-3.61 46.61 1.96 52.77 25.35q2.52 9.54.63 20.26c-3.18 18.05-17.07 27.2-34.6 28.91-21.12 2.05-43.3-4-48.7-26.71q-2.37-9.93-.34-20.35c3.04-15.55 15.06-24.93 30.24-27.46ZM1644.94 575.5c-25.85.16-44.81-13.28-43.03-41.03 1.83-28.44 26.31-37.24 51.11-34.36 23.04 2.68 35.7 18.33 33.97 41.41-1.79 23.96-20.07 33.85-42.05 33.98ZM642.56 548l21.77-46.3a.34.34 0 0 1 .62 0l21.77 46.3a.34.34 0 0 1-.31.48h-43.54a.34.34 0 0 1-.31-.48ZM1501.38 502.65c15.94.79 32.24 5.55 36.39 22.68q2.23 9.16.73 19.82c-3.44 24.61-27.78 27.66-47.75 27.77q-10.77.05-21.57.02a.48.48 0 0 1-.47-.47v-69.94a.26.25-1.2 0 1 .25-.25q17.14-.38 32.42.37Z"/>
</svg>
