<svg xmlns="http://www.w3.org/2000/svg" viewBox="0 0 1280 212">
    <path fill="#e32" d="M1235.48 0H1280v207.51h-44.26a.38.38 0 0 1-.38-.38l.03-10.58a.3.3 0 0 0-.5-.23c-14.31 12.7-33.68 17.02-52.55 15.07-29.06-3-53.66-25.89-60.05-54.28-6.25-27.81-1.46-56.37 18.36-77.18q20.46-21.48 49.86-21.37c16.74.06 31.96 4.54 44.41 15.5q.51.44.51-.23l.05-73.83Zm-29.42 98.31c-28.78-4.53-45.36 20.38-40.08 46.6 2.49 12.34 11.03 22.59 22.97 26.21 7.88 2.39 17.9 2.17 25.05-1.36q20.62-10.17 21.33-33.55.55-18.33-13.16-30.26-7.18-6.24-16.11-7.64ZM0 14.5q51.38-.04 102.75.01 13.91.01 26.4 5.73c22.25 10.19 31.65 30.99 28.8 54.73q-1.88 15.65-14.51 25.62-7.94 6.27-16.18 7.14-.59.07-.55.66.03.33.3.51.23.15.51.18 5.82.62 9.48 2.06c20.17 7.96 27.82 25.08 26.81 45.89-1.69 34.84-29.64 50.44-61.56 50.49q-51.12.08-102.25.01V14.5Zm47.56 38.6-.08 40.6a.5.5 0 0 0 .5.5l43.2.08a21.22 20.05.1 0 0 21.26-20.01v-1.5a21.22 20.05.1 0 0-21.18-20.09l-43.2-.08a.5.5 0 0 0-.5.5Zm-.04 74.03v41.8a.33.33 0 0 0 .33.33h46.43a21.34 19.99 0 0 0 21.34-19.99v-2.48a21.34 19.99 0 0 0-21.34-19.99H47.85a.33.33 0 0 0-.33.33ZM682.08 96.87h82.71a.34.34 0 0 1 .34.34v40.83a.34.34 0 0 1-.34.34l-82.71-.01a.34.34 0 0 0-.34.34l.01 68.45a.34.34 0 0 1-.34.34l-46.85.01a.34.34 0 0 1-.34-.34V14.83a.34.34 0 0 1 .34-.34h137.87a.34.34 0 0 1 .34.34v41.03a.34.34 0 0 1-.34.34h-90.35a.34.34 0 0 0-.34.34v39.99a.34.34 0 0 0 .34.34ZM828.38 147.73q4.55 23.22 28.94 26.72c17.26 2.47 36.5-3.84 50.49-14.48q.5-.38.82.16l17.2 29.82a.44.44 0 0 1-.09.56c-18.75 15.89-42.54 22.47-67.31 21.16-32.49-1.73-62.49-18.83-71.81-51.57-6.51-22.87-4.46-49.82 9.73-69.46q17.04-23.58 44.06-29.92c47.91-11.24 91.52 19.94 93.7 69.63q.32 7.38.2 16.06-.01.59-.6.59H828.99q-.75 0-.61.73Zm34.97-51.54c-15.09-1.81-29.25 7.39-34 21.95q-.2.61.44.61h58.46q.7 0 .49-.67-6.23-19.58-25.39-21.89ZM997.06 147.76c2.93 16.18 14.39 25.28 30.36 26.89 17.35 1.75 35.47-4.31 49.26-14.84a.31.3-34 0 1 .45.08l17.28 29.95a.59.57 55.1 0 1-.12.74q-22.76 19.07-54.09 21.04c-51.04 3.21-90.65-27.29-88.34-80.81 1.78-41.11 33.33-71.19 74.24-72.26 26.14-.69 49.58 10.43 64.19 32.15 11.23 16.71 13.36 36.13 12.65 55.84q-.02.46-.48.46H997.69q-.77 0-.63.76Zm44.8-48.8q-8.21-3.79-16.26-2.82-20.41 2.45-27.67 21.86a.56.55-79.6 0 0 .51.75h58.59a.37.37 0 0 0 .35-.47q-4.25-14.11-15.52-19.32ZM282.33 194.29c-10.24 11.4-25.97 17.14-41.77 17.52-35.92.87-58.02-24.62-58.08-59.56q-.06-43.87-.01-88.81.01-.57.57-.57h44.85a.38.37-90 0 1 .37.38q-.05 40.47.02 80.08.01 7.57 3.59 14.2 7.75 14.38 24.83 12.65c20.67-2.1 26.28-21.33 26.28-39.18q-.01-32.8.05-67.6 0-.53.52-.53h44.91q.58 0 .58.59v143.52q0 .53-.52.53h-45.01q-.49 0-.49-.5v-12.45q0-1.03-.69-.27ZM406.01 99.48l-55.03-.02q-.48 0-.48-.48v-35.9a.21.2 90 0 1 .2-.21h119.45a.45.44 9.4 0 1 .32.44q-.07 3.04.05 6.17.07 1.8-.84 3.38-28.29 48.99-56.39 97.64a.32.32 0 0 0 .28.48h56.98q.58 0 .58.57v35.39q0 .57-.57.57H349.73q-.73 0-.7-.73c.13-3.03-.64-6.71.97-9.48q29.2-50.5 56.24-97.42.24-.4-.23-.4ZM548.18 99.48l-54.95-.01q-.75 0-.75-.74l.02-35.68a.18.18 0 0 1 .18-.18h119.41q.36 0 .36.36l-.01 7.58a2.6 2.56 60.5 0 1-.35 1.3l-56.83 98.42q-.26.45.26.45h57.28q.33 0 .33.32v35.64q0 .57-.57.57H491.49a.39.39 0 0 1-.39-.4q.07-3.13-.06-6.15-.08-1.8.91-3.51 28.43-49.35 56.4-97.69a.19.19 0 0 0-.17-.28Z"/>
</svg>
