<svg xmlns="http://www.w3.org/2000/svg" viewBox="0 0 490 103">
    <g stroke-width="2" fill="none" stroke="gray">
        <path vector-effect="non-scaling-stroke" d="m0 101.6 11.64.04q.58 0 .58-.58V83.45q0-.71.71-.69 7.22.19 13.86-.11 1.13-.04 1.12 1.09l-.04 17.27q-.01.64.63.64l9.25.03q.56 0 .56-.56l-.01-46.59q0-.53-.52-.53h-9.36a.55.55 0 0 0-.55.55l.03 17.66q0 .61-.61.61l-14.52.01q-.55 0-.55-.56V54.61q0-.61-.61-.61H.8q-.65 0-.65.65L0 100.38M181.22 31.15a.38.37-76.6 0 1 .33.55q-3.75 7.36-12.06 7.44c-10.99.1-17.86-12.22-12.14-21.66 3.78-6.25 10.82-8.44 17.55-5.92q4.43 1.66 7.07 6.62.32.6.9.24l7.92-4.93q.58-.37.22-.94c-14.46-22.86-49.82-11.42-45.57 16.41 2.71 17.77 22.81 25.82 37.55 16.24 7.67-4.99 10.83-14.63 10-23.75q-.04-.48-.53-.48l-24.43-.01q-.51 0-.51.51v8.98q0 .69.68.69l13.02.01M246.51 24.84A24.37 24.37 0 0 0 222.14.47a24.37 24.37 0 0 0-24.37 24.37 24.37 24.37 0 0 0 24.37 24.37 24.37 24.37 0 0 0 24.37-24.37M299.99 24.85A24.37 24.37 0 0 0 275.62.48a24.37 24.37 0 0 0-24.37 24.37 24.37 24.37 0 0 0 24.37 24.37 24.37 24.37 0 0 0 24.37-24.37M306.64 1.22l-.16 47a.28.28 0 0 0 .28.28l14.53.05A23.63 23.05.2 0 0 345 25.59v-1.46A23.63 23.05.2 0 0 321.45.99L306.92.94a.28.28 0 0 0-.28.28M93.32 77.86a24.37 24.37 0 0 0-24.37-24.37 24.37 24.37 0 0 0-24.37 24.37 24.37 24.37 0 0 0 24.37 24.37 24.37 24.37 0 0 0 24.37-24.37M153.58 69.41c-2.5-1.87-.88-5.41 1.71-6.06q6.49-1.61 10.27 3.69.36.5.85.13l7.7-5.85a.5.49-40.2 0 0 .07-.74q-9.09-9.61-21.93-6.35c-6.83 1.73-11.66 8.39-10.35 15.6q1.39 7.63 10.05 10.4 4.54 1.45 8.92 3.09c5.69 2.14 3.48 8.18-1.47 8.85q-6.76.92-10.57-5.93a.49.48 56.3 0 0-.73-.15l-8.44 6.65q-.51.41-.09.91 8.11 9.54 21.25 8.51c8.18-.65 14.66-7.65 14.12-15.91-.65-9.77-9.79-12.12-17.32-14.71a15.03 15.03 0 0 1-4.04-2.13M477.52 84.26a.42.42 0 0 1 .39.59c-2.55 6.02-7.67 7.72-14.03 7.08-5.78-.58-10.63-5.21-11.66-10.77q-1.51-8.12 3.77-13.42c6.8-6.83 17.77-5.25 22.27 3.33q.4.77 1.14.33l7.98-4.75a.64.63-32 0 0 .21-.89q-6.55-10.26-17.18-11.98c-18.59-3.01-32.69 12.65-27.95 30.9 2.7 10.39 11.97 17.31 22.76 17.59 12.46.31 22.3-7.99 23.92-20.29q.43-3.23.33-7.08-.01-.64-.66-.64l-24.47.01q-.39 0-.39.39l.01 9.32q0 .28.27.28h13.29M124.37 81.9c.03 4.02.06 7.84-4.22 9.94q-2.98 1.46-5.8.2c-3.19-1.42-4.25-4.17-4.24-7.56q.05-15.35.04-29.87 0-.61-.61-.61h-9.34a.41.41 0 0 0-.41.41q0 15.15.01 30.28c.01 9.55 5.25 16.56 14.79 17.48 12.2 1.16 20.04-5.73 19.99-18.07q-.08-16.49-.03-29.5 0-.6-.59-.6h-8.98q-.65 0-.65.65-.05 13.81.04 27.25M192.53 64.03l17.45.01q.51 0 .51-.51l.01-8.78q0-.75-.75-.75h-27.5q-.63 0-.63.63l-.01 46.39q0 .66.66.66h28.02q.21 0 .21-.21v-9.48a.27.26 90 0 0-.26-.27h-17.73q-.46 0-.46-.46l.04-8.02q.01-.56.56-.54 7.45.3 14.48-.03 1.33-.07 2.56.23.8.19.81-.64v-8.72q0-.7-.71-.7l-17.51-.03q-.29 0-.28-.28l.09-8.06q0-.44.44-.44M229.72 70.46a.3.3 0 0 1-.54-.19l.04-15.97a.3.3 0 0 0-.3-.3h-9.83a.3.3 0 0 0-.3.3l-.01 47.08a.3.3 0 0 0 .3.3h9.83a.3.3 0 0 0 .3-.3l-.02-16.18a.3.3 0 0 1 .07-.19l3.51-4.28a.3.3 0 0 1 .49.05l11.3 20.73a.3.3 0 0 0 .27.16l11.17.03a.3.3 0 0 0 .26-.45l-15.82-28.11a.3.3 0 0 1 .03-.34l14.82-18.31a.3.3 0 0 0-.23-.49l-11.99.02a.3.3 0 0 0-.23.11l-13.12 16.33M271.44 83.1a.33.33 0 0 1 .33-.33l17.71.06a.33.33 0 0 0 .34-.33l.15-9.32a.33.33 0 0 0-.33-.34l-17.88-.03a.33.33 0 0 1-.33-.33l.02-8.12a.33.33 0 0 1 .33-.33l17.82-.01a.33.33 0 0 0 .33-.33l.04-9.35a.33.33 0 0 0-.33-.33L261.33 54a.33.33 0 0 0-.33.33v47.02a.33.33 0 0 0 .33.33l28.29-.01a.33.33 0 0 0 .33-.33l.04-9.29a.33.33 0 0 0-.33-.33h-17.89a.33.33 0 0 1-.33-.33V83.1M308.53 83.19a.34.34 0 0 1 .34-.34l17.91-.07a.34.34 0 0 0 .34-.34v-9.27a.34.34 0 0 0-.34-.34h-17.91a.34.34 0 0 1-.34-.34v-8.14a.34.34 0 0 1 .34-.34l17.9.07a.34.34 0 0 0 .34-.34l.01-9.4a.34.34 0 0 0-.34-.34h-28.12a.34.34 0 0 0-.34.34l.04 47a.34.34 0 0 0 .34.34l28.07-.01a.34.34 0 0 0 .34-.34l.02-9.28a.34.34 0 0 0-.34-.34l-17.92.02a.34.34 0 0 1-.34-.34v-8.2M346.63 88.45c8.2.69 15.95-.79 20.35-8.4 5.48-9.48.99-21.32-9.08-24.87q-3.9-1.38-10.74-1.21-5.72.13-11.12-.01-.6-.02-.6.58l-.01 46.52q0 .63.63.63l9.17-.02q.64 0 .64-.65l-.05-11.82a.75.75 0 0 1 .81-.75M386.21 54.34a.34.34 0 0 0-.34-.34h-9.8a.34.34 0 0 0-.34.34v47a.34.34 0 0 0 .34.34h9.8a.34.34 0 0 0 .34-.34v-47M404.96 101.69a.34.34 0 0 0 .34-.34l-.03-28.6a.34.34 0 0 1 .63-.18l18.19 28.94a.34.34 0 0 0 .29.16l10.07.01a.34.34 0 0 0 .34-.34v-47a.34.34 0 0 0-.34-.34h-9.61a.34.34 0 0 0-.34.34l.05 27.83a.34.34 0 0 1-.63.18L406.2 54.17a.34.34 0 0 0-.29-.16L395.28 54a.34.34 0 0 0-.34.34v46.99a.34.34 0 0 0 .34.34l9.68.02"/>
        <path vector-effect="non-scaling-stroke" d="M222.9 38.99a14.24 14.03 86.9 0 0 13.24-14.979 14.24 14.03 86.9 0 0-14.78-13.46 14.24 14.03 86.9 0 0-13.24 14.978 14.24 14.03 86.9 0 0 14.78 13.46M289.74 24.76a14.13 14.13 0 0 0-14.13-14.13 14.13 14.13 0 0 0-14.13 14.13 14.13 14.13 0 0 0 14.13 14.13 14.13 14.13 0 0 0 14.13-14.13M317.05 11.01l-.1 27.42a.27.27 0 0 0 .27.27l3.52.01a13.85 13.2.2 0 0 13.9-13.15V24a13.85 13.2.2 0 0-13.8-13.25l-3.52-.01a.27.27 0 0 0-.27.27M69.237 92.027a14.17 14 88.8 0 0 13.7-14.46 14.17 14 88.8 0 0-14.294-13.874 14.17 14 88.8 0 0-13.7 14.46 14.17 14 88.8 0 0 14.294 13.874M345.85 64.27l-.02 14.08a.45.45 0 0 0 .45.45l5.1.01a7.57 7.34.1 0 0 7.58-7.33v-.3a7.57 7.34.1 0 0-7.56-7.35l-5.1-.01a.45.45 0 0 0-.45.45"/>
    </g>
    <path fill="#fff" d="M0 0h490v103H0v-1.4l11.64.04q.58 0 .58-.58V83.45q0-.71.71-.69 7.22.19 13.86-.11 1.13-.04 1.12 1.09l-.04 17.27q-.01.64.63.64l9.25.03q.56 0 .56-.56l-.01-46.59q0-.53-.52-.53h-9.36a.55.55 0 0 0-.55.55l.03 17.66q0 .61-.61.61l-14.52.01q-.55 0-.55-.56V54.61q0-.61-.61-.61H.8q-.65 0-.65.65L0 100.38V0Zm181.22 31.15a.38.37-76.6 0 1 .33.55q-3.75 7.36-12.06 7.44c-10.99.1-17.86-12.22-12.14-21.66 3.78-6.25 10.82-8.44 17.55-5.92q4.43 1.66 7.07 6.62.32.6.9.24l7.92-4.93q.58-.37.22-.94c-14.46-22.86-49.82-11.42-45.57 16.41 2.71 17.77 22.81 25.82 37.55 16.24 7.67-4.99 10.83-14.63 10-23.75q-.04-.48-.53-.48l-24.43-.01q-.51 0-.51.51v8.98q0 .69.68.69l13.02.01Zm65.29-6.31A24.37 24.37 0 0 0 222.14.47a24.37 24.37 0 0 0-24.37 24.37 24.37 24.37 0 0 0 24.37 24.37 24.37 24.37 0 0 0 24.37-24.37Zm53.48.01A24.37 24.37 0 0 0 275.62.48a24.37 24.37 0 0 0-24.37 24.37 24.37 24.37 0 0 0 24.37 24.37 24.37 24.37 0 0 0 24.37-24.37Zm6.65-23.63-.16 47a.28.28 0 0 0 .28.28l14.53.05A23.63 23.05.2 0 0 345 25.59v-1.46A23.63 23.05.2 0 0 321.45.99L306.92.94a.28.28 0 0 0-.28.28ZM93.32 77.86a24.37 24.37 0 0 0-24.37-24.37 24.37 24.37 0 0 0-24.37 24.37 24.37 24.37 0 0 0 24.37 24.37 24.37 24.37 0 0 0 24.37-24.37Zm60.26-8.45c-2.5-1.87-.88-5.41 1.71-6.06q6.49-1.61 10.27 3.69.36.5.85.13l7.7-5.85a.5.49-40.2 0 0 .07-.74q-9.09-9.61-21.93-6.35c-6.83 1.73-11.66 8.39-10.35 15.6q1.39 7.63 10.05 10.4 4.54 1.45 8.92 3.09c5.69 2.14 3.48 8.18-1.47 8.85q-6.76.92-10.57-5.93a.49.48 56.3 0 0-.73-.15l-8.44 6.65q-.51.41-.09.91 8.11 9.54 21.25 8.51c8.18-.65 14.66-7.65 14.12-15.91-.65-9.77-9.79-12.12-17.32-14.71a15.03 15.03 0 0 1-4.04-2.13Zm323.94 14.85a.42.42 0 0 1 .39.59c-2.55 6.02-7.67 7.72-14.03 7.08-5.78-.58-10.63-5.21-11.66-10.77q-1.51-8.12 3.77-13.42c6.8-6.83 17.77-5.25 22.27 3.33q.4.77 1.14.33l7.98-4.75a.64.63-32 0 0 .21-.89q-6.55-10.26-17.18-11.98c-18.59-3.01-32.69 12.65-27.95 30.9 2.7 10.39 11.97 17.31 22.76 17.59 12.46.31 22.3-7.99 23.92-20.29q.43-3.23.33-7.08-.01-.64-.66-.64l-24.47.01q-.39 0-.39.39l.01 9.32q0 .28.27.28h13.29ZM124.37 81.9c.03 4.02.06 7.84-4.22 9.94q-2.98 1.46-5.8.2c-3.19-1.42-4.25-4.17-4.24-7.56q.05-15.35.04-29.87 0-.61-.61-.61h-9.34a.41.41 0 0 0-.41.41q0 15.15.01 30.28c.01 9.55 5.25 16.56 14.79 17.48 12.2 1.16 20.04-5.73 19.99-18.07q-.08-16.49-.03-29.5 0-.6-.59-.6h-8.98q-.65 0-.65.65-.05 13.81.04 27.25Zm68.16-17.87 17.45.01q.51 0 .51-.51l.01-8.78q0-.75-.75-.75h-27.5q-.63 0-.63.63l-.01 46.39q0 .66.66.66h28.02q.21 0 .21-.21v-9.48a.27.26 90 0 0-.26-.27h-17.73q-.46 0-.46-.46l.04-8.02q.01-.56.56-.54 7.45.3 14.48-.03 1.33-.07 2.56.23.8.19.81-.64v-8.72q0-.7-.71-.7l-17.51-.03q-.29 0-.28-.28l.09-8.06q0-.44.44-.44Zm37.19 6.43a.3.3 0 0 1-.54-.19l.04-15.97a.3.3 0 0 0-.3-.3h-9.83a.3.3 0 0 0-.3.3l-.01 47.08a.3.3 0 0 0 .3.3h9.83a.3.3 0 0 0 .3-.3l-.02-16.18a.3.3 0 0 1 .07-.19l3.51-4.28a.3.3 0 0 1 .49.05l11.3 20.73a.3.3 0 0 0 .27.16l11.17.03a.3.3 0 0 0 .26-.45l-15.82-28.11a.3.3 0 0 1 .03-.34l14.82-18.31a.3.3 0 0 0-.23-.49l-11.99.02a.3.3 0 0 0-.23.11l-13.12 16.33Zm41.72 12.64a.33.33 0 0 1 .33-.33l17.71.06a.33.33 0 0 0 .34-.33l.15-9.32a.33.33 0 0 0-.33-.34l-17.88-.03a.33.33 0 0 1-.33-.33l.02-8.12a.33.33 0 0 1 .33-.33l17.82-.01a.33.33 0 0 0 .33-.33l.04-9.35a.33.33 0 0 0-.33-.33L261.33 54a.33.33 0 0 0-.33.33v47.02a.33.33 0 0 0 .33.33l28.29-.01a.33.33 0 0 0 .33-.33l.04-9.29a.33.33 0 0 0-.33-.33h-17.89a.33.33 0 0 1-.33-.33V83.1Zm37.09.09a.34.34 0 0 1 .34-.34l17.91-.07a.34.34 0 0 0 .34-.34v-9.27a.34.34 0 0 0-.34-.34h-17.91a.34.34 0 0 1-.34-.34v-8.14a.34.34 0 0 1 .34-.34l17.9.07a.34.34 0 0 0 .34-.34l.01-9.4a.34.34 0 0 0-.34-.34h-28.12a.34.34 0 0 0-.34.34l.04 47a.34.34 0 0 0 .34.34l28.07-.01a.34.34 0 0 0 .34-.34l.02-9.28a.34.34 0 0 0-.34-.34l-17.92.02a.34.34 0 0 1-.34-.34v-8.2Zm38.1 5.26c8.2.69 15.95-.79 20.35-8.4 5.48-9.48.99-21.32-9.08-24.87q-3.9-1.38-10.74-1.21-5.72.13-11.12-.01-.6-.02-.6.58l-.01 46.52q0 .63.63.63l9.17-.02q.64 0 .64-.65l-.05-11.82a.75.75 0 0 1 .81-.75Zm39.58-34.11a.34.34 0 0 0-.34-.34h-9.8a.34.34 0 0 0-.34.34v47a.34.34 0 0 0 .34.34h9.8a.34.34 0 0 0 .34-.34v-47Zm18.75 47.35a.34.34 0 0 0 .34-.34l-.03-28.6a.34.34 0 0 1 .63-.18l18.19 28.94a.34.34 0 0 0 .29.16l10.07.01a.34.34 0 0 0 .34-.34v-47a.34.34 0 0 0-.34-.34h-9.61a.34.34 0 0 0-.34.34l.05 27.83a.34.34 0 0 1-.63.18L406.2 54.17a.34.34 0 0 0-.29-.16L395.28 54a.34.34 0 0 0-.34.34v46.99a.34.34 0 0 0 .34.34l9.68.02Z"/>
    <path d="m181.22 31.15-13.02-.01q-.68 0-.68-.69v-8.98q0-.51.51-.51l24.43.01q.49 0 .53.48c.83 9.12-2.33 18.76-10 23.75-14.74 9.58-34.84 1.53-37.55-16.24-4.25-27.83 31.11-39.27 45.57-16.41q.36.57-.22.94l-7.92 4.93q-.58.36-.9-.24-2.64-4.96-7.07-6.62c-6.73-2.52-13.77-.33-17.55 5.92-5.72 9.44 1.15 21.76 12.14 21.66q8.31-.08 12.06-7.44a.38.37-76.6 0 0-.33-.55ZM246.51 24.84a24.37 24.37 0 0 1-24.37 24.37 24.37 24.37 0 0 1-24.37-24.37A24.37 24.37 0 0 1 222.14.47a24.37 24.37 0 0 1 24.37 24.37ZM222.9 38.99a14.24 14.03 86.9 0 0 13.24-14.979 14.24 14.03 86.9 0 0-14.78-13.46 14.24 14.03 86.9 0 0-13.24 14.978 14.24 14.03 86.9 0 0 14.78 13.46ZM299.99 24.85a24.37 24.37 0 0 1-24.37 24.37 24.37 24.37 0 0 1-24.37-24.37A24.37 24.37 0 0 1 275.62.48a24.37 24.37 0 0 1 24.37 24.37Zm-10.25-.09a14.13 14.13 0 0 0-14.13-14.13 14.13 14.13 0 0 0-14.13 14.13 14.13 14.13 0 0 0 14.13 14.13 14.13 14.13 0 0 0 14.13-14.13ZM306.64 1.22a.28.28 0 0 1 .28-.28l14.53.05A23.63 23.05.2 0 1 345 24.13v1.46a23.63 23.05.2 0 1-23.71 22.96l-14.53-.05a.28.28 0 0 1-.28-.28l.16-47Zm10.41 9.79-.1 27.42a.27.27 0 0 0 .27.27l3.52.01a13.85 13.2.2 0 0 13.9-13.15V24a13.85 13.2.2 0 0-13.8-13.25l-3.52-.01a.27.27 0 0 0-.27.27Z"/>
    <ellipse fill="#fff" transform="rotate(86.9 97.991 129.628)" rx="14.24" ry="14.03"/>
    <circle fill="#fff" cx="275.61" cy="24.76" r="14.13"/>
    <path fill="#fff" d="M317.05 11.01a.27.27 0 0 1 .27-.27l3.52.01A13.85 13.2.2 0 1 334.64 24v1.56a13.85 13.2.2 0 1-13.9 13.15l-3.52-.01a.27.27 0 0 1-.27-.27l.1-27.42Z"/>
    <path d="M93.32 77.86a24.37 24.37 0 0 1-24.37 24.37 24.37 24.37 0 0 1-24.37-24.37 24.37 24.37 0 0 1 24.37-24.37 24.37 24.37 0 0 1 24.37 24.37ZM69.237 92.027a14.17 14 88.8 0 0 13.7-14.46 14.17 14 88.8 0 0-14.294-13.874 14.17 14 88.8 0 0-13.7 14.46 14.17 14 88.8 0 0 14.294 13.874ZM155.29 63.35c-2.59.65-4.21 4.19-1.71 6.06 1.21.9 2.61 1.64 4.04 2.13 7.53 2.59 16.67 4.94 17.32 14.71.54 8.26-5.94 15.26-14.12 15.91q-13.14 1.03-21.25-8.51-.42-.5.09-.91l8.44-6.65a.49.48 56.3 0 1 .73.15q3.81 6.85 10.57 5.93c4.95-.67 7.16-6.71 1.47-8.85q-4.38-1.64-8.92-3.09-8.66-2.77-10.05-10.4c-1.31-7.21 3.52-13.87 10.35-15.6q12.84-3.26 21.93 6.35a.5.49-40.2 0 1-.07.74l-7.7 5.85q-.49.37-.85-.13-3.78-5.3-10.27-3.69ZM477.52 84.26h-13.29q-.27 0-.27-.28l-.01-9.32q0-.39.39-.39l24.47-.01q.65 0 .66.64.1 3.85-.33 7.08c-1.62 12.3-11.46 20.6-23.92 20.29-10.79-.28-20.06-7.2-22.76-17.59-4.74-18.25 9.36-33.91 27.95-30.9q10.63 1.72 17.18 11.98a.64.63-32 0 1-.21.89l-7.98 4.75q-.74.44-1.14-.33c-4.5-8.58-15.47-10.16-22.27-3.33q-5.28 5.3-3.77 13.42c1.03 5.56 5.88 10.19 11.66 10.77 6.36.64 11.48-1.06 14.03-7.08a.42.42 0 0 0-.39-.59ZM0 101.6v-1.22l.15-45.73q0-.65.65-.65h10.81q.61 0 .61.61v17.66q0 .56.55.56l14.52-.01q.61 0 .61-.61l-.03-17.66a.55.55 0 0 1 .55-.55h9.36q.52 0 .52.53l.01 46.59q0 .56-.56.56l-9.25-.03q-.64 0-.63-.64l.04-17.27q.01-1.13-1.12-1.09-6.64.3-13.86.11-.71-.02-.71.69v17.61q0 .58-.58.58L0 101.6ZM124.37 81.9q-.09-13.44-.04-27.25 0-.65.65-.65h8.98q.59 0 .59.6-.05 13.01.03 29.5c.05 12.34-7.79 19.23-19.99 18.07-9.54-.92-14.78-7.93-14.79-17.48q-.01-15.13-.01-30.28a.41.41 0 0 1 .41-.41h9.34q.61 0 .61.61.01 14.52-.04 29.87c-.01 3.39 1.05 6.14 4.24 7.56q2.82 1.26 5.8-.2c4.28-2.1 4.25-5.92 4.22-9.94ZM192.53 64.03q-.44 0-.44.44l-.09 8.06q-.01.28.28.28l17.51.03q.71 0 .71.7v8.72q-.01.83-.81.64-1.23-.3-2.56-.23-7.03.33-14.48.03-.55-.02-.56.54l-.04 8.02q0 .46.46.46h17.73a.27.26 90 0 1 .26.27v9.48q0 .21-.21.21h-28.02q-.66 0-.66-.66l.01-46.39q0-.63.63-.63h27.5q.75 0 .75.75l-.01 8.78q0 .51-.51.51l-17.45-.01ZM229.72 70.46l13.12-16.33a.3.3 0 0 1 .23-.11l11.99-.02a.3.3 0 0 1 .23.49L240.47 72.8a.3.3 0 0 0-.03.34l15.82 28.11a.3.3 0 0 1-.26.45l-11.17-.03a.3.3 0 0 1-.27-.16l-11.3-20.73a.3.3 0 0 0-.49-.05l-3.51 4.28a.3.3 0 0 0-.07.19l.02 16.18a.3.3 0 0 1-.3.3h-9.83a.3.3 0 0 1-.3-.3l.01-47.08a.3.3 0 0 1 .3-.3h9.83a.3.3 0 0 1 .3.3l-.04 15.97a.3.3 0 0 0 .54.19ZM271.44 83.1v8.29a.33.33 0 0 0 .33.33h17.89a.33.33 0 0 1 .33.33l-.04 9.29a.33.33 0 0 1-.33.33l-28.29.01a.33.33 0 0 1-.33-.33V54.33a.33.33 0 0 1 .33-.33l28.31.01a.33.33 0 0 1 .33.33l-.04 9.35a.33.33 0 0 1-.33.33l-17.82.01a.33.33 0 0 0-.33.33l-.02 8.12a.33.33 0 0 0 .33.33l17.88.03a.33.33 0 0 1 .33.34l-.15 9.32a.33.33 0 0 1-.34.33l-17.71-.06a.33.33 0 0 0-.33.33ZM308.53 83.19v8.2a.34.34 0 0 0 .34.34l17.92-.02a.34.34 0 0 1 .34.34l-.02 9.28a.34.34 0 0 1-.34.34l-28.07.01a.34.34 0 0 1-.34-.34l-.04-47a.34.34 0 0 1 .34-.34h28.12a.34.34 0 0 1 .34.34l-.01 9.4a.34.34 0 0 1-.34.34l-17.9-.07a.34.34 0 0 0-.34.34v8.14a.34.34 0 0 0 .34.34h17.91a.34.34 0 0 1 .34.34v9.27a.34.34 0 0 1-.34.34l-17.91.07a.34.34 0 0 0-.34.34ZM345.82 89.2l.05 11.82q0 .65-.64.65l-9.17.02q-.63 0-.63-.63l.01-46.52q0-.6.6-.58 5.4.14 11.12.01 6.84-.17 10.74 1.21c10.07 3.55 14.56 15.39 9.08 24.87-4.4 7.61-12.15 9.09-20.35 8.4a.75.75 0 0 0-.81.75Zm.03-24.93-.02 14.08a.45.45 0 0 0 .45.45l5.1.01a7.57 7.34.1 0 0 7.58-7.33v-.3a7.57 7.34.1 0 0-7.56-7.35l-5.1-.01a.45.45 0 0 0-.45.45Z"/>
    <rect x="375.73" y="54" width="10.48" height="47.68" rx=".34"/>
    <path d="m404.96 101.69-9.68-.02a.34.34 0 0 1-.34-.34V54.34a.34.34 0 0 1 .34-.34l10.63.01a.34.34 0 0 1 .29.16l17.72 28.18a.34.34 0 0 0 .63-.18l-.05-27.83a.34.34 0 0 1 .34-.34h9.61a.34.34 0 0 1 .34.34v47a.34.34 0 0 1-.34.34l-10.07-.01a.34.34 0 0 1-.29-.16L405.9 72.57a.34.34 0 0 0-.63.18l.03 28.6a.34.34 0 0 1-.34.34Z"/>
    <ellipse fill="#fff" transform="rotate(88.8 -5.284 74.13)" rx="14.17" ry="14"/>
    <path fill="#fff" d="M345.85 64.27a.45.45 0 0 1 .45-.45l5.1.01a7.57 7.34.1 0 1 7.56 7.35v.3a7.57 7.34.1 0 1-7.58 7.33l-5.1-.01a.45.45 0 0 1-.45-.45l.02-14.08Z"/>
</svg>
