<svg xmlns="http://www.w3.org/2000/svg" width="180" viewBox="0 0 189 29">
    <path fill="currentColor" fill-rule="evenodd" d="M0 21.1c3.3-2.6 8.1-6.4 8.7-6.9l.097-.076c2.738-2.152 4.23-3.324 6.503-3.324V0C11.2 0 7.8 1.1 3 4.9c0 0-1.3 1-3 2.4v13.8zm21.8-6.9c.7-.5 11.8-9.3 11.8-9.3C38.3 1.1 41.8 0 45.9 0v10.8c-2.273 0-3.765 1.172-6.503 3.324l-.097.076c-.7.5-11.8 9.3-11.8 9.3-4.8 3.8-8.2 4.9-12.3 4.9V17.6c2.273 0 3.765-1.172 6.503-3.324l.097-.076zm30.7 0c.6-.5 5.4-4.3 8.7-6.9v13.8c-1.7 1.4-3 2.4-3 2.4-4.8 3.8-8.2 4.9-12.3 4.9V17.6c2.273 0 3.765-1.172 6.503-3.324l.097-.076zm44.8 7.4V7.9h2.4v13.7h-2.4zm-1.8.1H84V2.9h2.5v16.5h9v2.3zm3-19.5c1 0 1.6.6 1.6 1.6s-.6 1.6-1.6 1.6-1.6-.6-1.6-1.6.6-1.6 1.6-1.6zm9.9 17.6c2.8 0 3.8-2.6 3.8-5s-1-5-3.8-5c-2.4 0-3.8 1.8-3.8 5 0 4.5 2.7 5 3.8 5zm6.1-11.9v14.5c0 3.4-2.4 5.6-6.1 5.6-3.4 0-5.8-1.9-5.9-4.7h2.3c.1 1.2 1.1 2.6 3.6 2.6 2.3 0 3.7-1.3 3.7-3.6v-2.6c-.5.8-1.6 2.2-4.1 2.2-3.5 0-5.8-2.7-5.8-7.1 0-4.4 2.2-7.1 5.8-7.1 2.5 0 3.6 1.4 4.1 2.2l.3-2h2.1zm14.6 13.8h-2.4v-8.6c0-2.2-1.1-3.3-3.1-3.3-2.2 0-3.6 1.6-3.6 4.3v7.5h-2.4V1.8h2.4v8.3c.6-1.1 1.8-2.4 4.2-2.4 3.1 0 4.9 1.9 4.9 5.1v8.9zm9.4 0h-2.1c-2.5 0-3.7-1.2-3.6-3.8v-8h-2.3v-2h2.3V4.3h2.3v3.6h3.3v2h-3.3v7.9c0 1.3.5 1.8 1.7 1.8h1.7v2.1zm14.2-13.8v.4l-7.5 19.5h-2.4v-.4l2.3-5.9v-.1l-5.5-13.2v-.3h2.5l4.1 10.7 4-10.7h2.5zm6.7 1.9c-2.2 0-3.6 1.3-3.7 3.7h7.2c0-2.3-1.3-3.7-3.5-3.7zm6 5.7h-9.7c0 2.7 1.4 4.3 3.6 4.2 1.8 0 3-.7 3.4-2.1h2.4c-.3 2.5-2.7 4.2-5.7 4.2-3.7 0-6.2-2.8-6.2-7.1 0-4.4 2.3-7.1 6.2-7.1 3.7 0 6 2.6 6 6.7v1.2zm6.7 4.4c2.2 0 3.8-1.6 3.8-3.6v-1.1h-3.3c-2.2 0-3.3.8-3.3 2.4 0 1.5 1 2.3 2.8 2.3zm6.1 1.8h-2l-.2-2c-.8 1.4-2.4 2.2-4.3 2.2-2.8 0-4.8-1.8-4.8-4.3 0-2.7 2.1-4.3 5.7-4.3h3.3v-.8c0-1.8-1.2-2.8-3.1-2.8-1.7 0-2.9 1-2.9 2.4h-2.3c0-2.6 2.1-4.4 5.2-4.4 3.3 0 5.4 1.9 5.4 4.8v9.2zm10.6-13.9v2.3h-1.1c-2.5 0-3.7 1.6-3.7 4.9v6.6h-2.4V7.9h2.1l.2 2.4c.5-1.5 1.9-2.5 3.6-2.5h1.3z" clip-rule="evenodd"/>
</svg>
