<svg xmlns="http://www.w3.org/2000/svg" viewBox="0 0 544 125">
    <path style="fill:#094270;fill-opacity:1;fill-rule:evenodd;stroke:none" d="M-31.596 480.153c0 10.966 7.249 23.949 24.255 23.949 14.96 0 24.937-11.279 24.937-24.924 0-14.197-10.598-22.85-24.566-22.85-17.13 0-24.626 13.954-24.626 23.825zm6.24-1.709c0-13.345 7.588-20.046 17.955-20.046 9.805 0 18.698 7.86 18.698 22.484 0 17.734-11.374 20.9-16.962 20.9-11.173 0-19.691-9.141-19.691-23.338" transform="translate(89.49 -430.928)"/>
    <path style="fill:#094270;fill-opacity:1;fill-rule:nonzero;stroke:none" d="M28.768 457.179h29.247l.061 7.55h-.864c-.11-.66-.27-1.643-.38-2.09-.59-2.343-1.944-2.785-7.641-2.901l-7.115-.125v25.963c0 6.263.052 11.075.31 13.221.188 1.768.567 3.055 2.422 3.35.84.136 1.666.213 2.478.246v.85H31.545v-.85c.592 0 1.745-.13 2.46-.304 1.402-.337 1.973-1.28 2.206-3.292.259-2.287.31-7.098.31-13.221v-25.963l-9.06.125c-4.333.067-5.41.596-6.33 1.95-.476.724-1.046 1.807-1.374 2.495 0 0-.837-.013-.847 0l2.126-8.042c1.603.548 4.89 1.038 7.732 1.038M330.129 483.077l-6.53-18.202-6.054 18.202h12.584zm-17.126 12.988c-.754 2.104-1.054 3.73-1.054 4.54 0 1.338.877 1.788 3.034 1.788v.85H302.3v-.85c.346 0 .883-.043 1.471-.125 2.637-.354 3.971-2.348 5.234-5.73 1.316-3.523 12.797-34.274 14.962-40.206h1.381c1.688 4.34 11.87 30.375 15.332 38.933 1.58 3.897 3.063 6.136 5.34 6.762.732.203 1.515.333 2.193.366v.85h-14.946v-.85c2.523-.125 3.323-.866 3.323-1.987-.006-.417-.129-.902-.343-1.466l-5.3-13.667h-14.213c-.592 1.71-2.844 8.27-3.732 10.792M258.481 476.612v-1.654c0-9.563.002-11.277.13-13.24.142-2.228.755-3.242 2.347-3.489a27.313 27.313 0 0 1 1.635-.187v-.856h-14.717v.85c.7 0 1.745.047 2.376.178 1.914.408 2.398 1.408 2.522 3.494.105 1.679.123 3.404.123 13.25v10.5c0 5.883-.003 10.748-.31 13.317-.267 2.258-.646 3.143-1.962 3.414-.573.119-1.481.204-2.023.204v.86h14.946v-.86a32.806 32.806 0 0 1-2.32-.247c-1.533-.199-2.166-.887-2.433-3.371-.217-2.05-.314-6.906-.314-13.317v-6.515h26.88v6.6c0 3.703-.029 10.896-.313 13.232-.272 1.955-.859 3.067-2.374 3.391-.606.136-1.312.227-1.832.227v.86h15.03v-.86c-.57-.039-1.494-.105-2.248-.247-1.64-.3-2.144-1.24-2.365-3.371-.312-2.57-.312-7.315-.312-13.2v-10.617c0-9.69.01-11.412.124-13.25.148-2.493 1.011-3.285 2.267-3.51a11.584 11.584 0 0 1 1.631-.162v-.85h-14.29v.85c.502 0 1.43.093 1.874.178 2.003.395 2.554 1.35 2.68 3.494.128 1.964.128 3.687.128 13.25v1.654h-26.88M414.242 502.393v.85h-15.677v-.85c3.268-.178 3.739-1.426 3.681-2.87-.077-2.16-1.29-31.314-1.29-31.314l-18.583 35.03-1.038.003-18.82-34.586c-.067 2.648-.745 26.835-.8 28.624a87.821 87.821 0 0 0-.04 2.921c0 1.038.573 1.62 1.55 1.886.744.2 1.746.304 2.432.304v.85h-12.321v-.85c.699 0 1.367-.057 1.94-.182 1.632-.364 2.317-1.973 2.484-5.056.09-1.69 1.889-32.974 2.31-39.973h2.174l20.762 38.2 19.969-38.2h2.098s2 35.34 2.19 38.2c.261 3.97 1.274 5.831 3.35 6.465 1.306.392 2.349.546 3.63.546M-38.574 457.182v.854c-.536 0-1.415.064-1.88.172-1.705.409-2.1 1.476-2.1 5.43l-.023 40.037h-2.202c-4.522-4.74-15.021-15.898-19.293-20.416-4.379-4.639-11.374-12.5-16.139-17.758l.811 29.458c.138 5.548.939 6.634 2.42 7.068.967.25 2.036.366 2.829.366v.85h-13.747v-.85c.797 0 1.875-.12 2.694-.366 1.366-.403 1.884-1.37 1.884-7.74l-.026-37.544h2.29c6.181 6.59 13.5 14.804 20.558 22.267 4.355 4.605 10.093 10.959 14.875 16.07l-.684-30.956c-.07-4.274-.665-5.358-2.417-5.783-.745-.183-1.947-.305-2.734-.305v-.854h12.884M185.611 457.182v.854c-.537 0-1.415.064-1.88.172-1.703.409-2.1 1.476-2.1 5.43l-.019 40.037h-2.204c-4.525-4.74-15.029-15.898-19.301-20.416-4.379-4.639-11.373-12.5-16.136-17.758l.809 29.458c.138 5.548.939 6.634 2.421 7.068.964.25 2.036.366 2.826.366v.85h-13.746v-.85c.797 0 1.875-.12 2.695-.366 1.366-.403 1.884-1.37 1.884-7.74l-.026-37.544h2.288c6.182 6.59 13.499 14.804 20.556 22.267 4.357 4.605 10.103 10.959 14.884 16.07l-.685-30.956c-.07-4.274-.664-5.358-2.418-5.783-.745-.183-1.945-.305-2.736-.305v-.854h12.887" transform="translate(89.49 -430.928)"/>
    <path style="fill:#094270;fill-opacity:1;fill-rule:evenodd;stroke:none" d="M120.577 485.576c0 6.64.105 11.634.313 13.326.178 1.464.5 2.25 1.079 2.691.767.586 2.178.8 4.152.8v.85h-16.433v-.85c.596 0 2.096-.13 2.76-.29 1.227-.285 1.955-1.127 2.264-3.226.25-1.717.31-6.72.31-13.301V474.85c0-6.639-.107-11.638-.313-13.328-.178-1.464-.503-2.255-1.08-2.694-.766-.585-2.178-.795-4.152-.795v-.851h16.433v.851c-.595 0-2.097.13-2.758.288-1.228.288-1.958 1.124-2.266 3.224-.252 1.717-.31 6.724-.31 13.305v10.726M230.332 487.707c0-4.918-.488-5.862-2.604-6.278a14.44 14.44 0 0 0-2.11-.182v-.852h14.039v.852c-.427.025-.972.074-1.708.182-1.583.24-2.149 1.335-2.279 3.474-.115 1.918-.124 3.597-.124 6.34v9.609c-2.473 1.762-8.452 3.25-13.962 3.25-4.72 0-13.62-.61-20.509-6.522-3.787-3.231-7.47-9.75-7.47-17.369 0-9.124 4.416-16.373 10.537-20.045 4.379-2.628 8.934-3.838 16.508-3.838 4.718 0 10.654 1.243 14.839 3.123v9.023h-.847c-1.242-7.062-6.526-9.894-15.77-9.894-10.81 0-19.526 6.701-19.526 19.498 0 8.596 4.115 14.342 6.492 16.881 3.83 4.084 10.47 6.52 16.176 6.52 3.198 0 6.338-.627 8.318-2.014v-11.758" transform="translate(89.49 -430.928)"/>
    <path style="fill:#094270;fill-opacity:1;fill-rule:nonzero;stroke:none" d="M176.618 525.785c-.484 0-1.435.029-1.827.117-.753.172-1.33.668-1.33 3.329l.002 27.412h-1.489c-2.774-2.826-9.55-9.83-13.498-13.905-3.753-3.867-7.875-8.401-10.293-11.056l.521 18.88c.085 3.477.531 4.128 1.378 4.398.593.184 1.56.294 2.45.294v1.104h-10.447v-1.104c1.114 0 1.895-.068 2.433-.287.702-.287 1.066-.895 1.066-4.852l-.02-25.434h1.599c3.145 3.314 9.556 9.934 14.207 14.834 3.036 3.194 6.819 7.272 9.425 10.09l-.443-20.04c-.043-2.72-.39-3.32-1.392-3.581-.481-.126-1.587-.2-2.33-.2v-1.108h9.986v1.109zm203.313-1.109v6.002h-1.002c-.175-3.144-1.279-3.659-5.202-3.659-3.303 0-4.916-.026-4.916-.026v17.241c0 4.72.068 7.674.206 8.892.133 1.167.642 1.788 1.529 1.959.464.099 1.596.167 2.079.167v1.104h-11.676v-1.104c.53 0 1.624-.093 2.082-.212.889-.234 1.193-.865 1.35-1.92.158-1.046.212-4.223.212-8.886v-17.241s-3.584.026-5.849.026c-2.683 0-3.393.383-3.99 1.232-.325.456-.816 1.482-.974 1.88h-1.028l1.557-6.41c2.061.617 4.185.955 6.072.955h19.55zm34.887 1.095c-.863 0-1.919.193-2.458.474-.926.48-1.548 1.09-3.105 3.727-1.107 1.867-5.659 9.634-7.338 12.6v6.475c0 .657.032 3.087.126 4.106.135 1.508.755 1.838 1.42 1.922.79.097 1.74.173 2.213.19v1.093h-11.484v-1.093c.905 0 1.918-.1 2.3-.216.704-.21.972-.797 1.08-1.896.109-1.12.129-3.449.129-4.106v-6.309c-1.832-3.084-7.052-11.591-8.285-13.385-2.342-3.413-3.165-3.582-5.45-3.582v-1.095h10.702v1.095c-1.661 0-2.1.169-2.1.624 0 .45.269.892.842 1.874.68 1.166 5.656 9.434 7.162 11.916 1.54-2.716 5.566-9.71 6.39-11.228.598-1.097.84-1.759.84-2.374 0-.566-.492-.811-1.86-.811v-1.096h8.876v1.096zm-92.382 29.36c-1.798 1.29-4.108 1.793-6.416 1.793-2.456 0-5.19-.776-6.87-2.117v-6.03h1.02c.019.546.166 1.463.36 2.152.648 2.321 2.61 3.788 6.272 3.788 3.813 0 5.477-2.666 5.324-5.13-.17-2.686-1.374-4.237-5.146-7.145l-1.982-1.524c-4.727-3.622-6.143-6.256-6.237-9.192-.161-4.902 3.627-7.75 8.618-7.75 2.296 0 5.076.687 6.316 1.441v5.436h-.998c-.093-1.033-.383-2.106-.783-2.752-.874-1.414-2.794-2-5.086-2-2.635 0-4.733 1.575-4.638 4.43.072 2.166 1.25 3.465 5.406 6.65l1.225.905c5.238 3.867 6.663 6.503 6.877 9.93.14 2.201-.685 5.234-3.262 7.114zm-84.543-29.346c-1.712 0-2.033.09-2.455.352-.546.331-1.117 1.223-2.146 3.652-1.15 2.723-9.693 23.596-11.197 27.135h-1.26l-11.475-28.025c-.878-2.205-1.331-2.583-2.677-2.942-.31-.082-1.345-.172-2.085-.172v-1.109h11.484v1.109c-1.993 0-2.528.199-2.528.79 0 .42.449 1.508 1.232 3.505l7.62 19.986c2.485-6.007 6.995-17.734 8.181-21.032.476-1.32.768-2.234.768-2.566 0-.497-.374-.683-2.274-.683v-1.109h8.812v1.109zm-128.382 28.122c-2.138-2.017-3.756-4.995-3.756-11.076v-6.046c0-6.397.01-7.585-.086-8.868-.1-1.391-.527-1.907-1.531-2.028a14.893 14.893 0 0 0-1.864-.118v-1.095h10.838v1.096c-.43 0-1.162.048-1.673.123-.806.115-1.15.737-1.257 2.022-.115 1.347-.081 2.47-.081 8.868v5.805c0 5.868 1.322 8.311 3.032 9.913 1.968 1.815 3.759 2.17 6.09 2.17 2.454 0 4.87-1.149 6.31-2.838 1.846-2.242 2.355-5.626 2.355-9.863v-5.176c0-6.404.003-7.707-.085-8.863-.095-1.27-.44-1.892-1.532-2.038a16.667 16.667 0 0 0-1.918-.11v-1.109h9.913v1.109c-.34 0-1.259.013-1.678.11-.842.2-1.222.836-1.278 2.038-.062 1.307-.087 2.46-.087 8.863v4.435c0 4.434-.488 9.524-3.97 12.555-3.108 2.711-6.35 3.138-8.866 3.138-1.435 0-5.795-.163-8.876-3.017zm149.233-27.023c2.502 0 3.137.476 3.137 3.431h1.048l.64-5.639h-20.13v1.109c.558 0 1.588.066 1.922.11 1.15.16 1.5.507 1.59 2.038.084 1.314.084 2.46.084 8.863v7.44c0 3.929-.055 7.156-.207 8.886-.088 1.008-.229 1.648-1.19 1.946-.306.093-1.37.186-1.843.186v1.104h19.964l.776-5.71h-1.15c-.272 1.556-.87 2.658-1.845 3.067-.847.352-2.086.506-3.89.506-4.014 0-6.221-.473-6.332-3.048-.045-.856-.057-5.623-.057-7.02v-3.645h6.986c2.789 0 2.897.422 2.897 3.152h1.17l.728-7.742h-1.168c-.327 1.85-.57 2.343-2.915 2.343h-7.696v-11.416c.938.006 6.926.039 7.48.039zm84.177 17.352c0 4.72.071 7.673.204 8.892.113.985.502 1.777 1.478 1.958.462.1 1.648.168 2.134.168v1.104h-11.682v-1.104c.462 0 1.78-.103 2.221-.212.815-.204 1.038-.71 1.22-1.92.156-1.046.203-4.223.203-8.886v-7.44c0-4.72-.074-7.673-.204-8.886-.11-.988-.506-1.773-1.476-1.964-.464-.095-1.652-.161-2.134-.161v-1.109h11.677v1.109c-.453 0-1.778.097-2.219.208-.814.203-1.037.705-1.218 1.917-.153 1.053-.204 4.23-.204 8.886v7.44zm-148.572 0c0 4.72.07 7.673.207 8.892.11.985.503 1.777 1.472 1.958.464.1 1.652.168 2.137.168v1.104h-11.68v-1.104c.456 0 1.777-.103 2.22-.212.81-.204 1.036-.71 1.218-1.92.159-1.046.207-4.223.207-8.886v-7.44c0-4.72-.072-7.673-.207-8.886-.11-.988-.503-1.773-1.473-1.964-.465-.095-1.653-.161-2.135-.161v-1.109h11.678v1.109c-.457 0-1.78.097-2.221.208-.815.203-1.034.705-1.216 1.917-.156 1.053-.207 4.23-.207 8.886v7.44zm88.086-3.825c.787.411 2.495.641 4.347.641.989 0 2.072-.122 2.949-.723 1.333-.896 2.404-2.825 2.404-5.886 0-5.002-2.652-7.775-6.906-7.775-1.25 0-2.446.119-2.811.23l.016 13.513zm-.01 2.683.01.976c0 4.37.049 7.778.208 9.072.146 1.37.602 1.87 1.391 1.958.522.06 1.128.116 1.562.165v1.093h-10.445v-1.093c.56 0 1.252-.061 1.674-.16.803-.183 1.219-.548 1.41-1.97.208-1.595.205-4.566.205-8.899v-7.44c0-6.702.002-7.636-.081-8.863-.09-1.24-.463-1.885-1.534-2.038-.48-.064-1.102-.11-1.98-.11v-1.122h10.596c2.648 0 5.557.241 7.873 1.876 1.103.779 3.04 2.831 3.04 5.818 0 3.791-1.56 6.6-4.951 9.485 1.504 2.522 4.727 7.526 6.753 10.433 1.156 1.658 2.451 2.54 4.774 2.855.562.08 1.156.124 1.68.124v1.104h-8.654c-.561-1.347-1.376-2.425-2.773-4.702a750.684 750.684 0 0 0-5.295-8.507l-5.462-.055M-62.31 524.676v6.002h-1.002c-.176-3.144-1.28-3.659-5.201-3.659-3.306 0-4.92-.026-4.92-.026v17.241c0 4.72.073 7.674.209 8.892.131 1.167.64 1.788 1.527 1.959.465.099 1.597.167 2.083.167v1.104h-11.681v-1.104c.53 0 1.626-.093 2.085-.212.892-.234 1.196-.865 1.352-1.92.155-1.046.21-4.223.21-8.886v-17.241s-3.585.026-5.855.026c-2.676 0-3.386.383-3.986 1.232-.325.456-.817 1.482-.972 1.88h-1.03l1.557-6.41c2.058.617 4.184.955 6.075.955h19.548zm139.87 0v6.002h-1c-.176-3.144-1.278-3.659-5.201-3.659-3.308 0-4.92-.026-4.92-.026v17.241c0 4.72.075 7.674.208 8.892.134 1.167.64 1.788 1.526 1.959.468.099 1.6.167 2.086.167v1.104H58.577v-1.104c.529 0 1.625-.093 2.087-.212.89-.234 1.194-.865 1.351-1.92.154-1.046.205-4.223.205-8.886v-17.241s-3.581.026-5.848.026c-2.679 0-3.39.383-3.99 1.232-.324.456-.816 1.482-.972 1.88h-1.03l1.56-6.41c2.055.617 4.184.955 6.074.955H77.56zm-33.315 1.109c-.481 0-1.434.029-1.82.117-.759.172-1.336.668-1.336 3.329l.006 27.412h-1.493c-2.773-2.826-9.547-9.83-13.493-13.905-3.756-3.867-7.877-8.401-10.297-11.056l.522 18.88c.086 3.477.529 4.128 1.38 4.398.589.184 1.556.294 2.448.294v1.104H9.713v-1.104c1.117 0 1.894-.068 2.435-.287.705-.287 1.065-.895 1.065-4.852l-.02-25.434h1.6c3.145 3.314 9.56 9.934 14.21 14.834 3.036 3.194 6.816 7.272 9.422 10.09l-.443-20.04c-.043-2.72-.385-3.32-1.391-3.581-.48-.126-1.587-.2-2.329-.2v-1.108h9.983v1.109zm-49.554 1.099c2.501 0 3.137.476 3.137 3.431h1.046l.64-5.639h-20.113v1.109c.554 0 1.584.066 1.92.11 1.146.16 1.493.507 1.585 2.038.085 1.314.085 2.46.085 8.863v7.44c0 3.929-.057 7.156-.207 8.886-.09 1.008-.225 1.648-1.187 1.946-.308.093-1.394.186-1.867.186v1.104H-.294l.776-5.71H-.67c-.27 1.556-.866 2.658-1.842 3.067-.851.352-2.088.506-3.891.506-4.015 0-6.22-.473-6.331-3.048-.045-.856-.057-5.623-.057-7.02v-3.645h6.984c2.791 0 2.898.422 2.898 3.152h1.17l.727-7.742h-1.167c-.331 1.85-.574 2.343-2.915 2.343h-7.695v-11.416c.934.006 6.922.039 7.48.039zm-41.968 13.527c.787.411 2.495.641 4.346.641.99 0 2.073-.122 2.945-.723 1.338-.896 2.409-2.825 2.409-5.886 0-5.002-2.654-7.775-6.908-7.775-1.249 0-2.448.119-2.813.23l.02 13.513zm-.01 2.683.01.976c0 4.37.05 7.778.207 9.072.145 1.37.603 1.87 1.393 1.958.519.06 1.123.116 1.56.165v1.093H-54.56v-1.093c.557 0 1.25-.061 1.675-.16.803-.183 1.22-.548 1.407-1.97.208-1.595.205-4.566.205-8.899v-7.44c0-6.702.003-7.636-.084-8.863-.082-1.24-.458-1.885-1.532-2.038a14.778 14.778 0 0 0-1.973-.11v-1.122h10.59c2.65 0 5.557.241 7.876 1.876 1.105.779 3.04 2.831 3.04 5.818 0 3.791-1.562 6.6-4.952 9.485 1.5 2.522 4.725 7.526 6.75 10.433 1.158 1.658 2.453 2.54 4.778 2.855.557.08 1.155.124 1.676.124v1.104h-8.652c-.562-1.347-1.38-2.425-2.774-4.702a793.67 793.67 0 0 0-5.291-8.507l-5.465-.055M79.24 459.613l-7.115.125c-5.697.116-7.052.558-7.64 2.901-.11.447-.273 1.43-.38 2.09h-.866l.063-7.55h37.953v7.486h-.804c-.11-.657-.25-1.623-.361-2.066-.587-2.345-1.962-2.745-7.66-2.861l-7.633-.125v25.963c0 6.263.049 11.075.308 13.221.187 1.768.564 3.078 2.42 3.35.873.13 1.72.217 2.374.246v.85H74.16v-.85c.624 0 1.882-.138 2.565-.304 1.402-.337 1.973-1.28 2.205-3.292.26-2.287.31-7.098.31-13.221v-25.963" transform="translate(89.49 -430.928)"/>
    <path style="fill:#ec0b62;fill-opacity:1;fill-rule:evenodd;stroke:none" d="M438.592 430.928c-11.65 0-16.61 1.436-16.61 1.436v19.79c0 15.33 16.61 18.246 16.61 18.246s16.613-2.917 16.613-18.245v-19.791s-4.992-1.436-16.613-1.436" transform="translate(89.49 -430.928)"/>
    <path style="fill:#fff;fill-opacity:1;fill-rule:nonzero;stroke:none" d="M428.848 451.561v-6.904l3.307 6.904h2.239V441.912H432.517v.112l.022 6.961-3.324-7.073h-2.225v9.649h1.857M439.814 451.561v-8.048h2.218v-1.6h-6.485v1.6h2.238v8.048h2.029M443.123 448.138c0 2.256 1.285 3.555 3.515 3.555 2.22 0 3.496-1.299 3.496-3.555v-6.226h-2.036v6.226c0 1.644-.593 1.988-1.46 1.988-.925 0-1.49-.344-1.49-1.988v-6.226h-2.025v6.226" transform="translate(89.49 -430.928)"/>
</svg>
