<svg xmlns="http://www.w3.org/2000/svg" height="189.627" width="613.933">
    <path d="M2.552 171.645c.002 0 .003.001.005.003.623.055 1.243.168 1.842.402.456.177.877.412 1.273.675.074.004.148.015.223.015a5.33 5.33 0 0 0 4.663-2.74c1.322-2.37.622-5.297-1.509-6.87a9.42 9.42 0 0 1-.726-.58 5.232 5.232 0 0 1-1.453-6.586c.086-.165.198-.31.3-.463-.663.007-1.678-.396-2.002-.533l-.019-.008-.09-.04a5.335 5.335 0 0 1-2.445-5.577s3.767-19.367 3.806-19.378l-.039.01-.037-.008-.432.009c-.84-.01-2.507-.865-3.336-2.96a5.032 5.032 0 0 1 3.273-6.854c1.053-.29 1.867-.575 2.653-.798v-.003l6.245-31.738.221-1.12 2.033-10.327-2.244-2.477-1.39-.925-4.662 1.688c-.72.247-1.294.395-2.014.395a4.89 4.89 0 1 1 0-9.778c.127 0 .245.028.369.037V65.1l-.02-.02h-.03l-.658-.734-.724-.77a4.674 4.674 0 0 1 .205-6.597c.04-.037.083-.066.123-.1L0 53.595v118.33a6.537 6.537 0 0 1 2.552-.28" fill="#231f20"/>
    <path d="m24.454 126.212-.905.511-.858.486a8.43 8.43 0 0 0-2.761 2.503 8.408 8.408 0 0 0-3.564 1.081l-11.38 6.477-2.372 12.073a5.335 5.335 0 0 0 2.445 5.577l.09.04.02.008c.323.137 1.338.54 2.002.533.167-.246.35-.477.555-.692.106-.112.203-.233.318-.335.051-.047.102-.095.155-.14a4.67 4.67 0 0 1 .512-.376l.024-.013a4.623 4.623 0 0 1 2.436-.726l8.386-4.782.047-.158.094-.326.226-.766 1.611-5.499.944-3.221.783-2.668.513-1.755 2.617-8.928v.002c0-.002-.984.556-1.938 1.094" fill="#ed1c24"/>
    <path d="M63.573 77.6a5.293 5.293 0 0 0-1.827-.325c-.606 0-1.2.115-1.762.313a4.05 4.05 0 0 0-1.986-.498 4.094 4.094 0 0 0-3.513 2.078 4.068 4.068 0 0 0-.499 1.741c-.029.452.004.91.13 1.36a4.045 4.045 0 0 0 1.93 2.454l2.64 1.44c2.12-.47 4.455-.915 7.039-1.37l9.728-1.526-.143-1.386-11.737-4.28" fill="#fff200"/>
    <path d="M52.497 74.613a4.054 4.054 0 0 1-1.834 4.593l3.323 1.703a4.068 4.068 0 0 1 .499-1.74 4.094 4.094 0 0 1 3.513-2.079 4.05 4.05 0 0 1 1.986.498 5.305 5.305 0 0 1 1.762-.313c.607 0 1.225.104 1.827.326l11.737 4.28-.165-1.6c-.043-.433-.088-.863-.132-1.292l-4.848-1.175c-1.005-.243-6.833-1.657-8.741-2.123a8.427 8.427 0 0 1-5.456-4.228 8.428 8.428 0 0 1-.985-3.45l-.527-.196a7.776 7.776 0 0 1-.174.28c-.034.05-.079.091-.113.142-.288.407-.639.864-.918 1.15a8.533 8.533 0 0 1-3.513 2.17c-.055.017-.113.028-.168.044l1 .551a4.06 4.06 0 0 1 1.927 2.459m-10.9 1.917 4.97 2.737-4.975-2.75a.107.107 0 0 1 .005.012" fill="#fff"/>
    <path d="M560.277 61.57s-.786-.064-.861-.075c-.463 3.746-3.401 6.853-7.319 7.35l-.133.019c.105.4.17.812.167 1.238l-.012.232c-.011.134-.02.268-.04.4l3.441-2.278a4.05 4.05 0 0 1 1.713-.601 4.596 4.596 0 0 1 1.731-1.267l3.933-1.626a8.504 8.504 0 0 1-2.62-3.393" fill="#ed1c24"/>
    <path d="M596.179 122.17a4.64 4.64 0 0 1-3.17 1.245c-.069 0-2.096 3.437-2.096 3.437l5.183 3.809c.212-.137.433-.26.668-.364.136-.057.27-.117.407-.174l-.348-.375a4.677 4.677 0 0 1 .261-6.596c1.307-1.203 3.259-1.464 4.881-.857l-.365-.932-3.961-2.993c.014.185.041.368.033.555a4.627 4.627 0 0 1-1.493 3.245m-206.974-11.318a5.326 5.326 0 0 1-1.694.279c-.759 0-1.53-.164-2.26-.505l-6.762-3.17-1.962 3.167c.005.003-1.148 1.74-3.11 1.312l-.272.738c.043.007.084.012.127.02 3.256.482 4.897 3.185 4.441 6.097a5.335 5.335 0 0 1-6.094 4.442l-2.219-.349-12.727-2.088c-.289 4.99-2.972 17.968-2.946 17.902l-.282 11.96a4.613 4.613 0 0 1 2.71.945c.214.16.414.34.605.538 0 0 8.001 8.418 9.903 10.405.309-.257 3.528-1.866 3.528-1.866a4.862 4.862 0 0 1 3.738-.203 4.859 4.859 0 0 1 2.79 2.5 4.908 4.908 0 0 1-.376 4.882 4.868 4.868 0 0 1-1.922 1.645l-.202.098-1.646.788c.046.504.042 1.012-.073 1.507a4.767 4.767 0 0 1-1.94 2.86 4.68 4.68 0 0 1-1.85.768 4.768 4.768 0 0 1-3.745-.878c-.096-.07-.177-.158-.268-.237l-8.012 3.972.723 7.19a53.499 53.499 0 0 0 12.052-6.591 53.103 53.103 0 0 0 3.863-2.97 57.216 57.216 0 0 0 6.634-6.836 55.864 55.864 0 0 0 1.862-2.5c.292-.285 2.565-3.48 4.617-7.207.51-.966.985-1.927 1.424-2.883.253-.507.49-1.032.73-1.552.102-.248.194-.49.285-.732.001.001.004.001.005.003.445-.97.836-1.88 1.201-2.772 1.843-4.747 3.23-9.927 4.216-15.236.054-.296.106-.594.158-.892l.136-.802a109.25 109.25 0 0 0 .57-3.718c-.005-.038.356-2.967.447-3.78l-7.623-1.177a5.448 5.448 0 0 1 .836-10.828l7.366 1.09-.024.982a.01.01 0 0 1 .008.003c.008-.297.012-.589.016-.883.004-.18.004-.357.006-.534l-4.281-2.008a5.316 5.316 0 0 1-2.707-2.896m6.416 16.128h-.001l-.004.05.005-.05" fill="#231f20"/>
    <path d="M277.968 110.946c-.924-.008-1.883-.258-2.676-.792l-3.641-2.442-3.216 6.895-.503 1.077 8.981 5.978 3.702-7.932-.896-.602a4.64 4.64 0 0 1-1.751-2.182" fill="#00adef"/>
    <path d="m280.495 102.407-8.856-5.945a4.645 4.645 0 0 0-2.598-.795c-.606 0-1.182.149-1.729.368-.856.343-1.619.908-2.15 1.7a4.623 4.623 0 0 0-.703 3.5 4.619 4.619 0 0 0 1.978 2.974l8.855 5.945c.793.534 1.752.784 2.676.792a4.64 4.64 0 0 0 1.75 2.182l.897.602 2.884 1.937 3.126 2.102a4.72 4.72 0 0 0 1.098.332 4.72 4.72 0 0 0 3.445-.77 4.46 4.46 0 0 0 .753-.652 4.668 4.668 0 0 0 1.273-3.146 4.697 4.697 0 0 0-2.037-3.944s-6.452-4.333-6.561-4.393a4.722 4.722 0 0 0-2.356-.61 4.692 4.692 0 0 0-1.745-2.18" fill="#fff"/>
    <path d="m275.645 99.152 4.85 3.255a4.692 4.692 0 0 1 1.745 2.18 4.722 4.722 0 0 1 2.356.609l2.328-4.995-10.332-3.08-.947 2.03m70.131 79.441a4.633 4.633 0 0 1-.248-3.563 4.636 4.636 0 0 1 2.343-2.696l7.789-3.933a8.42 8.42 0 0 0-1.556-3.95 8.454 8.454 0 0 0-7.677-3.418c-.176.019-.34.068-.511.095-1.721.28-3.256 1.043-4.447 2.173a8.445 8.445 0 0 0-2.606 6.997l.649 6.424c.297-.057.597-.104.9-.104a4.65 4.65 0 0 1 4.173 2.571c.167.33.278.675.36 1.021 1.008.367 2.016.734 3.024 1.099l.178-.495a4.66 4.66 0 0 1-2.371-2.221M344.528 70.81l.064.035.032-.015-9.025-5.227-2.531 1.117-4.403 1.942.516 5.319c2.659.005 5.083.333 7.294.939l8.053-4.11" fill="#00adef"/>
    <path d="M260.71 170.464a5.312 5.312 0 0 0-.226-3.883 8.42 8.42 0 0 0 .216-.125 4280.93 4280.93 0 0 0 10.543 4.56 5.335 5.335 0 0 0 7.008-2.79c.098-.229.177-.46.241-.694.003-.01 8.05 2.579 8.05 2.579a4.094 4.094 0 0 0 2.103.172 4.102 4.102 0 0 0 3.114-2.64 4.064 4.064 0 0 0-.155-3.122 4.066 4.066 0 0 0-2.316-2.098l-21.193-7.36a4.102 4.102 0 0 0-2.103-.17 4.098 4.098 0 0 0-3.113 2.644 4.05 4.05 0 0 0-.139 2.2l-1.932-.944a4.075 4.075 0 0 0 1.155-1.68 4.069 4.069 0 0 0-.156-3.118l11.612-24.851-.968-.645-5.808-3.867-1.002 1.835a5.385 5.385 0 0 0-.63 2.06c-.03.328-.03.656 0 .979a5.328 5.328 0 0 0-2.885 3.143l-3.023 6.846v31.824l1.146.56.46-1.415" fill="#ed1c24"/>
    <path d="M97.303 123.41s3.898-11.403 3.915-11.447c-.017.044-2.467 7.198-2.467 7.198l-5.338 2.333.813 1.969a4.66 4.66 0 0 1 2.16-.267c.314.037.62.116.917.215" fill="#fff"/>
    <path d="M130.9 92.168a4.817 4.817 0 0 1-2.81 2.81l.513.732a5.303 5.303 0 0 1 3.661.343c.122.06.243.117.365.174a44.895 44.895 0 0 1 1.63-3.546c-.042.081-.086.16-.126.24l-3.234-.753" fill="#fff200"/>
    <path d="M105.94 101.314c-.27.176-.565.34-.897.483a4.8 4.8 0 0 0 .882-.47c.005-.003.009-.009.015-.013m14.228 18.75c.925-.397 1.851-.79 2.777-1.186a4.678 4.678 0 0 1-1.961-3.483 4.676 4.676 0 0 1 .467-2.372l2.268-4.624 2.59-1.106a4.648 4.648 0 0 1 1.824-.372c.54 0 1.091.12 1.583.294a4.639 4.639 0 0 0-1.583-.295c-.628 0-1.241.125-1.825.372l-3.231 1.38a5.484 5.484 0 0 0-.155-.067 5.315 5.315 0 0 1-.107-3.901 5.329 5.329 0 0 1 .969-1.664 5.316 5.316 0 0 1-2.695-.51l-1.106-.532-2.749-1.32a5.317 5.317 0 0 1-.319 1.888 5.306 5.306 0 0 1-2.012 2.59l-.005.003c-.859.584-1.88.91-2.935.92-.012.002-.026.005-.038.005h-.026a5.365 5.365 0 0 1-1.817-.32c-2.751-1-5.501-1.998-8.252-2.995.916-.271 1.834-.54 2.75-.81.16-.047.313-.102.463-.162-.148.064-10.22 3.025-10.22 3.025.005.046.318 3.341.301 3.33l.05.033 6.044 3.778a4.91 4.91 0 0 1 6.227-2.897 4.946 4.946 0 0 1 3.212 3.745c.163.842.093 1.72-.191 2.541l-6.68 19.613h.001l2.703-7.936.421-1.238 9.607-4.41c.34-.301.637-.646.875-1.031.927.19 1.9.09 2.775-.286m-3.751-20.139.554-1.626 2.434-7.147z" fill="#fff"/>
    <path d="m215.117 164.032 4.019 2.072.627-.8-3.33-1.847c-.41.25-.846.46-1.316.575m5.168.609h-.008c-.064.084-.126.167-.192.25l.2-.25m-1.252 1.592c-.088.108-.174.217-.253.318.05-.06.141-.176.253-.318" fill="#231f20"/>
    <path d="m34.215 84.374-.19-.082a4.065 4.065 0 0 1-1.89.337 4.114 4.114 0 0 1-1.994-.69l-2.478-1.65a4.777 4.777 0 0 1-1.09.476 4.61 4.61 0 0 1-1.33.213c-.141 0-.277-.031-.417-.043l-9.858 3.568-.22 1.12 15.228 6.538c.69.299 1.41.44 2.117.44a5.35 5.35 0 0 0 3.568-1.368l.01-.007a5.31 5.31 0 0 0 1.319-1.837 5.286 5.286 0 0 0 .345-3.02 4.049 4.049 0 0 1-.674-1.569c-.018-.095-.015-.189-.026-.284a5.294 5.294 0 0 0-2.42-2.142" fill="#fff200"/>
    <path d="m534.004 63.087 1.832 1.94a4.684 4.684 0 0 0 3.393 1.46c.819 0 1.604-.226 2.3-.624a4.653 4.653 0 0 0-.066 4.326c.197.393.432.767.749 1.103l1.83 1.94a4.68 4.68 0 0 0 1.574 1.087c.227.097.467.163.707.223l2.094-1.387 3.662-2.422c.02-.13.029-.265.04-.399l.012-.232a4.682 4.682 0 0 0-.167-1.238 4.619 4.619 0 0 0-1.103-2.026l-1.833-1.94c-.43-.456-.952-.8-1.519-1.035a4.887 4.887 0 0 0-2.081-.37c-.755.037-1.501.227-2.135.575a4.607 4.607 0 0 0 .6-2.114c.014-.45-.06-.885-.17-1.31a4.606 4.606 0 0 0-1.103-2.026l-1.832-1.94c-.685-.723-1.596-1.157-2.557-1.322h-.003c-1.924 1.668-3.513 3.43-5.384 5.429.081.411.216.815.41 1.198.198.393.434.768.75 1.104" fill="#00a650"/>
    <path d="m496.928 116.423 12.808-8.396a4.099 4.099 0 0 0 1.419-1.562 4.094 4.094 0 0 0-.192-4.078 4.072 4.072 0 0 0-2.567-1.782 4.078 4.078 0 0 0-3.076.554l-13.265 8.704v9.784l.196-.16 4.677-3.064" fill="#00adef"/>
    <path d="m338.685 181.143-3.866-1.364c-.14-.052-.286-.083-.43-.116-.157-.022-.314-.044-.473-.05a4.02 4.02 0 0 0-.841.027 4.085 4.085 0 0 0-3.162 2.582 4.059 4.059 0 0 0 .1 3.123 4.05 4.05 0 0 0 2.275 2.137l5.05 1.86-.158.003.03.012c6.031-.09 11.755-1.01 16.753-2.587l-9.364-3.449-5.914-2.178" fill="#ed1c24"/>
    <path d="M184.421 180.405a4.096 4.096 0 0 0-3.72 1.682 4.055 4.055 0 0 0-.706 3.042 4.042 4.042 0 0 0 1.557 2.574c3.624-.752 6.992-1.663 10.217-2.808l-5.373-3.747a4.051 4.051 0 0 0-1.975-.743m7.499 4.439-.004-.003-.09.035c.031-.01.063-.02.094-.032M121.925 53.472l-.002.005.08-.045-.078.04m-1.772 7.668a4.949 4.949 0 0 0 3.212 3.74 4.913 4.913 0 0 0 3.77-.215 4.884 4.884 0 0 0 2.513-2.814l4.581-13.655c-4.346 1.41-8.404 3.144-12.154 5.199l-1.734 5.202a4.892 4.892 0 0 0-.188 2.542" fill="#00adef"/>
    <path d="M19.943 116.46a5.294 5.294 0 0 1 3.474-.167 5.333 5.333 0 0 1 3.625 6.615l-.424 1.45 7.361-2.063.755-.213a4.806 4.806 0 0 0 2.196-1.326 4.297 4.297 0 0 0 1.405-2.43l-3.399-2.594a4.403 4.403 0 0 1-1.375-5.153c.156-.388.348-.763.614-1.106a4.47 4.47 0 0 1 3.568-1.703c-.558-.228-1.146-.378-1.746-.378a4.661 4.661 0 0 0-4.116 2.465 4.622 4.622 0 0 0-.44 3.108l-.428.122-.92.26-10.098 2.853-.052.26m-2.787-54.013c-.07 0-.134-.021-.202-.024a4.091 4.091 0 0 1-1.842-.5l-9.156-5.045c-.04.035-.084.064-.123.101a4.674 4.674 0 0 0-.205 6.597l.724.77.658.733h.03l.02.02v.017c-.124-.009-.242-.037-.369-.037a4.89 4.89 0 1 0 0 9.778c.72 0 1.295-.148 2.014-.395l4.663-1.688-1.899-1.263c-.046-.031-.082-.073-.126-.106a4.06 4.06 0 0 1-.962-5.563 4.098 4.098 0 0 1 3.675-1.777c.712.05 1.4.29 1.993.69l1.12.746 5.732 3.813c1.05-.375 2.307-.819 3.493-1.24a4.022 4.022 0 0 1-1.401-2.085 4.068 4.068 0 0 1 .367-3.102 4.096 4.096 0 0 1 3.515-2.08c.714-.01 1.42.172 2.044.521l4.016 2.213c.352-.753.52-1.577.442-2.408a4.672 4.672 0 0 0-.159-.825c-.03-.106-.053-.213-.09-.32a4.679 4.679 0 0 0-4.393-3.091c-.3 0-.595.036-.889.094a4.553 4.553 0 0 0-.687.182l-.144.052-1.22.438-7.047 2.528c-.03.058-.046.12-.078.178a4.096 4.096 0 0 1-3.514 2.078M39.185 80.04l-.779-.284-2.091-.766-.147-.055c.118.275.215.559.273.86a4.058 4.058 0 0 1-.631 3.058 4.051 4.051 0 0 1-1.785 1.44l.19.081a5.294 5.294 0 0 1 2.42 2.142c-.12-.978.097-1.95.654-2.776a4.061 4.061 0 0 1 1.491-1.309l.663-2.295-.258-.095m151.319 59.686a27.683 27.683 0 0 0 1.435-3.51 40.196 40.196 0 0 1-1.435 3.51m199.273-38.76L374.22 93.68a5.32 5.32 0 0 0-5.092.31 5.104 5.104 0 0 0-.877.688 5.14 5.14 0 0 0-.724.867 5.305 5.305 0 0 0-.841 3.76 5.33 5.33 0 0 0 3.013 4.037l8.79 4.114 2.047-4.648 5.33 3a5.29 5.29 0 0 0 2.618.69 5.352 5.352 0 0 0 3.393-1.213 5.356 5.356 0 0 0 1.256-1.498l.06-.11a5.058 5.058 0 0 0-.709.186 5.307 5.307 0 0 0-2.707-2.896m-49.365 75.65c-.303 0-.603.047-.9.104l-5.596 2.891c.159.007.316.03.473.05.266.038.528.091.784.186l3.512 1.295 5.914 2.178a4.693 4.693 0 0 0 .346-3.112 4.637 4.637 0 0 0-.36-1.02 4.65 4.65 0 0 0-4.173-2.572m119.204-17.501c-.664-.347-2.735-1.436-3.107-1.63a4.621 4.621 0 0 0-1.268-.449 4.58 4.58 0 0 0-1.09-.792c-2.866-1.506-5.731-3.018-8.595-4.528l-.837-.44a4.719 4.719 0 0 0-1.055-.392 4.658 4.658 0 0 0-1.696-.113 4.694 4.694 0 0 0-1.964-1.985l-9.423-4.99a4.663 4.663 0 0 0-6.31 1.937 4.663 4.663 0 0 0-.044 4.258c.066-.103.118-.21.193-.308a4.098 4.098 0 0 1 3.79-1.521 4.092 4.092 0 0 1 1.942.826l17.775 13.69c.462.364.824.816 1.088 1.321l1.442.785c.202.07.408.13.619.17.201.198.428.37.664.527 1.14.62 2.28 1.237 2.61 1.411a5.719 5.719 0 0 1-.378-2.005c0-3.148 2.513-5.693 5.644-5.772m-24.006-45.593c-.065 0-.125-.017-.189-.02 0 0-2.008 5.586-3.069 8.555 1.323.208 2.647.415 3.97.625 1.822.286 3.646.575 5.467.862a5.336 5.336 0 0 1 4.348 3.987l5.715 2.695c0-.255.576-10.036.576-10.036l4.083-4.435-.039-1.542a4.678 4.678 0 0 1-2.695.501 4.698 4.698 0 0 1-2.242-.897l-2.132-1.592a4.635 4.635 0 0 1-1.828-3.07 4.636 4.636 0 0 1 .253-2.265l-2.308-1.538-7.013 7.002a4.058 4.058 0 0 1-2.896 1.168m19.913-20.537c.084.563.087 1.14-.07 1.705a4.092 4.092 0 0 1-1.073 1.816l-2.968 2.963 4.764 3.172-.605-9.217-.048-.439M32.057 174.272a4.625 4.625 0 0 0 3.788-2.136 4.587 4.587 0 0 0 .664-1.897l-3.96 1.773-3.252 1.457c.16.093.318.182.478.272.986.554 2.282.531 2.282.531M557.233 67.855c.45-.055.906-.05 1.362.048.41.09.786.255 1.142.457l3.131-3.369c-1.301.533-2.604 1.064-3.904 1.597a4.596 4.596 0 0 0-1.73 1.267m46.446 55.56a4.409 4.409 0 0 0-1.715-1.12c-1.622-.607-3.574-.346-4.881.857a4.677 4.677 0 0 0-.261 6.596l.348.375c-.136.057-.271.117-.407.174a4.756 4.756 0 0 0-.668.364l7.697 5.655c.298.224.544.492.767.777 1.685-.729 3.368-1.461 5.055-2.19-.739-1.21-.846-2.76-.116-4.095l1.146-2.107a3.207 3.207 0 0 1-.15-.059l-.042-.023c-.012-.004-.024-.006-.036-.012l-.017-.018c-.285-.163-1.201-.697-1.6-1.086a5.999 5.999 0 0 1-1.257-1.732l-1.428.48-2.435-2.836M2.552 171.646c.002 0 .003 0 .005.002-.002-.002-.003-.003-.005-.003v.001" fill="#fff"/>
    <path d="M6.567 129.22a31234.937 31234.937 0 0 1 1.935-9.856c-.786.223-1.6.507-2.654.798-2.677.742-4.235 3.509-3.507 6.19.064.23.143.45.235.664.829 2.095 2.495 2.95 3.336 2.96l.432-.01h.076l.147-.747" fill="#fff200"/>
    <path d="M423.233 116.05a4.07 4.07 0 0 1 2.902-1.167 4.074 4.074 0 0 1 2.874 1.223 4.106 4.106 0 0 1 1.016 3.955c-.156.558-.456 1.057-.828 1.5l3.155.497c1.061-2.969 3.07-8.555 3.07-8.555a4.072 4.072 0 0 1-2.689-1.2 4.1 4.1 0 0 1-1.017-3.953 4.07 4.07 0 0 1 1.07-1.818l5.8-5.793-1.817-1.21a4.058 4.058 0 0 1-1.716-2.608 4.06 4.06 0 0 1 .628-3.061 4.075 4.075 0 0 1 1.551-1.348l-2.333-1.879a4.045 4.045 0 0 1-.698 2.34 4.099 4.099 0 0 1-3.674 1.778 4.117 4.117 0 0 1-1.995-.693l-7.69-5.119v26.684l1.917.901.474-.474" fill="#231f20"/>
    <path d="M456.708 27.588a8.389 8.389 0 0 1-2.728 2.543c-.608.354-1.219.706-1.828 1.06h8.615v-5.04c-.168.1-.336.201-.506.3a8.468 8.468 0 0 1-3.553 1.137" fill="#00adef"/>
    <path d="M458.068 112.876a4.665 4.665 0 0 1-1.596 1.338l.039 1.542-4.083 4.435s-.576 9.781-.576 10.036v.001c.244.115.39.183.401.19a5.337 5.337 0 0 1 6.072-4.264l2.442.388V111.26a4.056 4.056 0 0 1-2.535 1.346c-.059.088-.1.185-.164.27M453.98 30.13a8.389 8.389 0 0 0 2.728-2.542 8.468 8.468 0 0 0 3.553-1.137c.17-.099.338-.2.506-.3V.079h-39.924V31.19h31.309c.61-.354 1.22-.706 1.828-1.06m-28.143 49.726a5.146 5.146 0 1 1 10.183-1.053c.804.221 1.55.644 2.136 1.252 1.383 1.434 5.328 5.073 5.328 5.073.768.64 1.412 1.29 1.761 2.172a4.748 4.748 0 0 1 2.688.775l2.478 1.612a4.123 4.123 0 0 1 1.153-.173c1.09.011 2.11.446 2.875 1.224.606.62.958 1.414 1.085 2.248l.048.44.605 9.216 3.848 2.562c.28.19.522.42.742.667V89.852a4.09 4.09 0 0 1-1.396.245 4.055 4.055 0 0 1-2.875-1.22 4.086 4.086 0 0 1 .052-5.77l4.136-4.165.083-.084V48.341l-39.924.047v30.748l6.446 4.29a5.124 5.124 0 0 1-1.452-3.57" fill="#231f20"/>
    <path d="M446.137 127.532a5.336 5.336 0 0 0-4.348-3.987c-1.821-.287-3.645-.576-5.468-.862-1.322-.21-2.646-.417-3.969-.625l-3.155-.496c-.085.103-.15.22-.245.315l-4.928 4.919c2.021.705 4.045 1.41 6.065 2.121.339.118.666.256.98.412a5.332 5.332 0 0 1 7.584-5.326l7.484 3.529" fill="#fff200"/>
    <path d="M453.983 142.024a5.398 5.398 0 0 1-.391-.807 5.31 5.31 0 0 1-3.953-.238c-5.178-2.444-10.354-4.884-15.532-7.324a5.344 5.344 0 0 1-3.037-4.326 8.319 8.319 0 0 0-.98-.412c-2.02-.71-4.045-1.416-6.066-2.121l-3.181 3.176v55.795h39.924v-2.7l-6.174-4.711c-2.785 1.28-5.568 2.566-8.348 3.856-.012.005-.024.007-.034.012 0 0-1.316.603-2.056.938-.091.046-.178.103-.272.143-.018.01-.032.022-.051.028-.055.027-.113.031-.17.046a4.695 4.695 0 0 1-1.623.304 4.697 4.697 0 0 1-4.698-4.697c0-2.36 1.671-4.074 3.726-4.851 0 0 7.314-3.196 10.35-4.594.108-.085.224-.152.339-.225a5.818 5.818 0 0 1 2.65-2.244c-.025-.057-.034-.121-.055-.179-.331-.174-1.471-.79-2.611-1.41l-1.283-.698-1.442-.785c.226.435.384.903.445 1.403a4.07 4.07 0 0 1-.841 3.01 4.102 4.102 0 0 1-3.79 1.519 4.112 4.112 0 0 1-1.94-.828l-17.77-13.69a4.056 4.056 0 0 1-1.535-2.72 4.05 4.05 0 0 1 .643-2.702 4.663 4.663 0 0 1 .044-4.257 4.663 4.663 0 0 1 6.31-1.938l9.423 4.99a4.694 4.694 0 0 1 1.964 1.985 4.658 4.658 0 0 1 1.696.113c.364.092.721.215 1.055.391a25028.372 25028.372 0 0 0 14.897 7.84c.048-.001.093-.013.143-.013.26 0 .509.038.76.076.081.012.168.01.248.025v-12.967c-1.492-.705-2.984-1.41-4.476-2.117a5.313 5.313 0 0 1-2.308-2.096" fill="#231f20"/>
    <path d="M420.843 115.623v2.814l1.916-1.913-1.916-.9" fill="#ed1c24"/>
    <path d="M434.148 130.855a8.46 8.46 0 0 0-.89.047 8.38 8.38 0 0 0-2.189-1.573 5.344 5.344 0 0 0 3.038 4.326c5.178 2.44 10.354 4.88 15.532 7.325a5.31 5.31 0 0 0 3.953.237 5.313 5.313 0 0 0 2.699 2.903c1.492.707 2.984 1.412 4.476 2.117v-6.344c-3.35-1.221-21.68-7.804-23.796-8.551a8.446 8.446 0 0 0-2.823-.487" fill="#00a650"/>
    <path d="M457.485 126.09a5.337 5.337 0 0 0-5.232 4.327l-.401-.189a7398.07 7398.07 0 0 0-13.54-6.37 5.332 5.332 0 0 0-7.243 5.471 8.38 8.38 0 0 1 2.188 1.573 8.46 8.46 0 0 1 3.714.44c2.116.747 20.446 7.33 23.796 8.551v-13.35c-.814-.13-1.628-.258-2.442-.389a5.42 5.42 0 0 0-.84-.065" fill="#ed1c24"/>
    <path d="M37.335 88.369c.17.988.083 2.031-.345 3.02a5.31 5.31 0 0 1-1.32 1.837l-.009.007c-.622 2.154-1.24 4.31-1.865 6.464a5.33 5.33 0 1 1-10.404-.782L19.996 116.2l10.097-2.853.92-.26.429-.122a4.622 4.622 0 0 1 .44-3.108 4.661 4.661 0 0 1 4.116-2.465c.6 0 1.188.15 1.746.378a4.415 4.415 0 0 1 2.691.944l.014.012v-.203c0-4.364.377-7.798 1.236-10.57l.024-.076a14.888 14.888 0 0 1 .492-1.37c.043-.107.08-.22.126-.324l.03-.06a13.273 13.273 0 0 1 1.728-2.918l-5.706-3.798a4.058 4.058 0 0 1-1.043-1.038" fill="#231f20"/>
    <path d="m29.976 94.16-15.229-6.537-6.244 31.738.357-.099a4.836 4.836 0 0 1 5.947 3.37 4.834 4.834 0 0 1-3.37 5.948l-5.016 1.385H6.42l-1.435 7.305c3.791-2.165 11.38-6.477 11.38-6.477a8.408 8.408 0 0 1 3.565-1.081 8.43 8.43 0 0 1 2.76-2.503l.86-.486.904-.511c.954-.538 1.938-1.096 1.937-1.094l.194-.662.007-.022.022-.076-3.525.985c-.434.122-.87.18-1.3.18a4.836 4.836 0 0 1-1.795-9.323l3.399-17.285a5.33 5.33 0 0 0 10.403.782c.624-2.154 1.243-4.31 1.865-6.464a5.35 5.35 0 0 1-3.568 1.368 5.316 5.316 0 0 1-2.117-.44" fill="#00adef"/>
    <path d="M23.417 116.293a5.294 5.294 0 0 0-3.475.167l.052-.26a4.836 4.836 0 1 0 1.794 9.323c.43 0 .867-.058 1.301-.18l3.525-.985h.004l.424-1.45a5.333 5.333 0 0 0-3.625-6.615" fill="#00a650"/>
    <path d="M52.958 53.599a42.344 42.344 0 0 0-3.297 1.842c-.066.039-.13.078-.197.115-1.258.73-2.46 1.49-3.613 2.281-2.276 1.563-4.39 3.234-6.453 4.994V48.256H7.223l11.89 6.552a4.055 4.055 0 0 1 1.634 5.383l7.048-2.528 1.363-.49a4.64 4.64 0 0 1 .687-.182c.294-.058.59-.094.889-.094a4.679 4.679 0 0 1 4.393 3.091c.037.107.06.214.09.32.077.274.133.547.16.825.077.83-.09 1.655-.443 2.408l14.635 8.062c.055-.016.113-.027.168-.044a8.477 8.477 0 0 0 3.513-2.17c.28-.286.63-.743.918-1.15.106-.151.205-.296.287-.422l.527.197a8.428 8.428 0 0 0 .985 3.45 8.427 8.427 0 0 0 5.456 4.228l13.59 3.297.296 2.892.143 1.386 3.606-.565v-35.63c-2.353 0-10.658.96-17.642 3.236-3.14.96-5.931 2.063-8.459 3.29" fill="#231f20"/>
    <path d="m21.792 81.454-4.791-5.278-2.033 10.327 9.858-3.568c-1.156-.106-2.246-.617-3.034-1.481" fill="#ed1c24"/>
    <path d="M35.845 172.136a4.625 4.625 0 0 1-3.788 2.136s-1.296.023-2.282-.53c-.16-.091-.318-.18-.478-.273l-2.686 1.203c.346 1.656.01 3.443-1.102 4.886a5.986 5.986 0 0 1-4.757 2.34c-.048 0-.096 0-.145-.003a.236.236 0 0 0-.03-.015 5.964 5.964 0 0 1-3.483-1.23l-5.735-4.483-1.444 4.495c-.625 1.334-1.912 2.012-3.259 2.269a6.746 6.746 0 0 1-2.014 1.38l-3.197 1.432h39.003v-17.27l-3.94 1.766a4.587 4.587 0 0 1-.663 1.897M357.84 167.3l-3.432-3.67-.304.82a8.42 8.42 0 0 1 1.556 3.95l2.18-1.1m-77.3-133.57a4.06 4.06 0 0 1-2.579 1.763 4.071 4.071 0 0 1-3.072-.574 4.095 4.095 0 0 1-1.185-5.65l12.113-18.885a4.066 4.066 0 0 1 2.583-1.761 4.067 4.067 0 0 1 3.072.578 4.104 4.104 0 0 1 1.837 3.647 4.075 4.075 0 0 1-.658 2.003zm-12.608 81.954.503-1.077 3.216-6.895-5.214-3.503a4.619 4.619 0 0 1-1.978-2.974 4.623 4.623 0 0 1 .702-3.5c.532-.792 1.295-1.357 2.151-1.7.547-.22 1.123-.368 1.73-.368.927 0 1.825.276 2.597.795l4.006 2.69.947-2.032-.74-.218c-.305-.091-.612-.183-.917-.271a8.436 8.436 0 0 1-5.236-4.472 8.417 8.417 0 0 1-.475-6.036c1.087-3.679 4.456-6.06 8.107-6.06.794 0 1.601.115 2.404.35l.456.134.728.215 2.902.862c.034-.068.064-.138.096-.206a5.337 5.337 0 0 1 7.298-2.475 5.333 5.333 0 0 1 2.777 5.72c.68.202 1.357.405 2.036.611a8.446 8.446 0 0 1 3.25 1.836 8.51 8.51 0 0 1 3.725.27l.652.201c4.257-7.135 11.416-12.897 23.474-13.543a35.88 35.88 0 0 1 2.052-.057 20.603 20.603 0 0 1-.052-.503l-.436-4.332c-.017-.16-.02-.322-.028-.484l-13.273 5.855a4.055 4.055 0 0 1-3.123.045 4.056 4.056 0 0 1-2.242-2.175 4.091 4.091 0 0 1 2.13-5.363l13.192-5.82 7.335-3.237a4.068 4.068 0 0 1 3.124-.041 4.058 4.058 0 0 1 2.24 2.177 4.099 4.099 0 0 1-.479 4.054 4.076 4.076 0 0 1-1.656 1.307l-.314.14 9.025 5.226-.032.015.67.36c.226.122.451.245.678.366l12.373 5.768 13.026 6.073.08-.19c.212-.496.856-2.013 1.708-4.02.328-.773.684-1.614 1.06-2.496l-.006-.004 5.64-13.317a54.826 54.826 0 0 0-13.814-11.292c-.074.046-3.799 1.707-8.094 3.616l-6.769 3.024-6.187 2.73a4.057 4.057 0 0 1-3.122.046 4.065 4.065 0 0 1-2.244-2.176 4.097 4.097 0 0 1 .478-4.056 4.064 4.064 0 0 1 1.654-1.308l2.018-.89 12.439-5.491a57.664 57.664 0 0 0-12.956-2.912 51.595 51.595 0 0 0-5.324-.293c-1.099 0-2.144.004-3.159.026-2.309.099-4.484.3-6.526.594a58.207 58.207 0 0 0-8.154 1.888l-.006.001a51.515 51.515 0 0 0-4.28 1.532c.01-.01-1.391.581-2.068.905l-.162.072v.007a44.074 44.074 0 0 0-3.917 2.13c-2.5 1.537-4.587 3.174-6.384 4.764l-.003-.008-.176.164c-.141.125-.294.253-.43.378l-.024.043-2.438 2.267c-.608.613-1.173 1.201-1.7 1.752V-.005h-39.37V48.72c.646.188 1.293.373 1.94.559l5.558-8.666a4.074 4.074 0 0 1 2.583-1.761 4.058 4.058 0 0 1 3.07.58 4.088 4.088 0 0 1 1.18 5.648l-2.878 4.488c.413.577.664 1.41.835 2.101.045.182.06.379.064.58.002.059 0 .118.001.176l-.003.118a4.623 4.623 0 0 1-.032.336 7.244 7.244 0 0 1-.314 1.381c.554-.29 1.156-.503 1.798-.555.252-.348.564-.648.902-.908 1.284-.994 3.082-1.326 4.646-.693 0 0 2.899 1.221 3.096 1.341a4.615 4.615 0 0 1 1.92 2.192c.086.204.138.415.192.626.104.399.17.8.167 1.206a4.665 4.665 0 0 1-4.245 4.617 4.672 4.672 0 0 1-6.228 1.645l-2.334-1.284a4.581 4.581 0 0 1-1.868-1.93 8.458 8.458 0 0 1-8.092 6.03 8.607 8.607 0 0 1-1.958-.25v8.088c1.438.416 2.878.828 4.316 1.244a8.455 8.455 0 0 1 5.761 10.481 8.462 8.462 0 0 1-8.119 6.096 8.614 8.614 0 0 1-1.958-.25v18.105c.41.118.806.278 1.162.519l7.667 5.104" fill="#231f20"/>
    <path d="M269.18 86.11a8.455 8.455 0 0 0-5.761-10.48c-1.438-.417-2.878-.829-4.316-1.245v17.571c.654.154 1.312.25 1.958.25 3.666 0 7.043-2.4 8.119-6.096" fill="#fff200"/>
    <path d="M352.035 180.688a4.68 4.68 0 0 1-3.888.125l-.178.495c-1.008-.365-2.016-.732-3.024-1.099a4.691 4.691 0 0 1-.346 3.112l9.364 3.45a53.087 53.087 0 0 0 3.142-1.08c.102-.039.2-.082.303-.12a4548.4 4548.4 0 0 1-.723-7.19l-4.65 2.307" fill="#00a650"/>
    <path d="M259.103 119.613v14.974l5.336-11.422-5.336-3.552" fill="#231f20"/>
    <path d="M264.581 129.72c.14-.076.283-.15.43-.214a5.459 5.459 0 0 1 0-.98c.066-.7.273-1.4.63-2.06l1.002-1.834-2.204-1.467-5.336 11.422v4.908l3.022-6.846a5.328 5.328 0 0 1 2.456-2.93m82.329-48.51c3.653 3.889 6.133 9.095 7.698 15.01.59.214 1.193.347 1.792.347a5.354 5.354 0 0 0 3.363-1.19 5.315 5.315 0 0 0 1.47-1.886c.184-.393.315-.797.399-1.205a5.331 5.331 0 0 0-2.97-5.88l-11.785-5.51c-.162-.074-.324-.15-.485-.227.176.176.347.359.517.54m47.388 23.355c.016-.028.032-.06.05-.088.173-.302.37-.581.588-.836a5.244 5.244 0 0 0-1.742.039l-.06.11a5.356 5.356 0 0 1-1.256 1.497 5.352 5.352 0 0 1-3.972 1.182 5.29 5.29 0 0 1-2.038-.66l-5.331-3-2.047 4.65 2.37 1.109 4.392 2.06a5.305 5.305 0 0 0 3.954.226 5.316 5.316 0 0 0 2.707 2.896l4.281 2.008c.004-.505.015-1.016.015-1.518 0-.894-.035-1.745-.055-2.618-2.377-1.494-3.208-4.578-1.856-7.057" fill="#00adef"/>
    <path d="M394.347 104.475c-.018.028-.034.06-.05.088-1.352 2.48-.521 5.563 1.856 7.057-.06-2.692-.193-5.3-.426-7.796-.027-.277-.062-.542-.09-.816-.244.198-.493.388-.702.63a5.545 5.545 0 0 0-.588.837" fill="#ed1c24"/>
    <path d="M208.341 136.99a4.651 4.651 0 0 0-2.569-.773c-1.573 0-3.03.783-3.896 2.096l-.987 1.492-2 3.031-.038.059a4.891 4.891 0 0 0-2.862-.93 4.92 4.92 0 0 0-4.92 4.92c0 1.643.812 3.087 2.048 3.982.074.053.144.105.22.154.036.023.076.037.112.06 0 0-4.956 7.555-5.032 7.7a4.602 4.602 0 0 0-.53 2.26 4.673 4.673 0 0 0-2.164 1.762l-5.867 8.912a4.63 4.63 0 0 0-.673 3.506 4.631 4.631 0 0 0 2.006 2.958 4.64 4.64 0 0 0 2.56.767 4.652 4.652 0 0 0 3.902-2.102l5.866-8.905a4.7 4.7 0 0 0 .766-2.688 4.71 4.71 0 0 0 1.66-1.139 5.566 5.566 0 0 1 .356-4.03 5.617 5.617 0 0 1 4.656-3.103c.606-.04 1.21.04 1.794.196-.684-.427-1.305-1.103-1.324-1.11a5.286 5.286 0 0 1-.722-5.772 5.296 5.296 0 0 1 4.389-2.925 5.296 5.296 0 0 1 1.844.216c.941-1.438 2.937-4.49 3.001-4.616a4.639 4.639 0 0 0 .499-2.083 4.655 4.655 0 0 0-2.095-3.894" fill="#fff"/>
    <path d="M177.715 156.346a5.31 5.31 0 0 0 2.536.647 5.332 5.332 0 0 0 4.695-2.797c.998-1.846.777-4.012-.362-5.617a27.95 27.95 0 0 1-9.24 6.477c.79.432 1.58.863 2.37 1.29" fill="#fff200"/>
    <path d="m103.456 135.939 9.1-4.015c-1.1-.534-2.198-1.072-3.3-1.605-1.407-.68-2.358-1.9-2.766-3.29l-2.703 7.936-.331.974" fill="#231f20"/>
    <path d="m129.076 116.258-.23.1c-1.967.838-3.933 1.68-5.9 2.52-.927.396-1.853.79-2.778 1.186a4.666 4.666 0 0 1-2.775.286 4.61 4.61 0 0 1-.875 1.03l8.435 5.063 4.586-2.023a63.833 63.833 0 0 1-.472-7.802c0-.12.008-.24.009-.36" fill="#fff200"/>
    <path d="M178.515 180.381a4.088 4.088 0 0 1-5.695.936L154.48 168.4a4.046 4.046 0 0 1-1.648-2.652 4.053 4.053 0 0 1 .707-3.043 4.09 4.09 0 0 1 5.694-.94l18.346 12.918a4.063 4.063 0 0 1 1.646 2.656 4.06 4.06 0 0 1-.71 3.042zm-12.914 5.377a4.682 4.682 0 0 1-4.041 2.33 4.664 4.664 0 0 1-2.335-.63l-4.617-2.671a4.738 4.738 0 0 1-.783-.57 4.71 4.71 0 0 1-1.332-1.677 4.689 4.689 0 0 1-2.732-.608c-.098-.057-.354-.207-.73-.423l-2.559-1.478a8935.767 8935.767 0 0 1-5.955-3.443c-.012-.007-.021-.016-.033-.023l-2.216-1.282c-.019-.011-.04-.016-.06-.028l-9.172-5.314-.063-.036c-.432-.25-.8-.577-1.124-.938a4.634 4.634 0 0 1-1.047-1.9 4.635 4.635 0 0 1 .471-3.539 4.68 4.68 0 0 1 4.041-2.328c.817 0 1.626.217 2.337.628a39197.224 39197.224 0 0 0 20.774 12.018 4.678 4.678 0 0 1 1.772 1.853c.039.07.083.134.116.205a4.628 4.628 0 0 1 1.014.039 4.71 4.71 0 0 1 1.716.568c1.53.88 4.497 2.637 4.645 2.745.07.04.144.085.213.127a4.632 4.632 0 0 1 2.171 2.834 4.633 4.633 0 0 1-.47 3.541zm-43.526-20.571a4.66 4.66 0 0 1-2.334-.63l-4.617-2.672a4.673 4.673 0 0 1-1.7-6.377 4.683 4.683 0 0 1 4.04-2.328c.818 0 1.626.216 2.335.628l4.618 2.673a4.634 4.634 0 0 1 2.17 2.836 4.63 4.63 0 0 1-.47 3.54 4.681 4.681 0 0 1-4.042 2.33zm-13.855-8.013a4.682 4.682 0 0 1-2.33-.626l-2.308-1.33a4.651 4.651 0 0 1-2.176-2.834 4.643 4.643 0 0 1 .465-3.543 4.684 4.684 0 0 1 4.046-2.336c.815 0 1.62.216 2.33.626l2.31 1.333a4.643 4.643 0 0 1 2.175 2.836 4.64 4.64 0 0 1-.468 3.541 4.682 4.682 0 0 1-4.044 2.333zm90.613 10.411c-.233-.108-.64-.404-.892-.593a16.84 16.84 0 0 1-.213-.164l-.003-.001c-.377-.327-.648-.615-.66-.62a5.62 5.62 0 0 1-1.122-2.095 4.71 4.71 0 0 1-1.66 1.139 4.7 4.7 0 0 1-.766 2.688l-5.866 8.905a4.652 4.652 0 0 1-3.902 2.102 4.64 4.64 0 0 1-2.56-.767 4.631 4.631 0 0 1-2.006-2.958 4.63 4.63 0 0 1 .673-3.506l5.867-8.912a4.672 4.672 0 0 1 2.164-1.762 4.602 4.602 0 0 1 .53-2.26c.076-.145 5.032-7.7 5.032-7.7l-.008.012s-.04-.029-.104-.072c-.076-.049-.146-.101-.22-.154-1.229-.862-6.264-4.892-6.312-4.923a30.144 30.144 0 0 1-2.221 2.635c1.139 1.605 1.36 3.77.361 5.617a5.332 5.332 0 0 1-4.694 2.797 5.31 5.31 0 0 1-2.536-.647c-.791-.427-1.58-.858-2.371-1.29-3.819 1.657-8.199 2.573-13.152 2.573-4.855 0-9.148-.889-12.903-2.496.287.456.483.967.574 1.512a4.067 4.067 0 0 1-.712 3.043 4.092 4.092 0 0 1-3.72 1.68 4.055 4.055 0 0 1-1.974-.745l-18.34-12.914a4.06 4.06 0 0 1-1.647-2.654 4.055 4.055 0 0 1 .705-3.043 4.103 4.103 0 0 1 3.723-1.683c.71.068 1.391.33 1.972.743l8.893 6.261c-3.471-4.058-5.989-9.094-7.584-14.714l-6.32 2.788a4.058 4.058 0 0 1-3.122.045 4.042 4.042 0 0 1-1.667-1.25l-1.978.349c.342 1.209.142 2.525-.62 3.55a4.086 4.086 0 0 1-1.656 1.307s-21.27 9.296-21.655 9.343c1.721 4.212 3.785 8.086 6.164 11.617a60.623 60.623 0 0 0 10.607 11.99c6.612 5.723 14.359 9.953 22.779 12.797 7.528 2.542 15.594 3.97 23.884 4.353 1.526.07 3.057.119 4.597.119.305 0 6.528-.239 6.83-.241a95.639 95.639 0 0 0 3.64-.291c.633-.064 1.251-.144 1.871-.219a88.533 88.533 0 0 0 7.019-1.173 4.042 4.042 0 0 1-1.557-2.574 4.055 4.055 0 0 1 .706-3.042 4.096 4.096 0 0 1 3.72-1.682 4.055 4.055 0 0 1 1.975.743l5.373 3.747h.003l.053-.019c.031-.01.06-.024.091-.035 4.261-1.525 8.176-3.381 11.752-5.525a56.812 56.812 0 0 0 5.483-3.75c1.149-.886 1.724-1.367 1.748-1.354-2.094-1.08-5.278-2.836-7.858-4.277-2.336-1.298-4.208-2.35-4.208-2.35" fill="#231f20"/>
    <path d="M221.465 88.812c-.12 0-9.382-1.564-13.316-2.193a5.317 5.317 0 0 0-3.757.802 5.323 5.323 0 0 0-3.321-1.933c-5.51-.883-11.016-1.765-16.526-2.65a5.272 5.272 0 0 0-2.262.129c.402.34.805.68 1.204 1.054a29.593 29.593 0 0 1 3.864 4.589c1.229 1.795 2.297 3.767 3.218 5.893.015.037.028.073.044.108l.506.082a8.475 8.475 0 0 1 7.337-4.259c.608 0 1.227.065 1.845.203 3.82.849 7.643 1.692 11.466 2.536l9.854-4.348a1.681 1.681 0 0 1-.156-.013m12.072 9.126c-.372-1.61-.82-3.24-1.305-4.874l-6.965 3.073c2.757.602 5.513 1.202 8.27 1.801" fill="#fff200"/>
    <path d="M235.699 114.568a85.47 85.47 0 0 0-2.158-16.612l-.004-.018c-2.757-.599-5.513-1.2-8.27-1.8l-11.25 4.963a4.054 4.054 0 0 1-3.121.045 4.066 4.066 0 0 1-2.244-2.176 4.086 4.086 0 0 1 2.13-5.365l.985-.432c-3.823-.844-7.646-1.687-11.466-2.536a8.472 8.472 0 0 0-1.845-.203 8.475 8.475 0 0 0-7.337 4.26l-.506-.083c.918 2.137 1.68 4.44 2.292 6.893l8.839-3.9a4.069 4.069 0 0 1 3.125-.04 4.061 4.061 0 0 1 2.24 2.176 4.099 4.099 0 0 1-.478 4.055 4.085 4.085 0 0 1-1.656 1.307l-10.627 4.69a82.05 82.05 0 0 1 .444 8.664c0 2.996-.216 5.913-.633 8.72a3136.409 3136.409 0 0 1 26.312 12.215 6.002 6.002 0 0 1 3.448 5.537 5.979 5.979 0 0 1-.571 2.447 5.992 5.992 0 0 1-1.395 1.89c-.409.371-.865.68-1.353.923a5.999 5.999 0 0 1-2.239.619l.438.244c.749.421 2.168 1.216 3.478 1.945.811.452 1.62.905 2.434 1.354a6.022 6.022 0 0 1-1.888-4.66c.036-.771.222-1.55.576-2.293a5.997 5.997 0 0 1 5.422-3.427c.806 0 1.62.171 2.4.512a78.324 78.324 0 0 0 1.623-5.265 85.05 85.05 0 0 0 2.641-15.69 89.17 89.17 0 0 0 .251-6.656c0-.376-.013-.769-.019-1.154-.005-.383-.006-.758-.018-1.149" fill="#231f20"/>
    <path d="M223.399 147.397a5.976 5.976 0 0 0-.576 2.294c1.772.791 3.548 1.578 5.321 2.367a73.11 73.11 0 0 0 3.077-7.576 5.984 5.984 0 0 0-2.4-.512 5.997 5.997 0 0 0-5.422 3.427M101.83 102.769c2.75.997 5.5 1.996 8.252 2.995.6.216 1.215.32 1.817.32h.026c.012 0 .026-.003.038-.004a5.334 5.334 0 0 0 2.935-.92l.005-.003a5.306 5.306 0 0 0 2.012-2.591 5.317 5.317 0 0 0 .32-1.888l2.748 1.32 1.106.531a5.316 5.316 0 0 0 2.695.51 5.329 5.329 0 0 0-.969 1.665 5.315 5.315 0 0 0 .107 3.901c.052.022.103.044.155.068 1.078-.46 2.154-.922 3.231-1.38a4.648 4.648 0 0 1 1.825-.373c.552 0 1.083.113 1.583.294.012.005.024.006.036.01.56-3.786 1.482-7.488 2.887-10.993l-.01-.004a23.254 23.254 0 0 1-.365-.174 5.303 5.303 0 0 0-3.661-.343l-.513-.733-.099.037c-.076.026-.15.052-.229.075-3.278.978-6.556 1.953-9.835 2.927l-.956.283-.554 1.626a4.9 4.9 0 0 1-2.514 2.814 4.898 4.898 0 0 1-3.768.216 4.935 4.935 0 0 1-2.924-2.819c-.32.42-.732.826-1.271 1.178-.006.004-.01.01-.015.013a4.8 4.8 0 0 1-1.344.632c-.917.27-1.835.539-2.751.81" fill="#ed1c24"/>
    <path d="M126.587 159.317a4.634 4.634 0 0 0-2.17-2.836l-4.618-2.673a4.656 4.656 0 0 0-2.334-.628 4.685 4.685 0 0 0-4.042 2.328 4.673 4.673 0 0 0 1.701 6.377l4.617 2.672a4.66 4.66 0 0 0 6.376-1.7 4.63 4.63 0 0 0 .47-3.54m-13.855-8.017a4.643 4.643 0 0 0-2.175-2.836l-2.31-1.333a4.666 4.666 0 0 0-2.33-.626 4.684 4.684 0 0 0-4.046 2.336 4.643 4.643 0 0 0-.465 3.543 4.651 4.651 0 0 0 2.176 2.833l2.308 1.331a4.682 4.682 0 0 0 2.33.626 4.682 4.682 0 0 0 4.044-2.333 4.64 4.64 0 0 0 .468-3.54" fill="#fff"/>
    <path d="m529.199 95.613-.236-.175-6.198 4.063a4.618 4.618 0 0 1-1.126 2.408 4.671 4.671 0 0 1-3.487 1.566 4.655 4.655 0 0 1-3.101-1.183 1166.69 1166.69 0 0 1-7.988-7.174c-.116-.104-.218-.22-.319-.333a6.734 6.734 0 0 1-12.353-1.677 6.711 6.711 0 0 1 .668-5.016c.189-.33.372-.663.557-.995a8.006 8.006 0 0 0 2.835.897c2.588.306 5.148-.652 6.678-2.498 1.147-1.389 1.612-3.107 1.31-4.84-.234-1.338-.91-2.554-1.927-3.535a3.89 3.89 0 0 1-1.307-.63l-11.15-8.14v41.512l13.265-8.704a4.078 4.078 0 0 1 3.076-.554 4.072 4.072 0 0 1 2.567 1.782 4.094 4.094 0 0 1 .192 4.078 4.099 4.099 0 0 1-1.419 1.562l-12.808 8.396a4.108 4.108 0 0 1-.75 1.584 4.1 4.1 0 0 1-3.789 1.52c-.048-.007-.09-.03-.138-.04l-.196.16v22.944l10.693-11.503c.045-.048.105-.076.152-.121a4.065 4.065 0 0 1 2.065-1.072l-.144-.11-1.921-1.481-1.77-1.365a4.052 4.052 0 0 1-1.535-2.72 4.07 4.07 0 0 1 .836-3.01 4.096 4.096 0 0 1 5.732-.695l3.73 2.873 14.852-15.978a4.06 4.06 0 0 1 2.852-1.274 4.065 4.065 0 0 1 2.92 1.114 4.1 4.1 0 0 1 1.163 3.914 4.102 4.102 0 0 1-1.004 1.856l-14.288 15.37 7.55 5.815c.858.675 1.4 1.64 1.533 2.724a4.07 4.07 0 0 1-.842 3.01c-.309.391-.698.69-1.114.942l1.686 1.063c.368.232.69.507.979.805.141-.357.319-.7.561-1.013a4.089 4.089 0 0 1 5.73-.695l.013.01v-29.43c0-5.338 0-10.676.65-15.492a4.095 4.095 0 0 1-1.977.268 4.104 4.104 0 0 1-1.958-.783" fill="#231f20"/>
    <path d="M512.876 83.636a7.15 7.15 0 0 1-.408.89c-.352.644-.719 1.28-1.072 1.924l6.905 6.217 3.64-2.387-9.06-6.653-.005.009m30.334-6.409a4.071 4.071 0 0 1 1.417-1.562l1.694-1.122a4.693 4.693 0 0 1-.705-.224 4.68 4.68 0 0 1-1.573-1.087l-1.831-1.94a4.532 4.532 0 0 1-.75-1.103 4.653 4.653 0 0 1 .067-4.326 4.623 4.623 0 0 1-2.3.625 4.684 4.684 0 0 1-3.393-1.46l-1.832-1.94a4.62 4.62 0 0 1-.75-1.105 4.667 4.667 0 0 1-.41-1.198l-.096.103v-12.03h-40.693v9.312l16.042 11.785c.028.02.051.046.076.069.054-.098.107-.197.162-.294l-.271-.651a4.67 4.67 0 0 1 2.512-6.1 4.524 4.524 0 0 1 1.667-.336c1.444-.026 2.874.604 3.77 1.721 1.756-.84 4.046-.43 5.404 1.015.351.373.61.797.814 1.237.822 1.776.488 3.947-1.014 5.359l-4.393 4.421 12.404 9.11 6.141-4.025a4.069 4.069 0 0 1 3.078-.553 4.08 4.08 0 0 1 1.428.615 15.363 15.363 0 0 1 2.949-1.908c-.11-.816-.003-1.655.385-2.408" fill="#231f20"/>
    <path d="M580.75 97.758a8.436 8.436 0 0 0 6.07-2.567 8.455 8.455 0 0 0-.179-11.958l-13.286-12.607-7.626 3.277-4.349 4.676c4.63 1.49 8.452 4.51 10.539 9.381.697 1.625 1.137 3.406 1.41 5.95.508.49 1.026.968 1.53 1.458a8.43 8.43 0 0 0 5.892 2.39m9.31 5.62c1.838-3.372 3.675-6.745 5.511-10.117-.005-.003-.01-.003-.015-.005a8.522 8.522 0 0 0-2.732-.453 8.458 8.458 0 0 0-6.014 14.405c1.001 1.014 1.998 2.032 2.994 3.048.486.044.962.148 1.411.33-1.925-1.825-2.485-4.768-1.155-7.208" fill="#ed1c24"/>
    <path d="m595.572 93.261-5.51 10.117c-1.331 2.44-.771 5.383 1.154 7.209.595.24 1.143.593 1.59 1.072l.029.032c.804.37 1.65.56 2.489.56a6 6 0 0 0 5.273-3.13l4.204-7.717-.008-.008a836.93 836.93 0 0 0-5.953-6.08 8.416 8.416 0 0 0-3.268-2.055" fill="#00adef"/>
    <path d="M590.168 183.122a8.464 8.464 0 0 0 8.035-5.846 8.454 8.454 0 0 0 2.426 6.117l.012.016c-.012-.016 8.095-14.172 8.095-14.172-.223-.036-.443-.075-.664-.112a8.466 8.466 0 0 0-9.456 5.725 8.458 8.458 0 0 0-7.036-8.523l-10.587-1.81-7.234 1.384v14.476L588.737 183c.48.084.959.122 1.431.122" fill="#fff200"/>
    <path d="m495.272 158.499-3.217-2.017v8.714l6.15-1.224a5.335 5.335 0 0 1-2.933-5.473" fill="#00adef"/>
    <path d="M542.62 58.618a4.606 4.606 0 0 1 1.103 2.026c.11.425.184.86.17 1.31a4.607 4.607 0 0 1-.6 2.114 4.807 4.807 0 0 1 2.135-.575 4.887 4.887 0 0 1 2.081.37 4.387 4.387 0 0 1 1.519 1.035l1.833 1.94c.684.763.907 1.276 1.103 2.026l.133-.019c3.918-.497 6.856-3.604 7.319-7.35.075.011.861.074.861.074a8.504 8.504 0 0 0 2.62 3.393l3.258-3.506a4.076 4.076 0 0 1 2.854-1.274 4.06 4.06 0 0 1 2.915 1.112l1.88-.76a4.119 4.119 0 0 1-.764-.555 4.098 4.098 0 0 1-1.164-3.914 4.093 4.093 0 0 1 1.003-1.856l7.742-8.329c-3.118-.472-6.25-.7-9.245-.7-8.36 0-16.127 1.752-22.15 3.913-.978.352-1.92.71-2.802 1.076-3.073 1.482-5.308 2.912-7.173 4.4-.255.16-.612.44-1.02.787.961.165 1.872.599 2.557 1.322l1.832 1.94" fill="#231f20"/>
    <path d="M573.759 163.272v2.63l7.234-1.386c-.081-.015-7.184-1.236-7.234-1.244" fill="#ed1c24"/>
    <path d="m163.901 179.383-.213-.127c-1.519-.879-3.14-1.877-4.645-2.745a4.71 4.71 0 0 0-1.716-.568 4.628 4.628 0 0 0-1.014-.04c-.033-.07-.077-.134-.116-.204a4.678 4.678 0 0 0-1.772-1.853 39197.224 39197.224 0 0 1-20.775-12.018 4.676 4.676 0 0 0-2.336-.628 4.68 4.68 0 0 0-4.04 2.328 4.635 4.635 0 0 0-.472 3.54 4.634 4.634 0 0 0 1.047 1.899 4.664 4.664 0 0 0 1.187.974 18349.11 18349.11 0 0 0 11.448 6.624c3.619 2.095 7.056 4.083 8.547 4.944.376.216.632.366.73.423.826.476 1.792.69 2.732.608a4.71 4.71 0 0 0 1.332 1.676c.238.212.498.405.783.57l4.617 2.672c.711.412 1.519.63 2.335.63a4.68 4.68 0 0 0 4.041-2.33 4.633 4.633 0 0 0 .471-3.54 4.632 4.632 0 0 0-2.17-2.835" fill="#fff"/>
    <path d="m193.441 151.093.008-.012c-.036-.023-.076-.037-.112-.06.064.043.104.072.104.072m-2.937-11.366c-1.043 2.24-2.273 4.324-3.699 6.217.048.03 5.083 4.061 6.312 4.923a4.905 4.905 0 0 1-2.048-3.982 4.92 4.92 0 0 1 4.92-4.92c1.071 0 2.054.35 2.862.93l.038-.059 2-3.03.987-1.493a4.655 4.655 0 0 1 3.896-2.096c.916 0 1.804.268 2.57.774a4.655 4.655 0 0 1 2.094 3.894c0 .728-.175 1.436-.499 2.083a5.4 5.4 0 0 0 1.278-.33c1.322.487 2.648.973 3.972 1.46 2.173.797 4.189 1.535 4.238 1.55a5.367 5.367 0 0 0 1.636 2.957c.271.247.568.469.892.66a5.992 5.992 0 0 0 1.395-1.89 5.979 5.979 0 0 0 .57-2.744 6.002 6.002 0 0 0-3.447-5.24 3104.92 3104.92 0 0 0-26.312-12.215c-.472 3.176-1.212 6.208-2.22 9.041a27.683 27.683 0 0 1-1.435 3.51" fill="#ed1c24"/>
    <path d="M459.759 159.103c-.05 0-.095.012-.143.013-3.13.079-5.644 2.624-5.644 5.772 0 .71.145 1.379.379 2.005.021.058.03.122.054.179a5.818 5.818 0 0 0-2.649 2.244c.813-.517 1.784-.765 2.764-.627a4.044 4.044 0 0 1 1.94.826l4.307 3.285v-13.596c-.08-.015-.167-.013-.248-.025-.251-.038-.5-.076-.76-.076" fill="#00adef"/>
    <path d="M447.575 109.155a4.635 4.635 0 0 0 1.828 3.07l2.132 1.593c.658.49 1.433.8 2.242.897a4.678 4.678 0 0 0 2.695-.5 4.665 4.665 0 0 0 1.596-1.34c.064-.085.105-.182.164-.27-.263.032-.528.068-.797.048a4.1 4.1 0 0 1-1.994-.693l-7.613-5.069a4.636 4.636 0 0 0-.253 2.264" fill="#00a650"/>
    <path d="M520.84 141.456a4.106 4.106 0 0 1-1.94-.828l-9.139-7.039c.032.416.022.838-.077 1.254a4.123 4.123 0 0 1-1.005 1.856l-5.031 5.41 15.859 8.853a5.3 5.3 0 0 0 2.844.825 5.318 5.318 0 0 0 4.512-2.484c.349-.55.573-1.141.7-1.745l-.124-.094a4.04 4.04 0 0 1-1.534-2.72 3.997 3.997 0 0 1 .275-1.996 5.295 5.295 0 0 0-.979-.805l-1.686-1.063c-.795.477-1.73.71-2.675.576m55.123-80.365a4.042 4.042 0 0 1-2.159-.556l-1.88.76a4.097 4.097 0 0 1 1.167 3.916 4.11 4.11 0 0 1-1.004 1.855l-6.358 6.837 7.626-3.277c.056-.04 12.729-5.051 12.729-5.051a4.668 4.668 0 0 0 1.888-1.487 4.668 4.668 0 0 0 .548-4.618 4.629 4.629 0 0 0-2.55-2.482 4.618 4.618 0 0 0-3.56.047s-1.495.624-1.651.687l-1.948 2.094a4.057 4.057 0 0 1-2.848 1.275" fill="#fff"/>
    <path d="M303.732 146.595c-1.657-2.854-2.92-6.26-3.87-9.903l-2.843-1.892a4.089 4.089 0 0 0-5.67 1.088 4.055 4.055 0 0 0-.626 3.062 4.052 4.052 0 0 0 1.716 2.607l16.088 10.712a26.305 26.305 0 0 1-4.795-5.674m-37.089-21.963 5.808 3.867 1.908 1.27c.593.4 1.281.642 1.992.693a4.1 4.1 0 0 0 3.676-1.778 4.062 4.062 0 0 0 .63-3.06 4.064 4.064 0 0 0-1.716-2.612l-2.028-1.35-8.981-5.978-7.667-5.104a4.06 4.06 0 0 0-1.162-.52v9.553l5.336 3.552 2.204 1.467" fill="#fff200"/>
    <path d="M40.965 81.962a4.069 4.069 0 0 0-2.185.47 4.061 4.061 0 0 0-1.49 1.308 4.042 4.042 0 0 0-.655 2.776c.011.095.008.189.026.284.11.576.347 1.103.674 1.569.28.4.626.755 1.043 1.038l5.706 3.798c1.697-2.163 4.072-3.712 7.292-4.952l-8.418-5.601a4.075 4.075 0 0 0-1.993-.69m-8.831 2.668c.659.048 1.3-.087 1.891-.338a4.051 4.051 0 0 0 1.785-1.439 4.058 4.058 0 0 0 .63-3.058 4.151 4.151 0 0 0-.272-.86 4.065 4.065 0 0 0-1.443-1.752L16.049 64.755a4.075 4.075 0 0 0-1.993-.69 4.098 4.098 0 0 0-3.676 1.778 4.06 4.06 0 0 0 .963 5.562c.044.033 18.798 12.533 18.798 12.533.595.399 1.282.64 1.993.691" fill="#00adef"/>
    <path d="M530.676 113.019c.49-.523.84-1.162 1.004-1.856a4.1 4.1 0 0 0-1.163-3.914 4.065 4.065 0 0 0-2.92-1.114 4.06 4.06 0 0 0-2.852 1.274l-14.852 15.978 6.495 5.003 14.288-15.371m41.2-56.954a4.098 4.098 0 0 0 1.164 3.914c.235.22.492.399.764.556a4.057 4.057 0 0 0 5.007-.718l10.922-11.749c-3.896-1.467-9.112-2.188-9.112-2.188l-7.742 8.33a4.093 4.093 0 0 0-1.003 1.855m1.214 9.145a4.097 4.097 0 0 0-1.162-3.913l-.004-.003a4.06 4.06 0 0 0-2.915-1.112 4.076 4.076 0 0 0-2.854 1.274l-3.258 3.506-.029.03-3.13 3.368a4.03 4.03 0 0 1 1.423 1.323 4.11 4.11 0 0 1 .195 4.08 4.118 4.118 0 0 1-1.423 1.556l-3.418 2.263a23.32 23.32 0 0 1 4.865.997l10.707-11.513a4.11 4.11 0 0 0 1.004-1.856" fill="#fff200"/>
    <path d="M441.35 92.771a4.082 4.082 0 0 0-1.993-.69 4.08 4.08 0 0 0-2.125.431 4.075 4.075 0 0 0-1.55 1.348 4.06 4.06 0 0 0-.629 3.06 4.058 4.058 0 0 0 1.716 2.61l1.818 1.209 5.893-5.883-3.13-2.085m18.675 12.433-3.848-2.562-4.764-3.172-5.893 5.883 2.308 1.538 7.613 5.069a4.1 4.1 0 0 0 1.994.693c.269.02.534-.016.797-.048a4.056 4.056 0 0 0 2.535-1.346c.012-.013.013-5.373 0-5.388a4.064 4.064 0 0 0-.742-.667M430.527 94.75a4.099 4.099 0 0 0 3.674-1.777c.475-.7.71-1.511.698-2.34a4.048 4.048 0 0 0-.067-.718 4.055 4.055 0 0 0-1.716-2.611l-5.827-3.878-6.446-4.29v9.803l7.689 5.119c.596.4 1.283.642 1.995.693" fill="#ed1c24"/>
    <path d="M609.805 141.379a4.103 4.103 0 0 0-3.754 1.606 4.067 4.067 0 0 0-.768 3.028 4.056 4.056 0 0 0 1.593 2.686l7.05 5.18v-10.13l-2.162-1.587a4.06 4.06 0 0 0-1.959-.783m-6.012-5.063-7.697-5.655-5.183-3.809-5.201-3.82a4.086 4.086 0 0 0-5.71.825 4.05 4.05 0 0 0-.77 3.029 4.05 4.05 0 0 0 1.595 2.685l7.661 5.63 10.415 7.651c.574.427 1.249.7 1.958.784a4.102 4.102 0 0 0 3.755-1.604 4.08 4.08 0 0 0 .77-3.03 4.062 4.062 0 0 0-.826-1.909 4.142 4.142 0 0 0-.767-.777" fill="#00adef"/>
    <path d="M492.39 119.527a4.1 4.1 0 0 0 3.789-1.52 4.12 4.12 0 0 0 .749-1.584l-4.677 3.065c.048.008.09.032.138.039" fill="#ed1c24"/>
    <path d="m535.37 81.48-6.142 4.026-12.404-9.11-.813-.597a4.09 4.09 0 0 0-1.96-.783 4.095 4.095 0 0 0-3.752 1.607 4.042 4.042 0 0 0-.77 3.027 4.054 4.054 0 0 0 1.595 2.684l10.817 7.946-3.64 2.387-1.696 1.11a4.094 4.094 0 0 0-1.223 5.64 4.062 4.062 0 0 0 2.57 1.779 4.057 4.057 0 0 0 3.073-.555l7.938-5.203.236.175a4.1 4.1 0 0 0 1.958.783 4.095 4.095 0 0 0 1.976-.268c.811-6.015 2.644-11.21 6.742-14.585a4.074 4.074 0 0 0-1.428-.615 4.069 4.069 0 0 0-3.078.553m25.987-7.719a4.11 4.11 0 0 0-.195-4.08 4.026 4.026 0 0 0-1.424-1.322 4.086 4.086 0 0 0-1.142-.457 4.106 4.106 0 0 0-1.362-.048 4.05 4.05 0 0 0-1.713.601l-3.441 2.277-3.662 2.422-2.096 1.388-1.694 1.122a4.071 4.071 0 0 0-1.418 1.562c-.388.753-.494 1.592-.385 2.408 2.815-1.4 6.393-2.189 10.955-2.189.925 0 1.837.048 2.736.136l3.418-2.263a4.118 4.118 0 0 0 1.423-1.557" fill="#00adef"/>
    <path d="m447.927 162.679-17.775-13.69a4.092 4.092 0 0 0-1.943-.826 4.098 4.098 0 0 0-3.789 1.521c-.075.097-.127.205-.193.308a4.05 4.05 0 0 0-.643 2.703 4.056 4.056 0 0 0 1.535 2.72l17.77 13.689c.566.44 1.235.727 1.94.828a4.102 4.102 0 0 0 3.79-1.52 4.07 4.07 0 0 0 .841-3.01 4.101 4.101 0 0 0-.445-1.402 4.062 4.062 0 0 0-1.088-1.321m6.593 6.011c-.98-.14-1.95.109-2.764.626-.115.073-.23.14-.339.225-.25.196-.486.414-.686.67a4.049 4.049 0 0 0-.836 3.008 4.042 4.042 0 0 0 1.533 2.72l3.165 2.417 6.174 4.71V172.8l-4.307-3.285a4.044 4.044 0 0 0-1.94-.826" fill="#fff200"/>
    <path d="M455.455 94.69c.156-.564.153-1.141.069-1.704-.127-.834-.479-1.629-1.085-2.248a4.065 4.065 0 0 0-2.875-1.224 4.123 4.123 0 0 0-1.153.173 4.048 4.048 0 0 0-1.747.993l-4.184 4.176-5.893 5.883-5.802 5.793a4.076 4.076 0 0 0-1.069 1.818 4.1 4.1 0 0 0 1.017 3.954 4.072 4.072 0 0 0 2.688 1.2c.064.002.124.019.19.019a4.058 4.058 0 0 0 2.896-1.168l7.013-7.002 5.893-5.883 2.968-2.963a4.095 4.095 0 0 0 1.074-1.816m1.093-11.584a4.086 4.086 0 0 0-.052 5.77 4.055 4.055 0 0 0 2.875 1.22 4.09 4.09 0 0 0 1.396-.245c.012-.004 0-10.994 0-10.994l-.083.084-4.136 4.165m-27.596 38.77c.095-.095.16-.212.245-.315.372-.444.672-.943.828-1.501a4.106 4.106 0 0 0-1.016-3.955 4.072 4.072 0 0 0-2.874-1.223 4.07 4.07 0 0 0-2.902 1.167l-.474.474-1.916 1.913v11.535l3.181-3.176 4.928-4.92M293.31 12.848a4.104 4.104 0 0 0-1.838-3.647 4.067 4.067 0 0 0-3.072-.578 4.066 4.066 0 0 0-2.583 1.761l-12.113 18.885a4.095 4.095 0 0 0 1.185 5.65 4.071 4.071 0 0 0 3.072.574 4.06 4.06 0 0 0 2.579-1.762l12.11-18.88c.391-.6.622-1.294.66-2.003M177.579 174.683l-18.346-12.918a4.09 4.09 0 0 0-5.695.94 4.053 4.053 0 0 0-.706 3.043 4.046 4.046 0 0 0 1.648 2.652l18.34 12.917a4.088 4.088 0 0 0 5.695-.936 4.06 4.06 0 0 0 .71-3.042 4.063 4.063 0 0 0-1.646-2.656m-38.816-27.35-8.893-6.261a4.083 4.083 0 0 0-1.972-.743 4.103 4.103 0 0 0-3.723 1.683 4.055 4.055 0 0 0-.705 3.043 4.06 4.06 0 0 0 1.647 2.654l18.34 12.914a4.055 4.055 0 0 0 1.974.745 4.092 4.092 0 0 0 3.72-1.68 4.067 4.067 0 0 0 .712-3.043 4.094 4.094 0 0 0-.574-1.512c-4.172-1.783-7.67-4.461-10.526-7.8" fill="#00adef"/>
    <path d="M117.472 138.101c.762-1.025.962-2.341.62-3.55.66-.116 1.319-.232 1.978-.35.438.547.997.986 1.667 1.251a4.058 4.058 0 0 0 3.122-.045l6.32-2.788a54.234 54.234 0 0 1-1.64-8.2l-4.586 2.024-8.435-5.062-9.607 4.41-.421 1.238a5.27 5.27 0 0 0 2.767 3.29c1.101.533 2.198 1.07 3.298 1.605l-9.1 4.015-1.724 5.066a4.9 4.9 0 0 1-2.517 2.814 4.9 4.9 0 0 1-3.767.217 4.955 4.955 0 0 1-3.216-3.743 4.916 4.916 0 0 1 .19-2.54l1.634-4.802c-.209-.11-.407-.233-.628-.32a6.619 6.619 0 0 0-3.846-.304c.971 5.966 2.549 11.44 4.58 16.424.385-.047 21.655-9.343 21.655-9.343a4.086 4.086 0 0 0 1.656-1.307m94.295-44.928-.984.433a4.086 4.086 0 0 0-2.131 5.364 4.066 4.066 0 0 0 2.244 2.176 4.054 4.054 0 0 0 3.121-.045l11.25-4.964 6.965-3.073a78.225 78.225 0 0 0-2.735-7.714l-7.876 3.475-9.854 4.348m-6.792 11.929a4.085 4.085 0 0 0 1.656-1.307 4.099 4.099 0 0 0 .478-4.055 4.061 4.061 0 0 0-2.24-2.177 4.069 4.069 0 0 0-3.125.042l-8.839 3.9a60.784 60.784 0 0 1 1.443 8.287l10.627-4.69" fill="#ed1c24"/>
    <path d="M28.875 60.807a4.096 4.096 0 0 0-3.515 2.08 4.068 4.068 0 0 0-.367 3.102c.234.84.728 1.556 1.4 2.086l9.732 5.414 5.467 3.027 4.976 2.751a4.09 4.09 0 0 0 2.042.524 4.1 4.1 0 0 0 2.053-.585 4.054 4.054 0 0 0 1.834-4.594 4.06 4.06 0 0 0-1.927-2.458l-1-.55-14.635-8.063-4.016-2.213a4.078 4.078 0 0 0-2.044-.52" fill="#fff200"/>
    <path d="M529.647 181.87a4.777 4.777 0 0 0-.528-1.333 4.913 4.913 0 0 0-1.738-1.83l-2.516-1.544c-2.336-1.432-5.754-.684-7.285 1.593-.144.213-.248.437-.355.661a4.878 4.878 0 0 0 .755 5.372 5.1 5.1 0 0 0 1.037.902c.026.017 9.879 0 9.88 0a5.28 5.28 0 0 0 .55-1.115c.312-.87.398-1.795.2-2.707" fill="#00a650"/>
    <path d="M6.656 182.93c.24-.238.466-.489.665-.762a6.661 6.661 0 0 0 .74-6.598 6.62 6.62 0 0 0-2.39-2.845 6.677 6.677 0 0 0-1.272-.675c-.599-.234-1.22-.347-1.842-.402-.002-.002-.003-.002-.005-.002a6.537 6.537 0 0 0-2.552.28v13.817h1.445l3.197-1.432a6.746 6.746 0 0 0 2.014-1.38m315.077-.478a4.1 4.1 0 0 0 3.163-2.581 4.065 4.065 0 0 0-.096-3.123 4.078 4.078 0 0 0-2.277-2.144l-21.052-7.754a4.095 4.095 0 0 0-5.261 2.374 4.065 4.065 0 0 0 .102 3.123c.059.13.14.247.212.37l-.155-1.41c1.51 1.762 3.604 3.69 3.604 3.69l19.662 7.243c.67.254 1.394.328 2.098.212" fill="#ed1c24"/>
    <path d="M504.512 77.121c.125.034.267.072.408.105.081.018.164.038.24.047l.004.001a4.1 4.1 0 0 0 3.753-1.606 4.061 4.061 0 0 0-.707-5.61c-.014-.01-.025-.023-.037-.034-.025-.023-.048-.048-.076-.07L492.055 58.17v10.181l11.15 8.14c.41.301.822.494 1.307.63" fill="#00adef"/>
    <path d="m8.735 153.945-.024.013a4.67 4.67 0 0 0-.512.375c-.053.046-.104.094-.155.14-.115.103-.212.224-.318.336a5.337 5.337 0 0 0-.555.692c-.103.154-.215.298-.3.463a5.246 5.246 0 0 0-.353 4.017c.322 1.014 1.028 1.882 1.805 2.569.238.21.483.406.726.58 2.13 1.573 2.831 4.5 1.509 6.87a5.33 5.33 0 0 1-4.663 2.74c-.075 0-.15-.01-.223-.015a6.62 6.62 0 0 1 2.388 2.845 6.661 6.661 0 0 1-.739 6.598 6.61 6.61 0 0 1-.665.763c1.347-.257 2.634-.935 3.26-2.27l1.443-4.494 5.735 4.484a5.964 5.964 0 0 0 3.484 1.229l.03.015c.048.002.096.002.144.002a5.986 5.986 0 0 0 4.757-2.339c1.113-1.443 1.448-3.23 1.102-4.886l-1.943.872a6.584 6.584 0 0 1-5.076.102 6.608 6.608 0 0 1-3.668-3.515 6.655 6.655 0 0 1 3.417-8.744l6.2-2.78-11.376-6.39-.746-.418a4.672 4.672 0 0 0-2.241-.58h-.007a4.623 4.623 0 0 0-2.436.726m16.091-71.01c.14.012.276.043.417.043.457 0 .9-.084 1.33-.213a4.785 4.785 0 0 0 1.09-.477l-12.906-8.59 7.035 7.756c.788.864 1.878 1.375 3.034 1.481" fill="#fff"/>
    <path d="M36.93 120.756a4.806 4.806 0 0 1-2.196 1.326l-.755.213-7.361 2.063h-.004l-.022.076-.2.682-2.617 8.928-.513 1.755-.783 2.668-.944 3.221-1.611 5.499-.226.766-.094.326-.047.158s-8.38 4.783-8.386 4.783h.007c.78 0 1.554.201 2.241.579l.746.418 11.377 6.39 14.906-6.679V119.94l-2.113-1.613a4.297 4.297 0 0 1-1.405 2.43m56.497 11.873c.221.088.42.212.628.321l.17-.497-1.182-.882a4.644 4.644 0 0 1-1.827-3.07 4.638 4.638 0 0 1 .878-3.462 4.655 4.655 0 0 1 2.132-1.577l-.813-1.97 5.338-2.332s2.45-7.154 2.467-7.198l-6.045-3.778a.592.592 0 0 0-.049-.032c.05.032-4.709 10.538-4.709 10.538l-2.02-1.344v-.073c-.002-.001-.004-.001-.005-.003a85.216 85.216 0 0 0 1.191 15.056 6.619 6.619 0 0 1 3.846.304" fill="#231f20"/>
    <path d="M110.466 115.352a4.946 4.946 0 0 0-3.02-6.286 4.91 4.91 0 0 0-6.227 2.897c-.018.044-3.916 11.448-3.916 11.448a4.67 4.67 0 0 0-.917-.215 4.66 4.66 0 0 0-2.16.267 4.655 4.655 0 0 0-2.132 1.577 4.638 4.638 0 0 0-.878 3.462 4.644 4.644 0 0 0 1.827 3.07l1.182.882-.17.497-1.635 4.801a4.916 4.916 0 0 0-.189 2.541 4.955 4.955 0 0 0 3.216 3.743 4.9 4.9 0 0 0 3.767-.217 4.9 4.9 0 0 0 2.517-2.814l2.056-6.04 6.679-19.613" fill="#00adef"/>
    <path d="M224.71 154.35a1264.145 1264.145 0 0 1-5.911-3.299l-.438-.244a5.999 5.999 0 0 0 2.239-.619 5.984 5.984 0 0 0 1.353-.923 5.407 5.407 0 0 1-.892-.66 5.37 5.37 0 0 1-1.636-2.957c-.049-.015-2.065-.753-4.238-1.55-1.427-.523-2.92-1.073-3.972-1.46a5.4 5.4 0 0 1-1.278.33c-.064.127-2.06 3.178-3.001 4.616l.003.001-.488.74c.02.019.189.144.465.344 1.59 1.152 6.9 4.916 9.179 6.568.221.162.444.32.665.482a4.615 4.615 0 0 1 1.448 1.772l3.632-1.1 2.41 2.71c.002 0 .002 0 .003.002.014-.02.024-.04.036-.06.508-.807.98-1.634 1.454-2.458a65.284 65.284 0 0 0 2.401-4.527c-1.773-.789-3.55-1.576-5.321-2.367a6.022 6.022 0 0 0 1.888 4.659" fill="#00a650"/>
    <path d="M218.208 157.49a4.615 4.615 0 0 0-1.448-1.771c-.221-.162-.444-.32-.665-.482a5.234 5.234 0 0 1-.526 2.414 5.29 5.29 0 0 1-4.389 2.925 5.274 5.274 0 0 1-2.68-.535l-5.408-2.676a3.004 3.004 0 0 1-.343-.19 5.547 5.547 0 0 0-1.794-.196 5.617 5.617 0 0 0-4.656 3.104 5.566 5.566 0 0 0-.356 4.03 5.62 5.62 0 0 0 1.122 2.095c.012.004.283.292.66.619l.003.001.213.164c.252.19.659.485.892.593 0 0 1.872 1.052 4.208 2.35 2.722 1.51 6.072 3.356 7.858 4.277 1.976-1.59 4.113-3.44 5.822-5.243.983-.974 1.354-1.526 2.059-2.418.079-.101.165-.21.253-.318l.104-.128-.001-.001-4.019-2.072c.47-.115.906-.324 1.316-.575l3.33 1.847.006.004c.11-.141.208-.276.316-.416.066-.084.128-.167.192-.25a106.34 106.34 0 0 0 3.974-5.542l-2.411-2.708-3.632 1.099" fill="#fff200"/>
    <path d="m116.971 98.299.956-.283c3.279-.974 6.557-1.95 9.835-2.927.078-.023.153-.05.23-.075l.098-.037a4.817 4.817 0 0 0 2.81-2.809c1.077.252 2.155.503 3.233.753.04-.08.084-.159.126-.24-.351-.3-.699-.604-1.05-.906-.672-.578-1.345-1.156-2.014-1.74-.601-.524-1.2-1.052-1.798-1.58-.083-.073-.168-.147-.251-.222-.1-.087-.167-.144-.185-.161-1.142-1.01-2.568-1.643-3.975-1.508-1.223.117-4.192.517-4.194.517l-1.387 4.07-2.434 7.148" fill="#00a650"/>
    <path d="M205.092 147.368a5.296 5.296 0 0 0-4.39 2.925 5.286 5.286 0 0 0 .723 5.772c.019.007.64.683 1.324 1.11.114.071.228.137.343.19l5.408 2.676a5.273 5.273 0 0 0 2.68.535 5.29 5.29 0 0 0 4.39-2.925 5.234 5.234 0 0 0 .525-2.414c-2.279-1.652-7.59-5.416-9.179-6.568a10.516 10.516 0 0 1-.465-.344l.488-.74h-.003a5.27 5.27 0 0 0-1.844-.217" fill="#00adef"/>
    <path d="m283.821 81.624-7.229 15.496 10.332 3.081 7.068-15.539-10.17-3.038" fill="#00a650"/>
    <path d="M291.215 78.943a5.335 5.335 0 0 0-7.297 2.475c-.033.068-.063.138-.097.206l10.171 3.038a5.333 5.333 0 0 0-2.777-5.719" fill="#00adef"/>
    <path d="m280.19 80.547-.455-.134a8.532 8.532 0 0 0-2.404-.35c-3.651 0-7.02 2.381-8.107 6.06a8.417 8.417 0 0 0 .475 6.036 8.436 8.436 0 0 0 5.236 4.472c.305.088 1.412.416 1.657.49l7.23-15.497-3.631-1.077" fill="#fff200"/>
    <path d="M268.096 53.403a8.436 8.436 0 0 1 1.084 7.046c-.007.024-.019.044-.027.068a4.581 4.581 0 0 0 1.868 1.93l2.334 1.284a4.672 4.672 0 0 0 6.228-1.645 4.665 4.665 0 0 0 4.245-4.617 4.654 4.654 0 0 0-.167-1.206c-.054-.211-.106-.422-.192-.626a4.615 4.615 0 0 0-1.92-2.192c-.197-.12-3.096-1.341-3.096-1.341-1.564-.633-3.362-.301-4.646.693-.338.26-.65.56-.902.908-.642.052-1.244.264-1.798.555.008-.019.226-.653.314-1.381.015-.11.026-.224.032-.336l.003-.118c-.001-.058.001-.117-.001-.176a2.63 2.63 0 0 0-.064-.58c-.171-.69-.422-1.524-.835-2.101l-.108.167-2.352 3.668" fill="#fff"/>
    <path d="M373.127 79.201a2825.22 2825.22 0 0 1-1.708 4.021l-.08.19-13.026-6.073-12.373-5.768.937 9.324 11.784 5.51a5.331 5.331 0 0 1 2.971 5.88c1.339.739 4.421 2.479 4.648 2.606a9.312 9.312 0 0 1-.099.21l-4.957 10.523c.69.223 2.556.843 2.799.947a8.373 8.373 0 0 1 2.465 1.628c.36-.047.723-.073 1.09-.073.87 0 1.757.138 2.63.421l6.319 2.076 1.962-3.167-8.79-4.114a5.33 5.33 0 0 1-2.172-7.797c.212-.318.454-.61.724-.867a5.359 5.359 0 0 1 3.713-1.503 5.32 5.32 0 0 1 2.256.505l15.557 7.287a5.307 5.307 0 0 1 2.707 2.896c.23-.078.468-.141.71-.185a5.208 5.208 0 0 1 1.74-.04c.21-.242.46-.432.703-.63-.013-.135-.03-.268-.045-.403-.447-4.227-1.124-8.182-2.024-11.861l-.208-.068c-.933-.303-4.764-1.544-6.59-2.143l.071-.167.09-.208c1.114-2.571 2.218-5.149 3.328-7.724a63.362 63.362 0 0 0-2.568-5.493c.004-.003.008-.006.012-.007a17.485 17.485 0 0 0-.52-1.125 60.023 60.023 0 0 0-3.491-5.607l-.212-.293a55.656 55.656 0 0 0-1.219-1.626c-.961-1.243-1.84-2.28-2.44-2.898-.094.261-3.208 7.603-5.634 13.321-.376.882-.732 1.723-1.06 2.495" fill="#fff200"/>
    <path d="M336.475 74.92c3.969 1.086 7.242 3.075 9.917 5.748.161.077.323.153.485.227l-.937-9.324c-.227-.121-.452-.244-.679-.366l-.669-.36a1.386 1.386 0 0 0-.064-.034l-8.053 4.109" fill="#00a650"/>
    <path d="M359.763 95.376a5.354 5.354 0 0 1-3.363 1.19c-.599 0-1.201-.133-1.792-.347 1.145 4.33 1.8 9.034 2.073 13.871.02.003.04.005.06.01l.146.023 2.066.324 2.266-4.824.005.001 4.957-10.523.099-.21-4.648-2.606a5.405 5.405 0 0 1-.399 1.205 5.315 5.315 0 0 1-1.47 1.886" fill="#231f20"/>
    <path d="m358.952 110.449.001-.002-2.066-.324-.206-.033c.103 1.814.156 3.645.156 5.484 0 1.271-.04 3.088-.164 5.22l14.946 2.438a5.335 5.335 0 0 0 6.095-4.443c.455-2.91-1.186-5.614-4.442-6.096l-5.085-.798-9.235-1.446m29.869 4.649a5.448 5.448 0 0 0-.836 10.828l7.623 1.177h.001l.007-.073.004-.05c.133-1.339.25-2.672.343-3.998.088-1.676.153-3.97.2-5.812l.024-.982-7.366-1.09" fill="#ed1c24"/>
    <path d="M338.95 156.975s.346 1.346 1.293 2.137a8.208 8.208 0 0 0 5.325 1.93c.119 0 .24-.013.36-.018.165-.007.33-.007.496-.024a8.37 8.37 0 0 0 4.067-1.557l-.687-.727a4.787 4.787 0 0 1 .756-7.223c.281-.197.58-.361.89-.488a4.73 4.73 0 0 1 .96-.281c.34-.064.689-.079 1.035-.067l.282-11.96s-2.16 6.936-5.278 10.81c-3.508 4.36-9.5 7.468-9.5 7.468" fill="#00adef"/>
    <path d="M351.45 151.005c-.31.127-.609.291-.89.488a4.77 4.77 0 0 0-1.94 2.859 4.787 4.787 0 0 0 1.184 4.364l.687.727a8.37 8.37 0 0 1-4.067 1.557c-.167.017-.33.017-.496.024l-.012.103c.17-.027.335-.076.51-.095a8.454 8.454 0 0 1 7.677 3.419l.305-.82 3.432 3.67-2.18 1.1-7.79 3.932a4.636 4.636 0 0 0-2.342 2.696 4.633 4.633 0 0 0 .248 3.563 4.66 4.66 0 0 0 4.18 2.585c.725 0 1.424-.164 2.079-.489.577-.288 2.485-1.233 4.65-2.307l8.012-3.972c.091.08.172.167.268.237.346.263.719.47 1.112.626.839.33 1.754.419 2.634.252a4.68 4.68 0 0 0 1.849-.768 4.767 4.767 0 0 0 1.94-2.86c.115-.495.119-1.003.073-1.507l1.646-.788.202-.098a4.868 4.868 0 0 0 1.922-1.645 4.908 4.908 0 0 0 .376-4.882 4.859 4.859 0 0 0-2.79-2.5 4.862 4.862 0 0 0-3.738.203l-3.528 1.866a9085.498 9085.498 0 0 1-9.903-10.405 4.89 4.89 0 0 0-1.717-1.163 4.737 4.737 0 0 0-1.598-.32 4.738 4.738 0 0 0-1.036.067 4.73 4.73 0 0 0-.958.281m16.126-42.879c-.366 0-.729.026-1.089.073a8.373 8.373 0 0 0-2.465-1.628l-2.799-.947h-.005l-2.266 4.823-.001.002 9.235 1.446 4.958.778.272-.738c1.962.428 3.115-1.31 3.11-1.312l-6.319-2.076a8.506 8.506 0 0 0-2.63-.421" fill="#fff"/>
    <path d="M386.841 88.366c-.042.1-.072.167-.072.167l6.591 2.143.208.068c-.905-3.697-2.013-7.136-3.31-10.31-.98 2.28-2.786 6.47-3.327 7.724l-.09.208" fill="#231f20"/>
    <path d="M589.384 162.8a8.446 8.446 0 0 0 5.781-4.33l-18.732-5.129-2.674 4.878v5.053l7.234 1.244 8.391-1.716" fill="#00a650"/>
    <path d="M595.165 158.47a8.409 8.409 0 0 0 .81-5.651 8.414 8.414 0 0 0-2.775-4.722 8.456 8.456 0 0 0-5.504-2.045c-.56 0-1.13.057-1.703.175l-12.234 2.498v9.494l2.674-4.878 18.732 5.128" fill="#ed1c24"/>
    <path d="M612.964 129.167h-.056c-.105 0-.212-.017-.317-.023a5.933 5.933 0 0 1-.76-.106c-.039-.008-.078-.014-.118-.023a6.759 6.759 0 0 1-.302-.073 6.926 6.926 0 0 1-.766-.24l-1.146 2.106c-.73 1.336-.623 2.885.116 4.096-1.687.728-3.37 1.46-5.055 2.19a4.06 4.06 0 0 1 .827 1.909 4.079 4.079 0 0 1-.771 3.029 4.102 4.102 0 0 1-3.755 1.604 4.097 4.097 0 0 1-1.958-.784l-10.415-7.65-14.535-2.36.436-.797c1.778-3.246 8.442-15.416 8.698-15.886a338.617 338.617 0 0 0 .84-1.535l.35-.642c.184-.337.836-1.244 1.359-1.903l.133-.17a5.72 5.72 0 0 1 .44-.497c.972-.9 2.307-1.268 3.596-1.156-.996-1.016-1.993-2.034-2.994-3.047a8.46 8.46 0 0 1 .066-11.961 8.436 8.436 0 0 1 5.948-2.445c.924 0 1.848.153 2.732.453 2.175-3.994 4.342-7.992 6.514-11.989.001.003.034.063.081.142.136.237.27.474.41.71a5.304 5.304 0 0 0 3.04 2.431 5.304 5.304 0 0 0 .575 3.85l2.916 5.075s-4.292 7.93-4.3 7.921l.008.008a866.51 866.51 0 0 1 5.994 6.248 8.416 8.416 0 0 1 1.922 3.244l1.21-2.242V91.923c0-2.455-.056-4.774-.164-6.995a105.423 105.423 0 0 0-.248-3.757 44.702 44.702 0 0 0-.104-1.57c-.292-2.76-.703-5.334-1.272-7.718-1.422-5.548-3.47-9.08-4.019-9.99-1.517-2.513-4.603-6.828-11.192-10.552-.377-.213-.732-.44-1.124-.645-1.11-.617-2.287-1.157-3.49-1.663a41.404 41.404 0 0 0-2.58-.965l-8.975 9.654a482.31 482.31 0 0 0 1.652-.687 4.618 4.618 0 0 1 3.56-.047 4.629 4.629 0 0 1 2.549 2.482 4.668 4.668 0 0 1-.548 4.618 4.668 4.668 0 0 1-1.888 1.487l-.999.43s-11.674 4.582-11.73 4.62l13.286 12.608a8.455 8.455 0 0 1 .179 11.958 8.434 8.434 0 0 1-6.07 2.567 8.43 8.43 0 0 1-5.891-2.39c-.504-.49-1.022-.968-1.53-1.457.348 3.216.43 7.653.43 14.553v40.261l12.234-2.498a8.485 8.485 0 0 1 1.703-.175c2.055 0 3.999.753 5.504 2.045a8.414 8.414 0 0 1 2.775 4.722 8.409 8.409 0 0 1-1.015 6.017 8.446 8.446 0 0 1-5.576 3.964l-8.39 1.716 10.586 1.81a8.458 8.458 0 0 1 7.036 8.524 8.466 8.466 0 0 1 9.456-5.725c.221.037.441.076.664.112 0 0-5.37 9.456-8.095 14.172l-.012-.016a8.454 8.454 0 0 1-2.426-6.117 8.464 8.464 0 0 1-8.035 5.846c-.472 0-.95-.038-1.43-.122l-14.98-2.623v5.314h40.169v-31.812l-7.051-5.18a4.056 4.056 0 0 1-1.593-2.686 4.067 4.067 0 0 1 .768-3.028 4.103 4.103 0 0 1 3.754-1.606 4.06 4.06 0 0 1 1.959.783l2.163 1.588v-14.583c-.09.003-.459.024-.963 0" fill="#231f20"/>
    <path d="m613.927 108.654-1.21 2.242.003.001a2938.034 2938.034 0 0 1-5.076 9.398c-.964 1.768-.924 3.797-.101 5.476.312.638.726 1.23 1.257 1.732.399.39 1.315.923 1.6 1.086l.053.03.042.023c.014.007.073.03.15.06a8.625 8.625 0 0 0 .766.24c.098.026.194.05.302.073.04.009.079.015.118.023.245.051.498.086.76.106.105.006.212.023.317.023h1.019v-20.513" fill="#ed1c24"/>
    <path d="M579.232 126.886a4.05 4.05 0 0 1 .77-3.029 4.086 4.086 0 0 1 5.71-.825l5.201 3.82s2.027-3.437 2.096-3.437a4.64 4.64 0 0 0 3.17-1.245 4.627 4.627 0 0 0 1.493-3.245c.008-.187-.019-.37-.033-.555a4.608 4.608 0 0 0-1.207-2.794l-3.627-3.917a4.409 4.409 0 0 0-1.589-1.072 4.935 4.935 0 0 0-1.41-.331c-1.29-.112-2.625.255-3.597 1.156a4.074 4.074 0 0 0-.44.497l-.133.17a4.94 4.94 0 0 0-.38.617 5.87 5.87 0 0 0-.979 1.286l-.35.642a338.617 338.617 0 0 1-.84 1.535c-.256.47-6.92 12.64-8.698 15.886l-.436.797 14.535 2.36-7.661-5.631a4.05 4.05 0 0 1-1.595-2.685" fill="#fff"/>
    <path d="m604.801 101.404-4.204 7.716a6 6 0 0 1-5.273 3.13 5.96 5.96 0 0 1-2.49-.56l3.598 3.886a4.608 4.608 0 0 1 1.207 2.794l3.961 2.993.365.932c.643.24 1.238.604 1.715 1.12l2.435 2.836 1.428-.48c-.823-1.68-.863-3.708.101-5.476 1.148-2.107 3.597-6.651 5.076-9.398h-.003a8.416 8.416 0 0 0-1.922-3.245 866.51 866.51 0 0 0-5.994-6.248m-5.961-6.088a836.93 836.93 0 0 1 5.953 6.08l4.3-7.921-2.916-5.075a5.304 5.304 0 0 1-.574-3.85 5.304 5.304 0 0 1-3.042-2.431 110.656 110.656 0 0 1-.49-.852c-2.172 3.997-4.339 7.995-6.514 11.989.006.002.01.002.015.005a8.416 8.416 0 0 1 3.268 2.055" fill="#fff200"/>
    <path d="M509.69 72.642a4.05 4.05 0 0 1-.773 3.026 4.1 4.1 0 0 1-3.753 1.606l-.004-.001c-.019-.002-.035.002-.053.001-.064-.008-.124-.033-.187-.048a9.98 9.98 0 0 1-.408-.105c1.017.981 1.693 2.197 1.927 3.534.302 1.734-.163 3.452-1.31 4.841-1.53 1.846-4.09 2.804-6.678 2.498-1-.118-1.963-.43-2.835-.897-.185.332-.368.665-.557.995a6.711 6.711 0 0 0-.668 5.016 6.733 6.733 0 0 0 12.353 1.677c.101.112.203.229.319.333a1166.69 1166.69 0 0 0 7.988 7.174 4.655 4.655 0 0 0 3.101 1.183 4.67 4.67 0 0 0 3.487-1.566 4.618 4.618 0 0 0 1.126-2.408l-1.74 1.14a4.057 4.057 0 0 1-3.073.555 4.062 4.062 0 0 1-2.57-1.778 4.094 4.094 0 0 1-.193-4.078 4.078 4.078 0 0 1 1.416-1.562l1.696-1.11-6.905-6.218c.353-.644.72-1.28 1.072-1.925.161-.292.293-.588.408-.889l.005-.01-1.757-1.292a4.054 4.054 0 0 1-1.595-2.684 4.042 4.042 0 0 1 .77-3.027 4.095 4.095 0 0 1 3.752-1.607 4.09 4.09 0 0 1 1.96.783l.813.597c.068-.125 4.393-4.421 4.393-4.421 1.502-1.412 1.836-3.583 1.014-5.359a4.6 4.6 0 0 0-.814-1.237c-1.358-1.444-3.648-1.855-5.404-1.015-.896-1.117-2.326-1.747-3.77-1.721a4.517 4.517 0 0 0-1.667.336 4.67 4.67 0 0 0-2.512 6.1l.27.65-.16.295c.011.011.022.023.037.035a4.061 4.061 0 0 1 1.48 2.583" fill="#fff"/>
    <path d="M54.116 82.269a4.06 4.06 0 0 1-.13-1.36l-3.323-1.703a4.1 4.1 0 0 1-2.053.585 4.104 4.104 0 0 1-2.042-.524l-4.971-2.738-.955-.527-1.191 4.137-.006-.003-.665 2.295a4.069 4.069 0 0 1 2.185-.47c.712.05 1.4.29 1.993.69l8.418 5.602c2.072-.797 4.497-1.466 7.31-2.09l-2.64-1.44a4.045 4.045 0 0 1-1.93-2.454" fill="#231f20"/>
    <path d="m26.394 68.075-3.493 1.24 11.824 7.868a4.065 4.065 0 0 1 1.443 1.752l.147.055 2.091.766a524.428 524.428 0 0 0 1.037.38h.002l.006.003 1.19-4.137-4.516-2.513-9.731-5.414m-7.054 95.312a6.655 6.655 0 0 0-3.417 8.744 6.608 6.608 0 0 0 3.67 3.515 6.578 6.578 0 0 0 5.075-.102l1.943-.872 2.686-1.203 3.252-1.457 7.9-3.538v-14.546l-14.907 6.68-6.201 2.779" fill="#ed1c24"/>
    <path d="M16.954 62.423c.068.003.133.024.202.024a4.096 4.096 0 0 0 3.514-2.078c.032-.057.049-.12.078-.178a4.055 4.055 0 0 0-1.634-5.383l-11.89-6.552H0v5.34l15.112 8.328c.566.316 1.2.474 1.842.5" fill="#fff200"/>
    <path d="m6.567 129.22-.146.745 5.016-1.385a4.834 4.834 0 0 0-2.577-9.318l-.357.1v.002a31234.937 31234.937 0 0 0-1.935 9.856" fill="#00a650"/>
    <path d="M110.135 102.955c1.246.431 2.58.36 3.768-.216a4.9 4.9 0 0 0 2.514-2.814l2.988-8.773 1.387-4.07 4.362-12.807a4.93 4.93 0 0 0 .19-2.537 4.953 4.953 0 0 0-3.213-3.745 4.91 4.91 0 0 0-3.767.212 4.911 4.911 0 0 0-2.52 2.811l-8.258 24.251c.104.22.196.45.267.69.358 1.216.334 2.434-.161 3.426-.126.25-.29.503-.481.753a4.935 4.935 0 0 0 2.924 2.819" fill="#00adef"/>
    <path d="M101.852 92.685a4.823 4.823 0 0 1 1.366-.197 4.836 4.836 0 0 1 4.368 2.78l1.865-5.477a3765.402 3765.402 0 0 0-8.34-3.527l.538-1.795s-6.265-.678-6.789-.803a72.118 72.118 0 0 0-1.761 4.488 75.7 75.7 0 0 0-1.932 6.232c-.133.508-.244 1.029-.368 1.542l.25-.073 10.803-3.17" fill="#ed1c24"/>
    <path d="M90.415 118.69s4.758-10.505 4.709-10.537c.017.01-.296-3.285-.301-3.331 0 0 10.072-2.96 10.22-3.025.332-.143.627-.307.897-.483.54-.352.952-.759 1.27-1.178a4.8 4.8 0 0 0 .482-.753c.495-.992.519-2.21.16-3.426a4.69 4.69 0 0 0-.266-.69 4.836 4.836 0 0 0-4.368-2.78c-.452 0-.91.064-1.366.198l-10.803 3.17-.25.073c-1.595 6.627-2.414 13.65-2.414 20.943 0 .137.007.269.01.403v.073l2.02 1.344" fill="#fff200"/>
    <path d="M101.11 86.264c2.783 1.171 5.562 2.349 8.34 3.527l6.394-18.775a4.911 4.911 0 0 1 2.52-2.811 4.91 4.91 0 0 1 3.767-.212 4.953 4.953 0 0 1 3.213 3.745 4.93 4.93 0 0 1-.19 2.537l-4.362 12.806c.002 0 2.971-.4 4.194-.517 1.407-.135 2.833.498 3.975 1.508.018.017.085.074.185.161.677.594 3.01 2.63 4.063 3.542.351.302.699.606 1.05.906.206-.398.448-.778.668-1.169.098-.177.2-.353.301-.529.23-.393.43-.798.675-1.182 5.52-8.672 12.354-12.614 23.922-13.402 5.511-.499 14.359-.27 22.458 6.568a5.287 5.287 0 0 1 2.262-.13c5.51.886 11.016 1.768 16.526 2.65a5.323 5.323 0 0 1 3.321 1.934 5.317 5.317 0 0 1 3.757-.802c3.934.629 13.196 2.193 13.316 2.193.052 0 .104.012.156.013l7.876-3.475c-.384-.925-.762-1.848-1.189-2.768-3.864-8.352-9.507-16.402-17.57-22.954-3.794-3.086-8.13-5.83-13.055-8.127-4.599-2.142-9.71-3.89-15.4-5.134-.987-.215-2.014-.395-3.035-.579a91.806 91.806 0 0 0-4.685-.72 99.57 99.57 0 0 0-7.118-.68c-2.738-.15-5.389-.18-7.988-.137-6.716.112-12.977.833-18.746 2.14a75.426 75.426 0 0 0-6.476 1.79l-.006.015-4.581 13.655a4.884 4.884 0 0 1-2.514 2.814 4.913 4.913 0 0 1-3.769.216 4.949 4.949 0 0 1-3.212-3.742 4.892 4.892 0 0 1 .188-2.542l1.734-5.202.002-.007-.075.044-.079.045c-.493.279-.988.571-1.47.856-4.632 2.741-8.773 5.97-12.404 9.636-.439.445-1.09 1.154-1.515 1.608-.865.94-1.7 1.901-2.503 2.89-2.73 3.362-5.096 7.011-7.112 10.898l-.19.365a68.842 68.842 0 0 0-1.869 3.936c.524.125 6.79.803 6.79.803l-.54 1.795" fill="#231f20"/>
    <path d="M449.895 173.219a4.049 4.049 0 0 1 .836-3.008c.2-.256.436-.474.686-.67-3.036 1.398-10.35 4.594-10.35 4.594-2.055.777-3.726 2.49-3.726 4.85a4.697 4.697 0 0 0 4.698 4.698c.573 0 1.116-.118 1.624-.304.014-.004.216-.095.492-.217.74-.335 2.056-.938 2.056-.938.01-.005.022-.007.034-.012 2.78-1.29 5.563-2.576 8.348-3.856l-3.165-2.417a4.042 4.042 0 0 1-1.533-2.72" fill="#fff"/>
    <path d="M502.428 174.62a5.315 5.315 0 0 0 4.513-2.484 5.307 5.307 0 0 0 .766-3.641 5.334 5.334 0 0 0-2.427-3.719l-10.008-6.277a5.335 5.335 0 0 0 2.933 5.473l-6.15 1.224v3.864c.022.014 5.733 3.602 7.529 4.735a5.3 5.3 0 0 0 2.844.825" fill="#00a650"/>
    <path d="M526.863 149.303a5.318 5.318 0 0 1-4.512 2.484 5.3 5.3 0 0 1-2.844-.825l-15.859-8.853-10.241 11.018c-.388.41-.848.725-1.352.94v2.415l3.217 2.017 10.008 6.277a5.334 5.334 0 0 1-5.696 9.019 6637.71 6637.71 0 0 0-7.53-4.735v16.63h26.963a5.084 5.084 0 0 1-1.037-.9 4.878 4.878 0 0 1-.755-5.373c.107-.224.211-.448.355-.661 1.53-2.277 4.95-3.025 7.285-1.593l2.516 1.544a4.913 4.913 0 0 1 1.738 1.83c.233.416.425.855.528 1.332a4.895 4.895 0 0 1-.2 2.707 5.28 5.28 0 0 1-.55 1.115h3.587v-34.375l-4.921-3.758a5.246 5.246 0 0 1-.7 1.745" fill="#231f20"/>
    <path d="M530.53 140.215a4.089 4.089 0 0 0-3.789 1.52c-.242.313-.42.656-.561 1.013a3.997 3.997 0 0 0-.275 1.996 4.04 4.04 0 0 0 1.534 2.72l5.045 3.852V141.05l-.013-.01a4.04 4.04 0 0 0-1.942-.826" fill="#ed1c24"/>
    <path d="M508.679 136.699a4.127 4.127 0 0 0 1.005-1.856c.099-.416.11-.838.077-1.254l-4.796-3.694a4.065 4.065 0 0 0-2.065 1.072c-.047.045-10.845 11.624-10.845 11.624s-.019 11.485 0 11.477c.504-.216.964-.53 1.352-.941l15.272-16.428" fill="#fff200"/>
    <path d="M520.84 141.456c.945.133 1.88-.099 2.675-.576.416-.252.805-.55 1.114-.943a4.07 4.07 0 0 0 .842-3.009 4.068 4.068 0 0 0-1.534-2.724l-7.549-5.814-6.495-5.003-3.73-2.873a4.096 4.096 0 0 0-5.732.695 4.07 4.07 0 0 0-.836 3.01 4.052 4.052 0 0 0 1.534 2.72l17.771 13.69a4.111 4.111 0 0 0 1.94.827M341.723 53.97a4.064 4.064 0 0 0-1.654 1.307 4.097 4.097 0 0 0-.478 4.056 4.065 4.065 0 0 0 2.244 2.176 4.057 4.057 0 0 0 3.122-.045s7.022-3.117 12.956-5.755c4.295-1.909 8.02-3.57 8.094-3.616a57.458 57.458 0 0 0-9.827-4.505l-12.439 5.49-2.018.891m-6.124 11.634.314-.139a4.076 4.076 0 0 0 1.656-1.307 4.099 4.099 0 0 0 .479-4.054 4.058 4.058 0 0 0-2.24-2.177 4.068 4.068 0 0 0-3.124.041l-7.335 3.237-13.192 5.82a4.091 4.091 0 0 0-2.13 5.363 4.056 4.056 0 0 0 2.242 2.175 4.055 4.055 0 0 0 3.123-.045l13.273-5.855 4.403-1.942 2.53-1.117" fill="#ed1c24"/>
    <path d="M259.103 48.72v3.583l1.94-3.024c-.647-.186-1.294-.371-1.94-.559m10.05 11.797c.008-.024.02-.044.027-.068a8.436 8.436 0 0 0-1.084-7.046l-6.773 10.557a4.025 4.025 0 0 1-2.22 1.647v.69c.654.154 1.312.25 1.958.25a8.458 8.458 0 0 0 8.092-6.03" fill="#fff200"/>
    <path d="m261.323 63.96 6.773-10.557 2.352-3.668.108-.167 2.879-4.488a4.088 4.088 0 0 0-1.18-5.648 4.058 4.058 0 0 0-3.071-.58 4.074 4.074 0 0 0-2.583 1.761l-5.558 8.666-1.94 3.024v13.304a4.025 4.025 0 0 0 2.22-1.647" fill="#00adef"/>
    <path d="M303.655 87.581a64.057 64.057 0 0 0-.652-.2 8.428 8.428 0 0 0-2.459-.365c-.427 0-.85.031-1.265.094a8.446 8.446 0 0 0-3.25-1.836c-.68-.206-1.357-.409-2.037-.612l-7.068 15.54c1.301.388 3.827 1.148 4.232 1.268.044.013 1.07.232 1.879.322.186.012.372.04.556.04.428 0 .852-.035 1.268-.097l3.382 1.998.407-2.35c.881-4.546 2.4-9.432 5.007-13.802" fill="#fff200"/>
    <path d="M332.288 187.482a4.05 4.05 0 0 1-2.275-2.137 4.059 4.059 0 0 1-.1-3.123 4.085 4.085 0 0 1 3.162-2.582c.278-.047.56-.04.841-.028l5.596-2.89c-.21-2.094-.437-4.327-.65-6.425a8.445 8.445 0 0 1 2.607-6.997c1.191-1.13 2.726-1.892 4.447-2.173l.012-.103c-.12.005-.241.019-.36.019a8.37 8.37 0 0 1-2.825-.488 8.208 8.208 0 0 1-2.5-1.443c-.947-.79-1.294-2.137-1.294-2.137-.057.024-.113.044-.17.068-3.095 1.446-6.786 2.434-11.124 2.434-6.844 0-13.832-2.48-19.128-7.208l-16.088-10.712a4.052 4.052 0 0 1-1.716-2.607 4.055 4.055 0 0 1 .626-3.062 4.089 4.089 0 0 1 5.67-1.088l2.842 1.892c-1.766-6.766-2.44-14.363-2.44-20.858 0-1.356.011-3.38.159-5.809.153-2.53.661-6.292.661-6.292l-3.382-1.998c-.416.062-.84.096-1.268.096-.184 0-.37-.027-.556-.039a20.764 20.764 0 0 1-1.879-.322h-.005l-4.227-1.269-2.328 4.995c.11.06 6.561 4.393 6.561 4.393a4.697 4.697 0 0 1 .764 7.09 4.599 4.599 0 0 1-1.616 1.121 4.72 4.72 0 0 1-2.582.3 4.692 4.692 0 0 1-1.098-.331l-3.126-2.102-2.884-1.937-3.702 7.932 2.028 1.35a4.064 4.064 0 0 1 1.716 2.612 4.062 4.062 0 0 1-.63 3.06 4.1 4.1 0 0 1-3.676 1.778 4.102 4.102 0 0 1-1.992-.693l-.94-.625-11.612 24.85c.465.987.52 2.093.156 3.12a4.075 4.075 0 0 1-1.155 1.68c.644.313 1.288.629 1.932.943a4.05 4.05 0 0 1 .139-2.2 4.098 4.098 0 0 1 3.113-2.644 4.102 4.102 0 0 1 2.103.17l21.193 7.36a4.066 4.066 0 0 1 2.316 2.098 4.07 4.07 0 0 1 .155 3.122 4.102 4.102 0 0 1-3.114 2.64 4.089 4.089 0 0 1-2.102-.172s-8.048-2.59-8.051-2.58c0 0-.143.466-.241.696a5.335 5.335 0 0 1-7.008 2.79 4280.93 4280.93 0 0 1-10.543-4.561 8.42 8.42 0 0 1-.216.125 5.312 5.312 0 0 1 .225 3.883l-.46 1.415-1.146-.56v14.445h38.845l-1.424-13.047c-.072-.122-.153-.238-.212-.369a4.065 4.065 0 0 1-.103-3.123 4.095 4.095 0 0 1 5.262-2.374l21.052 7.754a4.078 4.078 0 0 1 2.277 2.144c.448.995.48 2.102.096 3.123a4.1 4.1 0 0 1-3.163 2.581 4.064 4.064 0 0 1-2.098-.212l-19.662-7.244c5.396 5.283 15.336 12.982 30.748 14.095 1.866.17 3.814.265 5.864.265.202 0 .398-.006.595-.012l.157-.002-5.049-1.86" fill="#231f20"/>
    <path d="M439.357 92.081a4.09 4.09 0 0 1 1.994.69l3.129 2.085 4.184-4.176a4.058 4.058 0 0 1 1.747-.993l-1.772-1.144-.706-.468a4.748 4.748 0 0 0-2.688-.775c-.349-.883-.993-1.533-1.761-2.172 0 0-3.945-3.64-5.328-5.073a4.681 4.681 0 0 0-2.136-1.252 5.146 5.146 0 0 0-10.183 1.053c0 1.39.558 2.643 1.452 3.57l5.827 3.878a4.055 4.055 0 0 1 1.716 2.61c.047.24.063.48.067.72l2.333 1.878a4.08 4.08 0 0 1 2.125-.43" fill="#fff"/>
    <path d="M38.313 107.813a4.47 4.47 0 0 0-4.138 1.66 4.499 4.499 0 0 0-.614 1.107 4.403 4.403 0 0 0 1.375 5.152l3.399 2.594 2.113 1.613v-11.213l-.014-.012a4.415 4.415 0 0 0-2.121-.9" fill="#fff200"/>
    <path d="M128.133 106.92c-.628 0-1.241.126-1.825.373l-2.59 1.106-2.267 4.624a4.676 4.676 0 0 0-.467 2.372 4.678 4.678 0 0 0 1.961 3.483c1.968-.84 3.934-1.682 5.901-2.52l.23-.1.676-9.033c-.012-.005-.025-.006-.036-.01a4.824 4.824 0 0 0-1.583-.294" fill="#00adef"/>
</svg>
