<svg xmlns="http://www.w3.org/2000/svg" viewBox="0 0 160 150">
    <path d="m21.32 18.65.04-5.99a.69.69 0 0 1 .69-.69l32.71.02a.69.69 0 0 1 .69.69v5.98a.69.69 0 0 1-.7.69l-11.03-.09a.69.69 0 0 0-.69.68l-.23 31.99a.69.69 0 0 1-.69.68l-7.12-.06a.69.69 0 0 1-.68-.69l.04-31.94a.69.69 0 0 0-.7-.69l-11.63.11a.69.69 0 0 1-.7-.69ZM69.46 35.82l.11 16.06a.72.72 0 0 1-.71.73l-6.91.05a.72.72 0 0 1-.73-.72v-39.3a.72.72 0 0 1 .72-.72l6.83-.05a.72.72 0 0 1 .73.73l-.02 15.03a.72.72 0 0 0 .72.72l15.67-.02a.72.72 0 0 0 .72-.72l-.04-15.04a.72.72 0 0 1 .74-.72l7.25.19a.72.72 0 0 1 .7.72l.04 39.06a.72.72 0 0 1-.73.72l-7.16-.08a.72.72 0 0 1-.71-.72l-.12-15.93a.72.72 0 0 0-.72-.72H70.18a.72.72 0 0 0-.72.73ZM113.47 28.28l20.48-.07a.52.52 0 0 1 .52.52l-.01 5.81a.52.52 0 0 1-.52.52L113.56 35a.52.52 0 0 0-.53.52l-.09 9.9a.52.52 0 0 0 .52.53h22.87a.52.52 0 0 1 .52.52v5.65a.52.52 0 0 1-.52.52l-31.5-.02a.52.52 0 0 1-.52-.52l.06-39.63a.52.52 0 0 1 .52-.52l30.58.1a.52.52 0 0 1 .52.52l.03 6.21a.52.52 0 0 1-.52.52h-21.96a.52.52 0 0 0-.52.52l-.08 7.93a.52.52 0 0 0 .53.53ZM47.72 103.46c5.96.65 13.43.08 14.6-6.85q.59-3.49.62-8.06.08-15.3-.31-29.38-.02-.66.64-.66l11.19-.03q.79-.01.79.79.12 14.9.16 29.14.02 10.1-1.81 14.16c-5.22 11.52-23.66 11.8-34.11 8.99q-8.25-2.21-11.57-8.49c-2.04-3.84-2.4-9.25-2.41-13.62q-.04-15.2.03-30.3 0-.66.66-.66l11.99.01q.51 0 .49.51-.82 17.94-.3 34.86c.17 5.53 3.95 9.01 9.34 9.59ZM101.71 92.18l.05 18.96a.65.65 0 0 1-.65.66l-11.19.02a.65.65 0 0 1-.65-.65l-.14-51.97q0-.65.64-.65 14.37-.16 28.23.01c8.9.11 16.84 3.57 18.79 13.12 1.44 7.07-1.85 13.76-8.26 17.3q-4.43 2.45-10.63 2.51-8.35.08-15.46-.03-.74-.01-.73.72Zm0-24.36-.02 14.4a.39.39 0 0 0 .39.39l12.05.02a9.86 7.24.1 0 0 9.87-7.22v-.7a9.86 7.24.1 0 0-9.85-7.26l-12.05-.02a.39.39 0 0 0-.39.39ZM26.33 132.05c1.86 4.86 7.41 5.01 9.18.06q.19-.54.77-.55 1.5-.04 2.61 1.09.98.98.14 2.08c-1.65 2.18-4.18 4.52-7.11 4.67-7.76.39-12.83-8.18-9.54-15.03q2.68-5.61 9.27-5.46c3.45.08 5.91 1.39 7.67 4.24a1.27 1.27 0 0 1-.89 1.92l-1.61.24q-.59.08-1-.35c-1.01-1.06-1.86-2.27-3.33-2.7-5.82-1.73-7.74 5.64-6.16 9.79ZM62.65 129.02a10.3 10.3 0 0 1-10.3 10.3 10.3 10.3 0 0 1-10.3-10.3 10.3 10.3 0 0 1 10.3-10.3 10.3 10.3 0 0 1 10.3 10.3Zm-10.342 6.88a7.01 5.91 90.1 0 0 5.922-7 7.01 5.91 90.1 0 0-5.898-7.02 7.01 5.91 90.1 0 0-5.922 7 7.01 5.91 90.1 0 0 5.898 7.02ZM81.53 125.26q-.93.74-1.19 1.99-1.23 5.97-2.68 10.9-.17.6-.74.86-1.13.52-2.5.21-.64-.14-.79-.77l-3.15-12.82a.39.39 0 0 0-.46-.29l-.28.06q-.66.14-.63.8l.43 11.78q.05 1.32-1.27 1.31l-1.49-.01q-1.24-.01-1.24-1.25v-18.24q0-.67.67-.68l4.51-.07a1.58 1.57-7.5 0 1 1.54 1.17l2.76 10.57q.34 1.29 1.2.28.21-.24.27-.57 1.07-5.87 2.89-10.85a.85.84 9.6 0 1 .78-.55l4.59-.09q.77-.01.77.75l-.01 18.49a1.02 1.01 89.7 0 1-1 1.02l-1.66.02a1.17 1.17 0 0 1-1.19-1.19l.25-12.64a.24.23 71.1 0 0-.38-.19Z"/>
    <rect x="89.77" y="119.02" width="4.14" height="20.2" rx="1"/>
    <path d="M102.02 126.33a.61.61 0 0 0-.48.65q.53 5.87.27 11.21-.05 1.05-1.1 1.06l-1.43.01q-1.23.01-1.24-1.23l-.05-18.07q0-.73.72-.86c1.44-.26 3.08-.41 4.04 1.01q3.9 5.78 6.86 10.88.3.51.86.6a.52.51-86.2 0 0 .59-.52l-.33-11.03q-.04-1.02.98-1.03l1.79-.02a1.01 1 0 0 1 1.02 1.01l-.02 18.51a.75.74-89.3 0 1-.76.75l-2.31-.04q-.56-.01-.87-.48-4.01-5.92-7.77-12.07-.27-.45-.77-.34ZM132.71 131.38l-3 .03q-1.22.01-1.18-1.2l.03-.77q.04-1.21 1.25-1.2l7.69.04a.73.73 0 0 1 .72.72l.13 6.23q.01.52-.44.78c-4.13 2.39-8.17 4.7-12.98 2.71-5.95-2.47-8.39-8.83-5.71-14.53 1.54-3.26 4.86-5.45 8.53-5.22q1.25.08 2.52.03c3.2-.14 5.79 2.38 7.59 5.11q.34.51-.27.59l-3.21.4a1.35 1.33 67.1 0 1-1.21-.5c-2.26-2.9-6.47-3.69-9.06-.68q-2.34 2.72-1.48 6.87c1.16 5.62 7.26 6.4 10.99 2.8a1.29 1.29 0 0 0-.91-2.21Z"/>
</svg>
