<svg viewBox="0 0 31 36" xmlns="http://www.w3.org/2000/svg">
    <g fill="#FFF" fill-rule="nonzero">
        <path d="m30.793 13.638-4.981-5.053a.702.702 0 0 0-.5-.21H23.68V3.514a.712.712 0 0 0-.707-.717h-8.129v-.173c0-1.447-1.16-2.624-2.586-2.624h-.836C9.996 0 8.836 1.177 8.836 2.624v.173H.706A.712.712 0 0 0 0 3.514v27.681c0 .396.317.717.707.717h10.347v3.37c0 .397.317.718.707.718h18.532c.39 0 .707-.321.707-.717V14.145a.723.723 0 0 0-.207-.507Zm-4.774-2.815 2.568 2.605h-2.568v-2.605ZM7.987 4.231h3.323c.39 0 .707-.321.707-.717a.712.712 0 0 0-.707-.717h-1.06v-.173c0-.656.526-1.19 1.172-1.19h.836c.646 0 1.172.534 1.172 1.19v.89c0 .396.317.717.707.717h1.555v1.434H7.987V4.231Zm3.774 4.144a.712.712 0 0 0-.707.717v21.386h-9.64V4.231h5.16v2.151c0 .397.316.718.707.718h9.118c.39 0 .707-.321.707-.718v-2.15h5.16v4.143H11.761Zm17.825 26.19H12.468V9.81h12.137v4.336c0 .396.317.717.707.717h4.274v19.704Z"/>
        <path d="M15.688 18h8.624c.38 0 .688-.224.688-.5s-.308-.5-.688-.5h-8.624c-.38 0-.688.224-.688.5s.308.5.688.5ZM27.265 20h-12.53c-.406 0-.735.224-.735.5s.33.5.735.5h12.53c.406 0 .735-.224.735-.5s-.329-.5-.735-.5ZM27.265 24h-12.53c-.406 0-.735.224-.735.5s.33.5.735.5h12.53c.406 0 .735-.224.735-.5s-.329-.5-.735-.5ZM27.265 28h-12.53c-.406 0-.735.224-.735.5s.33.5.735.5h12.53c.406 0 .735-.224.735-.5s-.329-.5-.735-.5ZM25.818 18h1.364c.452 0 .818-.224.818-.5s-.366-.5-.818-.5h-1.364c-.452 0-.818.224-.818.5s.366.5.818.5Z"/>
    </g>
</svg>
