<svg viewBox="0 0 36 27" xmlns="http://www.w3.org/2000/svg">
    <g fill="#FFF" fill-rule="nonzero">
        <path d="M30.218 27H5.782A5.79 5.79 0 0 1 0 21.216V5.784A5.79 5.79 0 0 1 5.782 0h24.436A5.79 5.79 0 0 1 36 5.784v15.432A5.79 5.79 0 0 1 30.218 27ZM5.782 1.691a4.096 4.096 0 0 0-4.091 4.093v15.432a4.097 4.097 0 0 0 4.091 4.093h24.436a4.097 4.097 0 0 0 4.092-4.093V5.784a4.096 4.096 0 0 0-4.092-4.093H5.782Z"/>
        <path d="m4.267 5.551 13.207 13.187c.82.819 2.08-.469 1.259-1.29L5.526 4.262c-.82-.82-2.08.469-1.259 1.29Z"/>
        <path d="M18.526 18.738 31.733 5.552c.821-.82-.438-2.11-1.259-1.29L17.267 17.448c-.821.82.438 2.11 1.259 1.29Z"/>
        <path d="m31.742 21.506-8.296-8.258c-.785-.78-1.974.464-1.188 1.246l8.296 8.258c.785.78 1.974-.464 1.188-1.246ZM6.446 22.752l8.296-8.258c.786-.782-.403-2.027-1.188-1.246l-8.296 8.257c-.786.783.403 2.028 1.188 1.247Z"/>
    </g>
</svg>
