<?xml version="1.0" encoding="UTF-8" standalone="no"?>
<!DOCTYPE svg PUBLIC "-//W3C//DTD SVG 1.1//EN" "http://www.w3.org/Graphics/SVG/1.1/DTD/svg11.dtd">
<svg xmlns="http://www.w3.org/2000/svg" version="1.1" viewBox="0.00 0.00 410.00 324.00">
<path fill="#fd883c" d="
  M 230.89 127.12
  Q 231.36 125.93 234.67 117.48
  C 240.32 103.06 249.36 89.51 261.66 79.89
  C 274.62 69.75 290.05 63.58 306.29 60.28
  C 313.20 58.87 320.54 58.61 327.61 58.81
  Q 341.70 59.21 358.07 58.98
  C 361.79 58.93 366.00 60.50 368.55 63.46
  C 371.90 67.36 376.98 74.01 375.88 78.34
  C 375.18 81.08 372.97 82.83 372.07 85.49
  C 371.14 88.26 371.59 91.07 371.87 93.92
  C 372.40 99.26 374.15 104.87 375.39 109.84
  Q 379.15 124.80 377.79 139.39
  Q 376.31 155.37 365.47 169.83
  Q 343.06 199.74 304.54 197.69
  Q 301.52 197.53 298.64 197.22
  Q 295.37 196.86 292.38 196.25
  Q 273.03 192.33 256.53 182.50
  C 248.13 177.49 241.18 170.41 233.40 164.22
  C 223.29 156.19 213.68 160.86 204.28 167.07
  C 192.82 174.63 200.29 187.21 200.99 197.74
  C 201.18 200.71 201.80 203.57 201.87 206.50
  Q 202.26 222.33 199.23 233.20
  Q 195.57 246.30 186.14 258.58
  C 182.59 263.20 178.34 268.32 173.99 272.32
  Q 156.74 288.15 133.24 290.74
  Q 122.48 291.92 107.90 289.91
  Q 94.81 288.10 83.73 280.22
  Q 73.30 272.80 67.87 266.99
  Q 62.09 260.81 56.46 253.84
  Q 52.92 249.46 47.95 247.70
  C 44.89 246.62 38.71 246.98 36.97 243.88
  C 34.43 239.34 28.74 229.09 31.59 223.91
  Q 32.50 222.26 34.24 220.85
  Q 41.96 214.56 46.29 207.53
  Q 51.39 199.25 56.09 192.57
  Q 70.91 171.50 93.62 160.37
  Q 113.24 150.76 134.75 148.15
  Q 137.24 147.85 139.73 148.19
  C 144.06 148.77 148.33 148.92 152.63 149.63
  Q 162.02 151.20 170.55 153.90
  C 175.84 155.57 182.81 157.06 185.88 151.14
  Q 191.60 140.14 203.52 136.62
  Q 210.00 134.71 216.13 135.03
  C 222.40 135.36 228.37 133.51 230.89 127.12
  Z
  M 365.1101 99.9473
  A 63.27 59.16 -27.6 0 0 281.6314 76.8322
  A 63.27 59.16 -27.6 0 0 252.9699 158.5727
  A 63.27 59.16 -27.6 0 0 336.4486 181.6878
  A 63.27 59.16 -27.6 0 0 365.1101 99.9473
  Z
  M 182.7723 192.1434
  A 63.24 59.14 -27.7 0 0 99.2892 169.1778
  A 63.24 59.14 -27.7 0 0 70.7877 250.9366
  A 63.24 59.14 -27.7 0 0 154.2708 273.9022
  A 63.24 59.14 -27.7 0 0 182.7723 192.1434
  Z"
/>
</svg>
