<?xml version="1.0" encoding="UTF-8" standalone="no"?>
<!DOCTYPE svg PUBLIC "-//W3C//DTD SVG 1.1//EN" "http://www.w3.org/Graphics/SVG/1.1/DTD/svg11.dtd">
<svg xmlns="http://www.w3.org/2000/svg" version="1.1" viewBox="0.00 0.00 286.00 286.00">
<path fill="#ffffff" d="
  M 78.50 168.55
  Q 79.18 167.37 77.85 167.08
  Q 42.43 159.33 10.49 146.69
  Q 8.83 146.04 7.15 144.96
  C 2.66 142.09 4.15 135.41 8.82 133.70
  Q 40.44 122.15 76.16 115.60
  Q 77.81 115.30 79.34 114.55
  Q 80.03 114.21 79.63 113.56
  Q 73.29 103.37 67.11 92.59
  C 59.02 78.46 51.08 63.49 45.23 48.21
  Q 44.54 46.38 45.73 44.29
  Q 48.28 39.83 52.59 40.54
  Q 53.76 40.73 58.83 43.17
  Q 81.08 53.86 100.43 66.67
  Q 108.26 71.86 115.74 76.87
  Q 116.49 77.37 117.37 77.58
  A 1.16 1.16 0.0 0 0 118.78 76.71
  Q 126.44 42.05 138.68 10.63
  C 139.76 7.85 141.22 4.67 144.46 4.03
  Q 150.38 2.84 152.42 8.54
  Q 164.02 40.83 170.03 75.54
  C 170.16 76.25 170.63 77.12 170.79 77.86
  A 1.18 1.18 0.0 0 0 172.58 78.60
  Q 201.17 60.11 231.72 46.60
  Q 234.65 45.30 237.60 44.36
  Q 240.78 43.35 244.11 47.27
  C 246.17 49.68 245.16 52.66 243.96 55.19
  Q 228.53 87.65 208.19 115.97
  Q 207.39 117.08 208.64 117.62
  Q 210.00 118.22 211.48 118.52
  Q 244.69 125.44 278.01 139.13
  Q 281.36 140.50 281.92 143.97
  C 282.61 148.21 280.19 150.66 276.52 151.95
  Q 256.52 158.97 241.12 162.78
  Q 226.08 166.50 208.16 169.61
  A 1.30 1.30 0.0 0 0 207.26 171.55
  C 211.13 178.16 215.44 184.54 219.34 191.33
  Q 231.17 211.92 241.22 235.78
  C 242.76 239.45 239.91 243.40 236.53 244.30
  Q 234.30 244.90 231.87 243.76
  Q 206.83 232.00 186.45 218.70
  Q 178.73 213.65 169.89 207.59
  Q 168.66 206.75 168.09 208.12
  C 167.64 209.22 167.07 210.68 166.83 211.84
  Q 160.13 244.10 147.18 276.27
  C 146.31 278.44 145.14 280.49 142.60 281.01
  Q 136.40 282.29 134.12 276.14
  Q 125.56 253.05 120.03 226.83
  Q 118.03 217.37 116.26 207.65
  Q 115.90 205.65 114.05 206.49
  Q 112.96 206.99 111.94 207.65
  Q 82.79 226.37 52.17 239.40
  C 49.97 240.34 47.46 241.33 45.16 240.05
  Q 39.45 236.88 42.40 230.29
  C 50.85 211.43 61.74 193.21 73.89 175.77
  Q 76.52 171.99 78.50 168.55
  Z
  M 170.43 142.48
  A 27.14 27.14 0.0 0 0 143.29 115.34
  A 27.14 27.14 0.0 0 0 116.15 142.48
  A 27.14 27.14 0.0 0 0 143.29 169.62
  A 27.14 27.14 0.0 0 0 170.43 142.48
  Z"
/>
</svg>
