<?xml version="1.0" encoding="UTF-8" standalone="no"?>
<!DOCTYPE svg PUBLIC "-//W3C//DTD SVG 1.1//EN" "http://www.w3.org/Graphics/SVG/1.1/DTD/svg11.dtd">
<svg xmlns="http://www.w3.org/2000/svg" version="1.1" viewBox="0.00 0.00 484.00 466.00">
<path fill="#fe883c" d="
  M 340.69 86.14
  L 353.79 88.83
  A 0.31 0.31 0.0 0 1 353.79 89.43
  L 340.69 92.12
  A 0.31 0.31 0.0 0 0 340.45 92.36
  L 337.76 105.46
  A 0.31 0.31 0.0 0 1 337.16 105.46
  L 334.47 92.36
  A 0.31 0.31 0.0 0 0 334.23 92.12
  L 321.13 89.43
  A 0.31 0.31 0.0 0 1 321.13 88.83
  L 334.23 86.14
  A 0.31 0.31 0.0 0 0 334.47 85.90
  L 337.16 72.80
  A 0.31 0.31 0.0 0 1 337.76 72.80
  L 340.45 85.90
  A 0.31 0.31 0.0 0 0 340.69 86.14
  Z"
/>
<path fill="#fe883c" d="
  M 275.33 109.88
  A 1.45 1.45 0.0 0 1 274.39 108.57
  Q 274.36 107.35 273.02 107.22
  Q 266.41 106.56 260.02 105.20
  Q 257.84 104.73 260.03 104.31
  Q 265.81 103.21 272.47 102.34
  Q 274.85 102.03 274.23 99.85
  A 0.56 0.56 0.0 0 1 274.89 99.15
  Q 277.28 99.64 277.56 97.19
  Q 278.35 90.23 279.65 83.26
  Q 279.89 81.97 280.13 83.26
  Q 281.52 90.52 282.37 97.51
  Q 282.47 98.36 283.25 98.77
  C 284.23 99.28 284.94 100.33 285.54 101.22
  Q 285.83 101.66 286.32 101.88
  Q 287.72 102.52 289.30 102.67
  Q 294.43 103.15 298.92 104.21
  Q 301.40 104.79 298.91 105.31
  Q 292.67 106.61 286.91 107.29
  Q 285.50 107.45 285.12 108.82
  A 1.24 1.22 86.5 0 1 284.42 109.62
  Q 282.60 110.39 282.32 112.62
  Q 281.49 119.18 280.41 124.67
  Q 279.82 127.69 279.29 124.66
  Q 278.29 118.96 277.69 112.87
  Q 277.47 110.69 275.33 109.88
  Z"
/>
<path fill="#fe883c" d="
  M 270.23 208.85
  Q 270.86 207.77 271.76 206.87
  Q 306.31 172.32 341.78 136.85
  Q 343.07 135.55 344.63 136.52
  Q 351.57 140.87 355.77 147.91
  A 1.69 1.68 -39.1 0 1 355.56 149.90
  Q 353.82 151.82 351.94 153.69
  Q 327.95 177.45 299.99 205.75
  Q 289.96 215.89 282.80 222.68
  A 0.34 0.34 0.0 0 1 282.33 222.69
  Q 275.78 216.73 270.42 210.74
  Q 269.63 209.87 270.23 208.85
  Z"
/>
<path fill="#fe883c" d="
  M 406.79 155.40
  C 404.60 155.62 404.88 157.70 402.83 158.33
  Q 402.26 158.50 402.16 159.09
  Q 401.52 163.22 400.91 167.54
  Q 400.74 168.75 400.31 169.87
  Q 399.93 170.88 399.67 169.83
  Q 398.71 165.88 398.35 161.83
  C 398.04 158.44 395.40 155.46 391.95 155.16
  Q 388.97 154.91 386.21 154.43
  Q 383.08 153.88 386.16 153.08
  Q 389.47 152.22 393.06 151.86
  A 5.25 5.24 6.1 0 0 397.51 148.28
  Q 398.75 144.52 399.09 139.70
  Q 399.15 138.77 399.50 137.90
  Q 400.29 135.91 400.62 138.02
  L 402.13 147.72
  A 1.25 1.22 -77.1 0 0 402.63 148.54
  Q 403.75 149.34 404.51 150.70
  A 2.23 2.21 -12.7 0 0 406.33 151.84
  Q 411.62 152.13 416.45 153.49
  Q 417.48 153.78 416.43 153.99
  Q 411.90 154.89 406.79 155.40
  Z"
/>
<path fill="#fe883c" d="
  M 245.28 166.45
  A 2.46 2.44 -23.9 0 0 244.02 165.97
  Q 237.11 165.42 230.98 164.26
  Q 229.73 164.02 230.93 163.58
  Q 235.16 162.01 240.13 161.89
  C 245.87 161.76 249.30 158.07 249.79 152.53
  C 250.09 149.16 250.56 145.84 251.65 142.72
  Q 252.07 141.52 252.23 142.79
  Q 253.10 149.36 254.08 156.01
  Q 254.26 157.22 254.91 157.86
  Q 255.31 158.25 255.90 158.26
  A 1.30 1.29 84.3 0 1 257.14 159.28
  Q 257.52 160.98 259.33 161.23
  C 263.87 161.86 268.97 162.14 273.30 163.63
  Q 274.38 164.00 273.25 164.18
  Q 266.59 165.20 259.52 166.13
  Q 257.37 166.41 256.88 168.47
  Q 256.75 169.02 256.19 169.14
  Q 254.51 169.49 254.14 171.13
  Q 252.95 176.48 252.55 183.11
  Q 252.50 183.92 252.16 184.66
  Q 251.71 185.62 251.45 184.59
  Q 250.08 179.19 249.41 173.24
  Q 248.95 169.19 245.28 166.45
  Z"
/>
<path fill="#fe883c" d="
  M 360.00 234.58
  L 355.64 237.52
  A 0.23 0.22 64.9 0 1 355.30 237.39
  L 355.23 237.12
  Q 355.03 236.41 355.58 235.92
  Q 358.06 233.70 358.46 231.33
  A 0.81 0.81 0.0 0 0 357.78 230.40
  Q 345.63 228.56 335.27 227.37
  Q 333.62 227.18 332.20 226.23
  Q 331.69 225.89 332.30 225.79
  Q 342.33 224.17 354.12 222.71
  Q 355.94 222.48 357.71 221.94
  A 1.20 1.19 57.6 0 0 358.16 219.91
  Q 355.77 217.75 354.96 215.38
  Q 354.70 214.61 355.42 214.98
  C 356.23 215.40 356.98 215.43 357.68 216.09
  Q 358.81 217.15 360.05 217.84
  Q 361.94 218.90 362.27 216.75
  Q 363.76 206.93 365.32 196.32
  Q 365.56 194.68 365.97 192.85
  Q 366.15 192.06 366.34 192.85
  C 366.75 194.53 367.41 195.96 367.68 197.76
  Q 369.20 207.81 370.58 217.63
  A 0.99 0.99 0.0 0 0 372.08 218.33
  L 375.27 216.33
  Q 377.69 214.82 376.31 217.31
  Q 375.53 218.72 374.43 220.10
  A 1.20 1.20 0.0 0 0 375.09 222.01
  Q 376.48 222.35 377.89 222.54
  Q 388.10 223.91 400.06 225.63
  Q 401.18 225.79 400.25 226.43
  Q 399.33 227.05 397.74 227.27
  Q 386.02 228.85 375.35 230.33
  A 1.26 1.26 0.0 0 0 374.51 232.32
  L 376.88 235.52
  A 0.69 0.69 0.0 0 1 376.65 236.54
  Q 376.08 236.84 375.52 236.51
  Q 374.11 235.66 372.89 234.71
  A 1.48 1.48 0.0 0 0 370.51 235.64
  Q 369.14 243.96 367.88 253.86
  Q 367.58 256.20 366.97 257.49
  Q 365.87 259.81 365.50 257.27
  L 362.39 235.64
  A 1.54 1.54 0.0 0 0 360.00 234.58
  Z"
/>
<rect fill="#fe883c" x="-9.63" y="-131.42" transform="translate(177.55,315.02) rotate(44.9)" width="19.26" height="262.84" rx="2.91"/>
</svg>
