<?xml version="1.0" encoding="UTF-8" standalone="no"?>
<!DOCTYPE svg PUBLIC "-//W3C//DTD SVG 1.1//EN" "http://www.w3.org/Graphics/SVG/1.1/DTD/svg11.dtd">
<svg xmlns="http://www.w3.org/2000/svg" version="1.1" viewBox="0.00 0.00 290.00 310.00">
<path fill="#fd883c" d="
  M 198.69 65.21
  A 2.30 2.30 0.0 0 1 198.69 61.96
  L 209.77 50.88
  A 21.05 19.26 -45.0 0 1 238.27 49.61
  L 271.30 82.64
  A 21.05 19.26 -45.0 0 1 270.03 111.14
  L 258.95 122.22
  A 2.30 2.30 0.0 0 1 255.70 122.22
  L 198.69 65.21
  Z"
/>
<path fill="#fd883c" d="
  M 49.13 281.85
  C 44.72 282.91 40.03 279.83 39.12 275.40
  Q 38.71 273.43 39.72 269.14
  Q 44.84 247.32 50.11 226.28
  Q 51.38 221.21 52.34 216.63
  Q 53.36 211.73 54.87 207.34
  Q 55.80 204.63 60.33 200.11
  Q 119.82 140.72 181.93 78.71
  Q 182.97 77.68 184.24 76.61
  A 1.36 1.35 47.4 0 1 186.07 76.69
  L 244.16 134.78
  Q 245.07 135.69 244.27 136.70
  Q 243.09 138.17 241.66 139.61
  Q 179.90 201.55 118.19 263.02
  Q 115.44 265.77 111.50 266.73
  Q 78.76 274.72 49.13 281.85
  Z"
/>
</svg>
