<?xml version="1.0" encoding="UTF-8"?>
<svg viewBox="0 0 43 43" version="1.1" xmlns="http://www.w3.org/2000/svg" xmlns:xlink="http://www.w3.org/1999/xlink">
    <title>play-button-arrows-svgrepo-com</title>
    <g id="Case-page---LY" stroke="none" stroke-width="1" fill="none" fill-rule="evenodd">
        <g id="Large" transform="translate(-813, -1560)" fill="#FFFFFF" fill-rule="nonzero">
            <g id="Intro" transform="translate(216, 820)">
                <g id="Discover-button" transform="translate(570, 719)">
                    <g id="play-button-arrows-svgrepo-com" transform="translate(27, 21)">
                        <path d="M36.7027676,6.29723242 C32.6420391,2.23633594 27.2427676,0 21.5,0 C15.7572324,0 10.3579609,2.23633594 6.29723242,6.29723242 C2.23641992,10.3580449 0,15.7571484 0,21.5 C0,27.2428516 2.23633594,32.6420391 6.29723242,36.7027676 C10.3580449,40.7635801 15.7572324,43 21.5,43 C27.2427676,43 32.6420391,40.7636641 36.7027676,36.7027676 C40.7635801,32.6419551 43,27.2428516 43,21.5 C43,15.7571484 40.7636641,10.3579609 36.7027676,6.29723242 Z M21.5,40.3673418 C11.0964355,40.3673418 2.6326582,31.9034805 2.6326582,21.5 C2.6326582,11.0965195 11.0964355,2.6326582 21.5,2.6326582 C31.9035645,2.6326582 40.3673418,11.0965195 40.3673418,21.5 C40.3673418,31.9034805 31.9035645,40.3673418 21.5,40.3673418 Z" id="Shape"></path>
                        <path d="M14,11 L14,33 L33,21.9999582 L14,11 Z M16.612299,15.537043 L27.7755687,21.9999582 L16.612299,28.4628734 L16.612299,15.537043 Z" id="Shape"></path>
                    </g>
                </g>
            </g>
        </g>
    </g>
</svg>
